  0
SECTION
  2
HEADER
  9
$ACADVER
  1
AC1015
  9
$HANDSEED
  5
FFFF
  9
$DWGCODEPAGE
  3
ANSI_1252
  9
$INSUNITS
 70
6
  9
$DIMEXE
 40
1.25
  9
$TEXTSTYLE
  7
Standard
  9
$EXTMIN
 10
815527.7019536473089829
 20
984809.0911061079241335
  9
$EXTMAX
 10
817421.4903614837676287
 20
1014879.0712592416675761
  9
$LIMMIN
 10
815527.7019536473089829
 20
984809.0911061079241335
  9
$LIMMAX
 10
817421.4903614837676287
 20
1014879.0712592416675761
  0
ENDSEC
  0
SECTION
  2
TABLES
  0
TABLE
  2
VPORT
  5
8
100
AcDbSymbolTable
 70
1
  0
VPORT
  5
30
100
AcDbSymbolTableRecord
100
AcDbViewportTableRecord
  2
*Active
 70
0
 10
0.0
 20
0.0
 11
1.0
 21
1.0
 12
816474.5961575654800981
 22
999844.0811826747376472
 13
0.0
 23
0.0
 14
10.0
 24
10.0
 15
10.0
 25
10.0
 16
0.0
 26
0.0
 36
1.0
 17
0.0
 27
0.0
 37
0.0
 40
1893.7884078364586458
 41
15.8782153426986703
 42
50.0
 43
0.0
 44
0.0
 50
0.0
 51
0.0
 71
0
 72
100
 73
1
 74
3
 75
0
 76
0
 77
0
 78
0
281
0
 65
1
110
0.0
120
0.0
130
0.0
111
1.0
121
0.0
131
0.0
112
0.0
122
1.0
132
0.0
 79
0
146
0.0
  0
ENDTAB
  0
TABLE
  2
LTYPE
  5
5
100
AcDbSymbolTable
 70
3
  0
LTYPE
  5
14
100
AcDbSymbolTableRecord
100
AcDbLinetypeTableRecord
  2
BYBLOCK
 70
0
  3

 72
65
 73
0
 40
0.0
  0
LTYPE
  5
15
100
AcDbSymbolTableRecord
100
AcDbLinetypeTableRecord
  2
BYLAYER
 70
0
  3

 72
65
 73
0
 40
0.0
  0
LTYPE
  5
16
100
AcDbSymbolTableRecord
100
AcDbLinetypeTableRecord
  2
CONTINUOUS
 70
0
  3
Solid line
 72
65
 73
0
 40
0.0
  0
ENDTAB
  0
TABLE
  2
LAYER
  5
2
100
AcDbSymbolTable
 70
2
  0
LAYER
  5
10
100
AcDbSymbolTableRecord
100
AcDbLayerTableRecord
  2
0
 70
0
 62
0
  6
CONTINUOUS
370
100
390
F
  0
LAYER
  5
31
100
AcDbSymbolTableRecord
100
AcDbLayerTableRecord
  2
Survey
 70
0
 62
5
  6
CONTINUOUS
370
100
390
F
  0
ENDTAB
  0
TABLE
  2
STYLE
  5
3
100
AcDbSymbolTable
 70
1
  0
STYLE
  5
32
100
AcDbSymbolTableRecord
100
AcDbTextStyleTableRecord
  2
standard
 70
0
 40
2.5
 41
1.0
 50
0.0
 71
0
 42
2.5
  3

  4

1001
ACAD
1000
txt
1071
0
  0
ENDTAB
  0
TABLE
  2
VIEW
  5
6
100
AcDbSymbolTable
 70
0
  0
ENDTAB
  0
TABLE
  2
UCS
  5
7
100
AcDbSymbolTable
 70
0
  0
ENDTAB
  0
TABLE
  2
APPID
  5
9
100
AcDbSymbolTable
 70
1
  0
APPID
  5
12
100
AcDbSymbolTableRecord
100
AcDbRegAppTableRecord
  2
ACAD
 70
0
  0
ENDTAB
  0
TABLE
  2
DIMSTYLE
  5
A
100
AcDbSymbolTable
 70
1
100
AcDbDimStyleTable
 71
0
  0
DIMSTYLE
105
27
100
AcDbSymbolTableRecord
100
AcDbDimStyleTableRecord
  2
Standard
 41
1.0
 42
1.0
 43
3.75
 44
1.0
 70
0
 73
0
 74
0
 77
1
 78
8
140
1.0
141
2.5
143
0.03937007874016
147
1.0
171
3
172
1
271
2
272
2
274
3
278
44
283
0
284
8
340
0
  0
ENDTAB
  0
TABLE
  2
BLOCK_RECORD
  5
1
100
AcDbSymbolTable
 70
1
  0
BLOCK_RECORD
  5
1F
100
AcDbSymbolTableRecord
100
AcDbBlockTableRecord
  2
*Model_Space
340
22
  0
BLOCK_RECORD
  5
1B
100
AcDbSymbolTableRecord
100
AcDbBlockTableRecord
  2
*Paper_Space
340
1E
  0
BLOCK_RECORD
  5
23
100
AcDbSymbolTableRecord
100
AcDbBlockTableRecord
  2
*Paper_Space0
340
26
  0
ENDTAB
  0
ENDSEC
  0
SECTION
  2
BLOCKS
  0
BLOCK
  5
20
100
AcDbEntity
  8
0
100
AcDbBlockBegin
  2
*Model_Space
 70
0
 10
0.0
 20
0.0
 30
0.0
  3
*Model_Space
  1

  0
ENDBLK
  5
21
100
AcDbEntity
  8
0
100
AcDbBlockEnd
  0
BLOCK
  5
1C
100
AcDbEntity
 67
1
  8
0
100
AcDbBlockBegin
  2
*Paper_Space
 70
0
 10
0.0
 20
0.0
 30
0.0
  3
*Paper_Space
  1

  0
ENDBLK
  5
1D
100
AcDbEntity
 67
1
  8
0
100
AcDbBlockEnd
  0
BLOCK
  5
24
100
AcDbEntity
  8
0
100
AcDbBlockBegin
  2
*Paper_Space0
 70
0
 10
0.0
 20
0.0
 30
0.0
  3
*Paper_Space0
  1

  0
ENDBLK
  5
25
100
AcDbEntity
  8
0
100
AcDbBlockEnd
  0
ENDSEC
  0
SECTION
  2
ENTITIES
  0
POINT
  5
33
100
AcDbEntity
  8
Survey
 62
256
370
-1
 48
1.0
  6
BYLAYER
100
AcDbPoint
 10
815698.0690000000176951
 20
1014879.0670000000391155
 30
113.7690000000000055
  0
MTEXT
  5
34
100
AcDbEntity
  8
Survey
 62
256
370
-1
 48
1.0
  6
BYLAYER
100
AcDbMText
 10
815698.0690000000176951
 20
1014879.0670000000391155
 30
113.7690000000000055
 40
0.5
 41
4.0
 71
4
 72
0
  1
 TBM N2\P 113.769
  7
standard
 50
0.0
 73
1
 44
1.0
  0
POINT
  5
35
100
AcDbEntity
  8
Survey
 62
256
370
-1
 48
1.0
  6
BYLAYER
100
AcDbPoint
 10
815690.3669999999692664
 20
1014875.7820000000065193
 30
113.7530000000000001
  0
MTEXT
  5
36
100
AcDbEntity
  8
Survey
 62
256
370
-1
 48
1.0
  6
BYLAYER
100
AcDbMText
 10
815690.3669999999692664
 20
1014875.7820000000065193
 30
113.7530000000000001
 40
0.5
 41
4.0
 71
4
 72
0
  1
 TBM N3\P 113.753
  7
standard
 50
0.0
 73
1
 44
1.0
  0
POINT
  5
37
100
AcDbEntity
  8
Survey
 62
256
370
-1
 48
1.0
  6
BYLAYER
100
AcDbPoint
 10
815698.0688319406472147
 20
1014879.0712592416675761
 30
113.7685602444534396
  0
MTEXT
  5
38
100
AcDbEntity
  8
Survey
 62
256
370
-1
 48
1.0
  6
BYLAYER
100
AcDbMText
 10
815698.0688319406472147
 20
1014879.0712592416675761
 30
113.7685602444534396
 40
0.5
 41
5.0
 71
4
 72
0
  1
 TBM N2(1)\P 113.769
  7
standard
 50
0.0
 73
1
 44
1.0
  0
POINT
  5
39
100
AcDbEntity
  8
Survey
 62
256
370
-1
 48
1.0
  6
BYLAYER
100
AcDbPoint
 10
815690.3578301854431629
 20
1014875.7967529735760763
 30
113.7336089785630264
  0
MTEXT
  5
3A
100
AcDbEntity
  8
Survey
 62
256
370
-1
 48
1.0
  6
BYLAYER
100
AcDbMText
 10
815690.3578301854431629
 20
1014875.7967529735760763
 30
113.7336089785630264
 40
0.5
 41
5.0
 71
4
 72
0
  1
 TBM N3(1)\P 113.734\P CHECK IN
  7
standard
 50
0.0
 73
1
 44
1.0
  0
POINT
  5
3B
100
AcDbEntity
  8
Survey
 62
256
370
-1
 48
1.0
  6
BYLAYER
100
AcDbPoint
 10
815527.7019536473089829
 20
990497.015475424239412
 30
81.099599306444631
  0
MTEXT
  5
3C
100
AcDbEntity
  8
Survey
 62
256
370
-1
 48
1.0
  6
BYLAYER
100
AcDbMText
 10
815527.7019536473089829
 20
990497.015475424239412
 30
81.099599306444631
 40
0.5
 41
6.5
 71
4
 72
0
  1
 1\P 81.1\P DL R 614-600
  7
standard
 50
0.0
 73
1
 44
1.0
  0
POINT
  5
3D
100
AcDbEntity
  8
Survey
 62
256
370
-1
 48
1.0
  6
BYLAYER
100
AcDbPoint
 10
815534.0925240979995579
 20
990477.8135070039425045
 30
81.0395256594353981
  0
MTEXT
  5
3E
100
AcDbEntity
  8
Survey
 62
256
370
-1
 48
1.0
  6
BYLAYER
100
AcDbMText
 10
815534.0925240979995579
 20
990477.8135070039425045
 30
81.0395256594353981
 40
0.5
 41
6.5
 71
4
 72
0
  1
 2\P 81.04\P DL R 614-620
  7
standard
 50
0.0
 73
1
 44
1.0
  0
POINT
  5
3F
100
AcDbEntity
  8
Survey
 62
256
370
-1
 48
1.0
  6
BYLAYER
100
AcDbPoint
 10
815540.5980815562652424
 20
990458.4187153372913599
 30
80.9706191605751542
  0
MTEXT
  5
40
100
AcDbEntity
  8
Survey
 62
256
370
-1
 48
1.0
  6
BYLAYER
100
AcDbMText
 10
815540.5980815562652424
 20
990458.4187153372913599
 30
80.9706191605751542
 40
0.5
 41
6.5
 71
4
 72
0
  1
 3\P 80.971\P DL R 614-640
  7
standard
 50
0.0
 73
1
 44
1.0
  0
POINT
  5
41
100
AcDbEntity
  8
Survey
 62
256
370
-1
 48
1.0
  6
BYLAYER
100
AcDbPoint
 10
815546.9670063452795148
 20
990439.3821787158958614
 30
80.8888262196430929
  0
MTEXT
  5
42
100
AcDbEntity
  8
Survey
 62
256
370
-1
 48
1.0
  6
BYLAYER
100
AcDbMText
 10
815546.9670063452795148
 20
990439.3821787158958614
 30
80.8888262196430929
 40
0.5
 41
6.5
 71
4
 72
0
  1
 4\P 80.889\P DL R 614-660
  7
standard
 50
0.0
 73
1
 44
1.0
  0
POINT
  5
43
100
AcDbEntity
  8
Survey
 62
256
370
-1
 48
1.0
  6
BYLAYER
100
AcDbPoint
 10
815553.4091131882742047
 20
990420.0513162326533347
 30
80.7759786651828762
  0
MTEXT
  5
44
100
AcDbEntity
  8
Survey
 62
256
370
-1
 48
1.0
  6
BYLAYER
100
AcDbMText
 10
815553.4091131882742047
 20
990420.0513162326533347
 30
80.7759786651828762
 40
0.5
 41
6.5
 71
4
 72
0
  1
 5\P 80.776\P DL R 614-680
  7
standard
 50
0.0
 73
1
 44
1.0
  0
POINT
  5
45
100
AcDbEntity
  8
Survey
 62
256
370
-1
 48
1.0
  6
BYLAYER
100
AcDbPoint
 10
815559.6175667245406657
 20
990401.508672809577547
 30
80.6951149960677014
  0
MTEXT
  5
46
100
AcDbEntity
  8
Survey
 62
256
370
-1
 48
1.0
  6
BYLAYER
100
AcDbMText
 10
815559.6175667245406657
 20
990401.508672809577547
 30
80.6951149960677014
 40
0.5
 41
6.5
 71
4
 72
0
  1
 6\P 80.695\P DL R 614-700
  7
standard
 50
0.0
 73
1
 44
1.0
  0
POINT
  5
47
100
AcDbEntity
  8
Survey
 62
256
370
-1
 48
1.0
  6
BYLAYER
100
AcDbPoint
 10
815566.1012167364824563
 20
990382.2008255254477262
 30
80.5983610366004939
  0
MTEXT
  5
48
100
AcDbEntity
  8
Survey
 62
256
370
-1
 48
1.0
  6
BYLAYER
100
AcDbMText
 10
815566.1012167364824563
 20
990382.2008255254477262
 30
80.5983610366004939
 40
0.5
 41
6.5
 71
4
 72
0
  1
 7\P 80.598\P DL R 614-720
  7
standard
 50
0.0
 73
1
 44
1.0
  0
POINT
  5
49
100
AcDbEntity
  8
Survey
 62
256
370
-1
 48
1.0
  6
BYLAYER
100
AcDbPoint
 10
815572.4601225834339857
 20
990363.0251728954026476
 30
80.4627575054994963
  0
MTEXT
  5
4A
100
AcDbEntity
  8
Survey
 62
256
370
-1
 48
1.0
  6
BYLAYER
100
AcDbMText
 10
815572.4601225834339857
 20
990363.0251728954026476
 30
80.4627575054994963
 40
0.5
 41
6.5
 71
4
 72
0
  1
 8\P 80.463\P DL R 614-740
  7
standard
 50
0.0
 73
1
 44
1.0
  0
POINT
  5
4B
100
AcDbEntity
  8
Survey
 62
256
370
-1
 48
1.0
  6
BYLAYER
100
AcDbPoint
 10
815578.9342293832451105
 20
990343.6434150534914806
 30
80.2942429398257786
  0
MTEXT
  5
4C
100
AcDbEntity
  8
Survey
 62
256
370
-1
 48
1.0
  6
BYLAYER
100
AcDbMText
 10
815578.9342293832451105
 20
990343.6434150534914806
 30
80.2942429398257786
 40
0.5
 41
6.5
 71
4
 72
0
  1
 9\P 80.294\P DL R 614-760
  7
standard
 50
0.0
 73
1
 44
1.0
  0
POINT
  5
4D
100
AcDbEntity
  8
Survey
 62
256
370
-1
 48
1.0
  6
BYLAYER
100
AcDbPoint
 10
815585.429304837831296
 20
990324.2267291031312197
 30
80.1839938694623555
  0
MTEXT
  5
4E
100
AcDbEntity
  8
Survey
 62
256
370
-1
 48
1.0
  6
BYLAYER
100
AcDbMText
 10
815585.429304837831296
 20
990324.2267291031312197
 30
80.1839938694623555
 40
0.5
 41
6.5
 71
4
 72
0
  1
 10\P 80.184\P DL R 614-780
  7
standard
 50
0.0
 73
1
 44
1.0
  0
POINT
  5
4F
100
AcDbEntity
  8
Survey
 62
256
370
-1
 48
1.0
  6
BYLAYER
100
AcDbPoint
 10
815591.2403561365790665
 20
990306.9637359287589788
 30
80.093546550779692
  0
MTEXT
  5
50
100
AcDbEntity
  8
Survey
 62
256
370
-1
 48
1.0
  6
BYLAYER
100
AcDbMText
 10
815591.2403561365790665
 20
990306.9637359287589788
 30
80.093546550779692
 40
0.5
 41
6.5
 71
4
 72
0
  1
 11\P 80.094\P DL R 614-800
  7
standard
 50
0.0
 73
1
 44
1.0
  0
POINT
  5
51
100
AcDbEntity
  8
Survey
 62
256
370
-1
 48
1.0
  6
BYLAYER
100
AcDbPoint
 10
815597.6257691667415202
 20
990287.8769549984717742
 30
80.0006488019178903
  0
MTEXT
  5
52
100
AcDbEntity
  8
Survey
 62
256
370
-1
 48
1.0
  6
BYLAYER
100
AcDbMText
 10
815597.6257691667415202
 20
990287.8769549984717742
 30
80.0006488019178903
 40
0.5
 41
6.5
 71
4
 72
0
  1
 12\P 80.001\P DL R 614-820
  7
standard
 50
0.0
 73
1
 44
1.0
  0
POINT
  5
53
100
AcDbEntity
  8
Survey
 62
256
370
-1
 48
1.0
  6
BYLAYER
100
AcDbPoint
 10
815603.9606747652869672
 20
990268.9723182530142367
 30
79.9133107016859441
  0
MTEXT
  5
54
100
AcDbEntity
  8
Survey
 62
256
370
-1
 48
1.0
  6
BYLAYER
100
AcDbMText
 10
815603.9606747652869672
 20
990268.9723182530142367
 30
79.9133107016859441
 40
0.5
 41
6.5
 71
4
 72
0
  1
 13\P 79.913\P DL R 614-840
  7
standard
 50
0.0
 73
1
 44
1.0
  0
POINT
  5
55
100
AcDbEntity
  8
Survey
 62
256
370
-1
 48
1.0
  6
BYLAYER
100
AcDbPoint
 10
815610.3005178219173104
 20
990250.0277577911037952
 30
79.8468311021600243
  0
MTEXT
  5
56
100
AcDbEntity
  8
Survey
 62
256
370
-1
 48
1.0
  6
BYLAYER
100
AcDbMText
 10
815610.3005178219173104
 20
990250.0277577911037952
 30
79.8468311021600243
 40
0.5
 41
6.5
 71
4
 72
0
  1
 14\P 79.847\P DL R 614-860
  7
standard
 50
0.0
 73
1
 44
1.0
  0
POINT
  5
57
100
AcDbEntity
  8
Survey
 62
256
370
-1
 48
1.0
  6
BYLAYER
100
AcDbPoint
 10
815616.6329323614481837
 20
990231.1752382690319791
 30
79.7574212821802604
  0
MTEXT
  5
58
100
AcDbEntity
  8
Survey
 62
256
370
-1
 48
1.0
  6
BYLAYER
100
AcDbMText
 10
815616.6329323614481837
 20
990231.1752382690319791
 30
79.7574212821802604
 40
0.5
 41
6.5
 71
4
 72
0
  1
 15\P 79.757\P DL R 614-880
  7
standard
 50
0.0
 73
1
 44
1.0
  0
POINT
  5
59
100
AcDbEntity
  8
Survey
 62
256
370
-1
 48
1.0
  6
BYLAYER
100
AcDbPoint
 10
815622.9545558732934296
 20
990212.3095716827083379
 30
79.6631935642518556
  0
MTEXT
  5
5A
100
AcDbEntity
  8
Survey
 62
256
370
-1
 48
1.0
  6
BYLAYER
100
AcDbMText
 10
815622.9545558732934296
 20
990212.3095716827083379
 30
79.6631935642518556
 40
0.5
 41
6.5
 71
4
 72
0
  1
 16\P 79.663\P DL R 614-900
  7
standard
 50
0.0
 73
1
 44
1.0
  0
POINT
  5
5B
100
AcDbEntity
  8
Survey
 62
256
370
-1
 48
1.0
  6
BYLAYER
100
AcDbPoint
 10
815629.4428569136653095
 20
990192.9177344334311783
 30
79.5431221791587859
  0
MTEXT
  5
5C
100
AcDbEntity
  8
Survey
 62
256
370
-1
 48
1.0
  6
BYLAYER
100
AcDbMText
 10
815629.4428569136653095
 20
990192.9177344334311783
 30
79.5431221791587859
 40
0.5
 41
6.5
 71
4
 72
0
  1
 17\P 79.543\P DL R 614-920
  7
standard
 50
0.0
 73
1
 44
1.0
  0
POINT
  5
5D
100
AcDbEntity
  8
Survey
 62
256
370
-1
 48
1.0
  6
BYLAYER
100
AcDbPoint
 10
815635.821121271350421
 20
990173.8327751490287483
 30
79.445607228712575
  0
MTEXT
  5
5E
100
AcDbEntity
  8
Survey
 62
256
370
-1
 48
1.0
  6
BYLAYER
100
AcDbMText
 10
815635.821121271350421
 20
990173.8327751490287483
 30
79.445607228712575
 40
0.5
 41
6.5
 71
4
 72
0
  1
 18\P 79.446\P DL R 614-940
  7
standard
 50
0.0
 73
1
 44
1.0
  0
POINT
  5
5F
100
AcDbEntity
  8
Survey
 62
256
370
-1
 48
1.0
  6
BYLAYER
100
AcDbPoint
 10
815642.2296482475940138
 20
990154.6925920486683026
 30
79.320135537580569
  0
MTEXT
  5
60
100
AcDbEntity
  8
Survey
 62
256
370
-1
 48
1.0
  6
BYLAYER
100
AcDbMText
 10
815642.2296482475940138
 20
990154.6925920486683026
 30
79.320135537580569
 40
0.5
 41
6.5
 71
4
 72
0
  1
 19\P 79.32\P DL R 614-960
  7
standard
 50
0.0
 73
1
 44
1.0
  0
POINT
  5
61
100
AcDbEntity
  8
Survey
 62
256
370
-1
 48
1.0
  6
BYLAYER
100
AcDbPoint
 10
815652.9471031753346324
 20
990122.741871323203668
 30
79.1932424912577062
  0
MTEXT
  5
62
100
AcDbEntity
  8
Survey
 62
256
370
-1
 48
1.0
  6
BYLAYER
100
AcDbMText
 10
815652.9471031753346324
 20
990122.741871323203668
 30
79.1932424912577062
 40
0.5
 41
6.5
 71
4
 72
0
  1
 20\P 79.193\P DL R 614-980
  7
standard
 50
0.0
 73
1
 44
1.0
  0
POINT
  5
63
100
AcDbEntity
  8
Survey
 62
256
370
-1
 48
1.0
  6
BYLAYER
100
AcDbPoint
 10
815663.8067408829228953
 20
990090.1887388781178743
 30
79.0560611933929209
  0
MTEXT
  5
64
100
AcDbEntity
  8
Survey
 62
256
370
-1
 48
1.0
  6
BYLAYER
100
AcDbMText
 10
815663.8067408829228953
 20
990090.1887388781178743
 30
79.0560611933929209
 40
0.5
 41
6.5
 71
4
 72
0
  1
 21\P 79.056\P DL R 615-000
  7
standard
 50
0.0
 73
1
 44
1.0
  0
POINT
  5
65
100
AcDbEntity
  8
Survey
 62
256
370
-1
 48
1.0
  6
BYLAYER
100
AcDbPoint
 10
815665.4833935429342091
 20
990090.7576192329870537
 30
79.073682159563532
  0
MTEXT
  5
66
100
AcDbEntity
  8
Survey
 62
256
370
-1
 48
1.0
  6
BYLAYER
100
AcDbMText
 10
815665.4833935429342091
 20
990090.7576192329870537
 30
79.073682159563532
 40
0.5
 41
6.5
 71
4
 72
0
  1
 22\P 79.074\P DL L 615-000
  7
standard
 50
0.0
 73
1
 44
1.0
  0
POINT
  5
67
100
AcDbEntity
  8
Survey
 62
256
370
-1
 48
1.0
  6
BYLAYER
100
AcDbPoint
 10
815664.6534110296051949
 20
990090.4688715814845636
 30
78.8696831522265427
  0
MTEXT
  5
68
100
AcDbEntity
  8
Survey
 62
256
370
-1
 48
1.0
  6
BYLAYER
100
AcDbMText
 10
815664.6534110296051949
 20
990090.4688715814845636
 30
78.8696831522265427
 40
0.5
 41
7.0
 71
4
 72
0
  1
 23\P 78.87\P XMARK 615.000
  7
standard
 50
0.0
 73
1
 44
1.0
  0
POINT
  5
69
100
AcDbEntity
  8
Survey
 62
256
370
-1
 48
1.0
  6
BYLAYER
100
AcDbPoint
 10
815661.9963501859456301
 20
990089.4650582385947928
 30
78.5559332927681453
  0
MTEXT
  5
6A
100
AcDbEntity
  8
Survey
 62
256
370
-1
 48
1.0
  6
BYLAYER
100
AcDbMText
 10
815661.9963501859456301
 20
990089.4650582385947928
 30
78.5559332927681453
 40
0.5
 41
5.5
 71
4
 72
0
  1
 24\P 78.556\P HM 615.000
  7
standard
 50
0.0
 73
1
 44
1.0
  0
POINT
  5
6B
100
AcDbEntity
  8
Survey
 62
256
370
-1
 48
1.0
  6
BYLAYER
100
AcDbPoint
 10
815670.2790567928459495
 20
990071.0570200002985075
 30
79.0347001712032409
  0
MTEXT
  5
6C
100
AcDbEntity
  8
Survey
 62
256
370
-1
 48
1.0
  6
BYLAYER
100
AcDbMText
 10
815670.2790567928459495
 20
990071.0570200002985075
 30
79.0347001712032409
 40
0.5
 41
6.5
 71
4
 72
0
  1
 25\P 79.035\P DL R 615-020
  7
standard
 50
0.0
 73
1
 44
1.0
  0
POINT
  5
6D
100
AcDbEntity
  8
Survey
 62
256
370
-1
 48
1.0
  6
BYLAYER
100
AcDbPoint
 10
815676.3926462512463331
 20
990052.7176376489223912
 30
78.9302786519834001
  0
MTEXT
  5
6E
100
AcDbEntity
  8
Survey
 62
256
370
-1
 48
1.0
  6
BYLAYER
100
AcDbMText
 10
815676.3926462512463331
 20
990052.7176376489223912
 30
78.9302786519834001
 40
0.5
 41
6.5
 71
4
 72
0
  1
 26\P 78.93\P DL R 615-040
  7
standard
 50
0.0
 73
1
 44
1.0
  0
POINT
  5
6F
100
AcDbEntity
  8
Survey
 62
256
370
-1
 48
1.0
  6
BYLAYER
100
AcDbPoint
 10
815682.558183002169244
 20
990034.2664132007630542
 30
78.8548921431502947
  0
MTEXT
  5
70
100
AcDbEntity
  8
Survey
 62
256
370
-1
 48
1.0
  6
BYLAYER
100
AcDbMText
 10
815682.558183002169244
 20
990034.2664132007630542
 30
78.8548921431502947
 40
0.5
 41
6.5
 71
4
 72
0
  1
 27\P 78.855\P DL R 615-060
  7
standard
 50
0.0
 73
1
 44
1.0
  0
POINT
  5
71
100
AcDbEntity
  8
Survey
 62
256
370
-1
 48
1.0
  6
BYLAYER
100
AcDbPoint
 10
815681.9577916588168591
 20
990048.8730287054786459
 30
78.6040258845024624
  0
MTEXT
  5
72
100
AcDbEntity
  8
Survey
 62
256
370
-1
 48
1.0
  6
BYLAYER
100
AcDbMText
 10
815681.9577916588168591
 20
990048.8730287054786459
 30
78.6040258845024624
 40
0.5
 41
5.5
 71
4
 72
0
  1
 28\P 78.604\P MAST 615.2
  7
standard
 50
0.0
 73
1
 44
1.0
  0
POINT
  5
73
100
AcDbEntity
  8
Survey
 62
256
370
-1
 48
1.0
  6
BYLAYER
100
AcDbPoint
 10
815689.0880664028227329
 20
990014.8393594474764541
 30
78.7595642683981225
  0
MTEXT
  5
74
100
AcDbEntity
  8
Survey
 62
256
370
-1
 48
1.0
  6
BYLAYER
100
AcDbMText
 10
815689.0880664028227329
 20
990014.8393594474764541
 30
78.7595642683981225
 40
0.5
 41
6.5
 71
4
 72
0
  1
 29\P 78.76\P DL R 615-080
  7
standard
 50
0.0
 73
1
 44
1.0
  0
POINT
  5
75
100
AcDbEntity
  8
Survey
 62
256
370
-1
 48
1.0
  6
BYLAYER
100
AcDbPoint
 10
815695.4763330961577594
 20
989995.6613752724369988
 30
78.6759504367477973
  0
MTEXT
  5
76
100
AcDbEntity
  8
Survey
 62
256
370
-1
 48
1.0
  6
BYLAYER
100
AcDbMText
 10
815695.4763330961577594
 20
989995.6613752724369988
 30
78.6759504367477973
 40
0.5
 41
6.5
 71
4
 72
0
  1
 30\P 78.676\P DL R 615-100
  7
standard
 50
0.0
 73
1
 44
1.0
  0
POINT
  5
77
100
AcDbEntity
  8
Survey
 62
256
370
-1
 48
1.0
  6
BYLAYER
100
AcDbPoint
 10
815701.9238015334121883
 20
989976.3023093576775864
 30
78.5769247028861599
  0
MTEXT
  5
78
100
AcDbEntity
  8
Survey
 62
256
370
-1
 48
1.0
  6
BYLAYER
100
AcDbMText
 10
815701.9238015334121883
 20
989976.3023093576775864
 30
78.5769247028861599
 40
0.5
 41
6.5
 71
4
 72
0
  1
 31\P 78.577\P DL R 615-120
  7
standard
 50
0.0
 73
1
 44
1.0
  0
POINT
  5
79
100
AcDbEntity
  8
Survey
 62
256
370
-1
 48
1.0
  6
BYLAYER
100
AcDbPoint
 10
815708.3392544231610373
 20
989957.0970828509889543
 30
78.5084119197665444
  0
MTEXT
  5
7A
100
AcDbEntity
  8
Survey
 62
256
370
-1
 48
1.0
  6
BYLAYER
100
AcDbMText
 10
815708.3392544231610373
 20
989957.0970828509889543
 30
78.5084119197665444
 40
0.5
 41
6.5
 71
4
 72
0
  1
 32\P 78.508\P DL R 615-140
  7
standard
 50
0.0
 73
1
 44
1.0
  0
POINT
  5
7B
100
AcDbEntity
  8
Survey
 62
256
370
-1
 48
1.0
  6
BYLAYER
100
AcDbPoint
 10
815714.8410134257283062
 20
989937.6367084316443652
 30
78.4242554710063473
  0
MTEXT
  5
7C
100
AcDbEntity
  8
Survey
 62
256
370
-1
 48
1.0
  6
BYLAYER
100
AcDbMText
 10
815714.8410134257283062
 20
989937.6367084316443652
 30
78.4242554710063473
 40
0.5
 41
6.5
 71
4
 72
0
  1
 33\P 78.424\P DL R 615-160
  7
standard
 50
0.0
 73
1
 44
1.0
  0
POINT
  5
7D
100
AcDbEntity
  8
Survey
 62
256
370
-1
 48
1.0
  6
BYLAYER
100
AcDbPoint
 10
815721.1359728162642568
 20
989918.76694821275305
 30
78.3407351485595882
  0
MTEXT
  5
7E
100
AcDbEntity
  8
Survey
 62
256
370
-1
 48
1.0
  6
BYLAYER
100
AcDbMText
 10
815721.1359728162642568
 20
989918.76694821275305
 30
78.3407351485595882
 40
0.5
 41
6.5
 71
4
 72
0
  1
 34\P 78.341\P DL R 615-180
  7
standard
 50
0.0
 73
1
 44
1.0
  0
POINT
  5
7F
100
AcDbEntity
  8
Survey
 62
256
370
-1
 48
1.0
  6
BYLAYER
100
AcDbPoint
 10
815727.521580345230177
 20
989899.6215950518380851
 30
78.2642132605833467
  0
MTEXT
  5
80
100
AcDbEntity
  8
Survey
 62
256
370
-1
 48
1.0
  6
BYLAYER
100
AcDbMText
 10
815727.521580345230177
 20
989899.6215950518380851
 30
78.2642132605833467
 40
0.5
 41
6.5
 71
4
 72
0
  1
 35\P 78.264\P DL R 615-200
  7
standard
 50
0.0
 73
1
 44
1.0
  0
POINT
  5
81
100
AcDbEntity
  8
Survey
 62
256
370
-1
 48
1.0
  6
BYLAYER
100
AcDbPoint
 10
815733.7717712023295462
 20
989880.9323627337580547
 30
78.1791007299378435
  0
MTEXT
  5
82
100
AcDbEntity
  8
Survey
 62
256
370
-1
 48
1.0
  6
BYLAYER
100
AcDbMText
 10
815733.7717712023295462
 20
989880.9323627337580547
 30
78.1791007299378435
 40
0.5
 41
6.5
 71
4
 72
0
  1
 36\P 78.179\P DL R 615-220
  7
standard
 50
0.0
 73
1
 44
1.0
  0
POINT
  5
83
100
AcDbEntity
  8
Survey
 62
256
370
-1
 48
1.0
  6
BYLAYER
100
AcDbPoint
 10
815740.1497354081366211
 20
989861.8364299234235659
 30
78.0857974783512674
  0
MTEXT
  5
84
100
AcDbEntity
  8
Survey
 62
256
370
-1
 48
1.0
  6
BYLAYER
100
AcDbMText
 10
815740.1497354081366211
 20
989861.8364299234235659
 30
78.0857974783512674
 40
0.5
 41
6.5
 71
4
 72
0
  1
 37\P 78.086\P DL R 615-240
  7
standard
 50
0.0
 73
1
 44
1.0
  0
POINT
  5
85
100
AcDbEntity
  8
Survey
 62
256
370
-1
 48
1.0
  6
BYLAYER
100
AcDbPoint
 10
815746.5086474390700459
 20
989842.7986849898006767
 30
77.9967763538774648
  0
MTEXT
  5
86
100
AcDbEntity
  8
Survey
 62
256
370
-1
 48
1.0
  6
BYLAYER
100
AcDbMText
 10
815746.5086474390700459
 20
989842.7986849898006767
 30
77.9967763538774648
 40
0.5
 41
6.5
 71
4
 72
0
  1
 38\P 77.997\P DL R 615-260
  7
standard
 50
0.0
 73
1
 44
1.0
  0
POINT
  5
87
100
AcDbEntity
  8
Survey
 62
256
370
-1
 48
1.0
  6
BYLAYER
100
AcDbPoint
 10
815752.925900824368
 20
989823.605533201713115
 30
77.9235672029966793
  0
MTEXT
  5
88
100
AcDbEntity
  8
Survey
 62
256
370
-1
 48
1.0
  6
BYLAYER
100
AcDbMText
 10
815752.925900824368
 20
989823.605533201713115
 30
77.9235672029966793
 40
0.5
 41
6.5
 71
4
 72
0
  1
 39\P 77.924\P DL R 615-280
  7
standard
 50
0.0
 73
1
 44
1.0
  0
POINT
  5
89
100
AcDbEntity
  8
Survey
 62
256
370
-1
 48
1.0
  6
BYLAYER
100
AcDbPoint
 10
815759.4481660854071379
 20
989804.0733604624401778
 30
77.8558549173665426
  0
MTEXT
  5
8A
100
AcDbEntity
  8
Survey
 62
256
370
-1
 48
1.0
  6
BYLAYER
100
AcDbMText
 10
815759.4481660854071379
 20
989804.0733604624401778
 30
77.8558549173665426
 40
0.5
 41
6.5
 71
4
 72
0
  1
 40\P 77.856\P DL R 615-300
  7
standard
 50
0.0
 73
1
 44
1.0
  0
POINT
  5
8B
100
AcDbEntity
  8
Survey
 62
256
370
-1
 48
1.0
  6
BYLAYER
100
AcDbPoint
 10
815765.8078672657720745
 20
989785.0345124567393214
 30
77.7585674743935158
  0
MTEXT
  5
8C
100
AcDbEntity
  8
Survey
 62
256
370
-1
 48
1.0
  6
BYLAYER
100
AcDbMText
 10
815765.8078672657720745
 20
989785.0345124567393214
 30
77.7585674743935158
 40
0.5
 41
6.5
 71
4
 72
0
  1
 41\P 77.759\P DL R 615-320
  7
standard
 50
0.0
 73
1
 44
1.0
  0
POINT
  5
8D
100
AcDbEntity
  8
Survey
 62
256
370
-1
 48
1.0
  6
BYLAYER
100
AcDbPoint
 10
815772.2079501422122121
 20
989765.8567220614058897
 30
77.7105440020991551
  0
MTEXT
  5
8E
100
AcDbEntity
  8
Survey
 62
256
370
-1
 48
1.0
  6
BYLAYER
100
AcDbMText
 10
815772.2079501422122121
 20
989765.8567220614058897
 30
77.7105440020991551
 40
0.5
 41
6.5
 71
4
 72
0
  1
 42\P 77.711\P DL R 615-340
  7
standard
 50
0.0
 73
1
 44
1.0
  0
POINT
  5
8F
100
AcDbEntity
  8
Survey
 62
256
370
-1
 48
1.0
  6
BYLAYER
100
AcDbPoint
 10
815778.6236849189735949
 20
989746.7189037717180327
 30
77.608921831671779
  0
MTEXT
  5
90
100
AcDbEntity
  8
Survey
 62
256
370
-1
 48
1.0
  6
BYLAYER
100
AcDbMText
 10
815778.6236849189735949
 20
989746.7189037717180327
 30
77.608921831671779
 40
0.5
 41
6.5
 71
4
 72
0
  1
 43\P 77.609\P DL R 615-360
  7
standard
 50
0.0
 73
1
 44
1.0
  0
POINT
  5
91
100
AcDbEntity
  8
Survey
 62
256
370
-1
 48
1.0
  6
BYLAYER
100
AcDbPoint
 10
815784.9819018802372739
 20
989727.7022919974988326
 30
77.5233020743036008
  0
MTEXT
  5
92
100
AcDbEntity
  8
Survey
 62
256
370
-1
 48
1.0
  6
BYLAYER
100
AcDbMText
 10
815784.9819018802372739
 20
989727.7022919974988326
 30
77.5233020743036008
 40
0.5
 41
6.5
 71
4
 72
0
  1
 44\P 77.523\P DL R 615-380
  7
standard
 50
0.0
 73
1
 44
1.0
  0
POINT
  5
93
100
AcDbEntity
  8
Survey
 62
256
370
-1
 48
1.0
  6
BYLAYER
100
AcDbPoint
 10
815791.4529787583742291
 20
989708.3848000899888575
 30
77.4739110747200925
  0
MTEXT
  5
94
100
AcDbEntity
  8
Survey
 62
256
370
-1
 48
1.0
  6
BYLAYER
100
AcDbMText
 10
815791.4529787583742291
 20
989708.3848000899888575
 30
77.4739110747200925
 40
0.5
 41
6.5
 71
4
 72
0
  1
 45\P 77.474\P DL R 615-400
  7
standard
 50
0.0
 73
1
 44
1.0
  0
POINT
  5
95
100
AcDbEntity
  8
Survey
 62
256
370
-1
 48
1.0
  6
BYLAYER
100
AcDbPoint
 10
815797.8309553380822763
 20
989689.2205607144860551
 30
77.3161084278336403
  0
MTEXT
  5
96
100
AcDbEntity
  8
Survey
 62
256
370
-1
 48
1.0
  6
BYLAYER
100
AcDbMText
 10
815797.8309553380822763
 20
989689.2205607144860551
 30
77.3161084278336403
 40
0.5
 41
6.5
 71
4
 72
0
  1
 46\P 77.316\P DL R 615-420
  7
standard
 50
0.0
 73
1
 44
1.0
  0
POINT
  5
97
100
AcDbEntity
  8
Survey
 62
256
370
-1
 48
1.0
  6
BYLAYER
100
AcDbPoint
 10
815804.3161973594687879
 20
989669.7953590801917017
 30
77.2654491139618784
  0
MTEXT
  5
98
100
AcDbEntity
  8
Survey
 62
256
370
-1
 48
1.0
  6
BYLAYER
100
AcDbMText
 10
815804.3161973594687879
 20
989669.7953590801917017
 30
77.2654491139618784
 40
0.5
 41
6.5
 71
4
 72
0
  1
 47\P 77.265\P DL R 615-440
  7
standard
 50
0.0
 73
1
 44
1.0
  0
POINT
  5
99
100
AcDbEntity
  8
Survey
 62
256
370
-1
 48
1.0
  6
BYLAYER
100
AcDbPoint
 10
815810.7545234351418912
 20
989650.4727388652972877
 30
77.2249706032588534
  0
MTEXT
  5
9A
100
AcDbEntity
  8
Survey
 62
256
370
-1
 48
1.0
  6
BYLAYER
100
AcDbMText
 10
815810.7545234351418912
 20
989650.4727388652972877
 30
77.2249706032588534
 40
0.5
 41
6.5
 71
4
 72
0
  1
 48\P 77.225\P DL R 615-460
  7
standard
 50
0.0
 73
1
 44
1.0
  0
POINT
  5
9B
100
AcDbEntity
  8
Survey
 62
256
370
-1
 48
1.0
  6
BYLAYER
100
AcDbPoint
 10
815817.1071947624441236
 20
989631.4213213083567098
 30
77.1711656410945892
  0
MTEXT
  5
9C
100
AcDbEntity
  8
Survey
 62
256
370
-1
 48
1.0
  6
BYLAYER
100
AcDbMText
 10
815817.1071947624441236
 20
989631.4213213083567098
 30
77.1711656410945892
 40
0.5
 41
6.5
 71
4
 72
0
  1
 49\P 77.171\P DL R 615-480
  7
standard
 50
0.0
 73
1
 44
1.0
  0
POINT
  5
9D
100
AcDbEntity
  8
Survey
 62
256
370
-1
 48
1.0
  6
BYLAYER
100
AcDbPoint
 10
815823.5306289618602023
 20
989612.1743000525748357
 30
77.1099424061541185
  0
MTEXT
  5
9E
100
AcDbEntity
  8
Survey
 62
256
370
-1
 48
1.0
  6
BYLAYER
100
AcDbMText
 10
815823.5306289618602023
 20
989612.1743000525748357
 30
77.1099424061541185
 40
0.5
 41
6.5
 71
4
 72
0
  1
 50\P 77.11\P DL R 615-500
  7
standard
 50
0.0
 73
1
 44
1.0
  0
POINT
  5
9F
100
AcDbEntity
  8
Survey
 62
256
370
-1
 48
1.0
  6
BYLAYER
100
AcDbPoint
 10
815830.0159084196202457
 20
989592.7601653132587671
 30
77.1051223961442815
  0
MTEXT
  5
A0
100
AcDbEntity
  8
Survey
 62
256
370
-1
 48
1.0
  6
BYLAYER
100
AcDbMText
 10
815830.0159084196202457
 20
989592.7601653132587671
 30
77.1051223961442815
 40
0.5
 41
6.5
 71
4
 72
0
  1
 51\P 77.105\P DL R 615-520
  7
standard
 50
0.0
 73
1
 44
1.0
  0
POINT
  5
A1
100
AcDbEntity
  8
Survey
 62
256
370
-1
 48
1.0
  6
BYLAYER
100
AcDbPoint
 10
815836.2648539894726127
 20
989574.082091883989051
 30
77.0566075385960261
  0
MTEXT
  5
A2
100
AcDbEntity
  8
Survey
 62
256
370
-1
 48
1.0
  6
BYLAYER
100
AcDbMText
 10
815836.2648539894726127
 20
989574.082091883989051
 30
77.0566075385960261
 40
0.5
 41
6.5
 71
4
 72
0
  1
 52\P 77.057\P DL R 615-540
  7
standard
 50
0.0
 73
1
 44
1.0
  0
POINT
  5
A3
100
AcDbEntity
  8
Survey
 62
256
370
-1
 48
1.0
  6
BYLAYER
100
AcDbPoint
 10
815842.8805127168307081
 20
989554.195854110759683
 30
76.9908855574701931
  0
MTEXT
  5
A4
100
AcDbEntity
  8
Survey
 62
256
370
-1
 48
1.0
  6
BYLAYER
100
AcDbMText
 10
815842.8805127168307081
 20
989554.195854110759683
 30
76.9908855574701931
 40
0.5
 41
6.5
 71
4
 72
0
  1
 53\P 76.991\P DL R 615-560
  7
standard
 50
0.0
 73
1
 44
1.0
  0
POINT
  5
A5
100
AcDbEntity
  8
Survey
 62
256
370
-1
 48
1.0
  6
BYLAYER
100
AcDbPoint
 10
815849.3171040704473853
 20
989534.8159855398116633
 30
76.8829915898412821
  0
MTEXT
  5
A6
100
AcDbEntity
  8
Survey
 62
256
370
-1
 48
1.0
  6
BYLAYER
100
AcDbMText
 10
815849.3171040704473853
 20
989534.8159855398116633
 30
76.8829915898412821
 40
0.5
 41
6.5
 71
4
 72
0
  1
 54\P 76.883\P DL R 615-580
  7
standard
 50
0.0
 73
1
 44
1.0
  0
POINT
  5
A7
100
AcDbEntity
  8
Survey
 62
256
370
-1
 48
1.0
  6
BYLAYER
100
AcDbPoint
 10
815855.1837422886164859
 20
989517.2301631756126881
 30
76.8305929353195722
  0
MTEXT
  5
A8
100
AcDbEntity
  8
Survey
 62
256
370
-1
 48
1.0
  6
BYLAYER
100
AcDbMText
 10
815855.1837422886164859
 20
989517.2301631756126881
 30
76.8305929353195722
 40
0.5
 41
6.5
 71
4
 72
0
  1
 55\P 76.831\P DL R 615-600
  7
standard
 50
0.0
 73
1
 44
1.0
  0
POINT
  5
A9
100
AcDbEntity
  8
Survey
 62
256
370
-1
 48
1.0
  6
BYLAYER
100
AcDbPoint
 10
815861.5242526293732226
 20
989498.4991128168767318
 30
76.7704501622072399
  0
MTEXT
  5
AA
100
AcDbEntity
  8
Survey
 62
256
370
-1
 48
1.0
  6
BYLAYER
100
AcDbMText
 10
815861.5242526293732226
 20
989498.4991128168767318
 30
76.7704501622072399
 40
0.5
 41
6.5
 71
4
 72
0
  1
 56\P 76.77\P DL R 615-620
  7
standard
 50
0.0
 73
1
 44
1.0
  0
POINT
  5
AB
100
AcDbEntity
  8
Survey
 62
256
370
-1
 48
1.0
  6
BYLAYER
100
AcDbPoint
 10
815867.7680608804803342
 20
989479.8890742481453344
 30
76.711189026112109
  0
MTEXT
  5
AC
100
AcDbEntity
  8
Survey
 62
256
370
-1
 48
1.0
  6
BYLAYER
100
AcDbMText
 10
815867.7680608804803342
 20
989479.8890742481453344
 30
76.711189026112109
 40
0.5
 41
6.5
 71
4
 72
0
  1
 57\P 76.711\P DL R 615-640
  7
standard
 50
0.0
 73
1
 44
1.0
  0
POINT
  5
AD
100
AcDbEntity
  8
Survey
 62
256
370
-1
 48
1.0
  6
BYLAYER
100
AcDbPoint
 10
815874.2955476383212954
 20
989460.3303611940937117
 30
76.6489153079936756
  0
MTEXT
  5
AE
100
AcDbEntity
  8
Survey
 62
256
370
-1
 48
1.0
  6
BYLAYER
100
AcDbMText
 10
815874.2955476383212954
 20
989460.3303611940937117
 30
76.6489153079936756
 40
0.5
 41
6.5
 71
4
 72
0
  1
 58\P 76.649\P DL R 615-660
  7
standard
 50
0.0
 73
1
 44
1.0
  0
POINT
  5
AF
100
AcDbEntity
  8
Survey
 62
256
370
-1
 48
1.0
  6
BYLAYER
100
AcDbPoint
 10
815880.618722508661449
 20
989441.3251988735282794
 30
76.5701735779207411
  0
MTEXT
  5
B0
100
AcDbEntity
  8
Survey
 62
256
370
-1
 48
1.0
  6
BYLAYER
100
AcDbMText
 10
815880.618722508661449
 20
989441.3251988735282794
 30
76.5701735779207411
 40
0.5
 41
6.5
 71
4
 72
0
  1
 59\P 76.57\P DL R 615-680
  7
standard
 50
0.0
 73
1
 44
1.0
  0
POINT
  5
B1
100
AcDbEntity
  8
Survey
 62
256
370
-1
 48
1.0
  6
BYLAYER
100
AcDbPoint
 10
815887.0006103131454438
 20
989422.2723404720891267
 30
76.4937325912916037
  0
MTEXT
  5
B2
100
AcDbEntity
  8
Survey
 62
256
370
-1
 48
1.0
  6
BYLAYER
100
AcDbMText
 10
815887.0006103131454438
 20
989422.2723404720891267
 30
76.4937325912916037
 40
0.5
 41
6.5
 71
4
 72
0
  1
 60\P 76.494\P DL R 615-700
  7
standard
 50
0.0
 73
1
 44
1.0
  0
POINT
  5
B3
100
AcDbEntity
  8
Survey
 62
256
370
-1
 48
1.0
  6
BYLAYER
100
AcDbPoint
 10
815893.3515263898298144
 20
989403.2958420417271554
 30
76.4631852570583135
  0
MTEXT
  5
B4
100
AcDbEntity
  8
Survey
 62
256
370
-1
 48
1.0
  6
BYLAYER
100
AcDbMText
 10
815893.3515263898298144
 20
989403.2958420417271554
 30
76.4631852570583135
 40
0.5
 41
6.5
 71
4
 72
0
  1
 61\P 76.463\P DL R 615-720
  7
standard
 50
0.0
 73
1
 44
1.0
  0
POINT
  5
B5
100
AcDbEntity
  8
Survey
 62
256
370
-1
 48
1.0
  6
BYLAYER
100
AcDbPoint
 10
815899.7461430815747008
 20
989384.2630068253492936
 30
76.4105005806461577
  0
MTEXT
  5
B6
100
AcDbEntity
  8
Survey
 62
256
370
-1
 48
1.0
  6
BYLAYER
100
AcDbMText
 10
815899.7461430815747008
 20
989384.2630068253492936
 30
76.4105005806461577
 40
0.5
 41
6.5
 71
4
 72
0
  1
 62\P 76.411\P DL R 615-740
  7
standard
 50
0.0
 73
1
 44
1.0
  0
POINT
  5
B7
100
AcDbEntity
  8
Survey
 62
256
370
-1
 48
1.0
  6
BYLAYER
100
AcDbPoint
 10
815906.1131030456162989
 20
989365.1495893289102241
 30
76.3151890408294662
  0
MTEXT
  5
B8
100
AcDbEntity
  8
Survey
 62
256
370
-1
 48
1.0
  6
BYLAYER
100
AcDbMText
 10
815906.1131030456162989
 20
989365.1495893289102241
 30
76.3151890408294662
 40
0.5
 41
6.5
 71
4
 72
0
  1
 63\P 76.315\P DL R 615-760
  7
standard
 50
0.0
 73
1
 44
1.0
  0
POINT
  5
B9
100
AcDbEntity
  8
Survey
 62
256
370
-1
 48
1.0
  6
BYLAYER
100
AcDbPoint
 10
815912.4100650891195983
 20
989346.2473883592756465
 30
76.2501795523065766
  0
MTEXT
  5
BA
100
AcDbEntity
  8
Survey
 62
256
370
-1
 48
1.0
  6
BYLAYER
100
AcDbMText
 10
815912.4100650891195983
 20
989346.2473883592756465
 30
76.2501795523065766
 40
0.5
 41
6.5
 71
4
 72
0
  1
 64\P 76.25\P DL R 615-780
  7
standard
 50
0.0
 73
1
 44
1.0
  0
POINT
  5
BB
100
AcDbEntity
  8
Survey
 62
256
370
-1
 48
1.0
  6
BYLAYER
100
AcDbPoint
 10
815918.7627772346604615
 20
989327.3810443205293268
 30
76.219529033377043
  0
MTEXT
  5
BC
100
AcDbEntity
  8
Survey
 62
256
370
-1
 48
1.0
  6
BYLAYER
100
AcDbMText
 10
815918.7627772346604615
 20
989327.3810443205293268
 30
76.219529033377043
 40
0.5
 41
6.5
 71
4
 72
0
  1
 65\P 76.22\P DL R 615-800
  7
standard
 50
0.0
 73
1
 44
1.0
  0
POINT
  5
BD
100
AcDbEntity
  8
Survey
 62
256
370
-1
 48
1.0
  6
BYLAYER
100
AcDbPoint
 10
815925.1700799779500812
 20
989308.2051740265451372
 30
76.1762995075368536
  0
MTEXT
  5
BE
100
AcDbEntity
  8
Survey
 62
256
370
-1
 48
1.0
  6
BYLAYER
100
AcDbMText
 10
815925.1700799779500812
 20
989308.2051740265451372
 30
76.1762995075368536
 40
0.5
 41
6.5
 71
4
 72
0
  1
 66\P 76.176\P DL R 615-820
  7
standard
 50
0.0
 73
1
 44
1.0
  0
POINT
  5
BF
100
AcDbEntity
  8
Survey
 62
256
370
-1
 48
1.0
  6
BYLAYER
100
AcDbPoint
 10
815931.6115262696985155
 20
989288.8999431802658364
 30
76.0690474055897283
  0
MTEXT
  5
C0
100
AcDbEntity
  8
Survey
 62
256
370
-1
 48
1.0
  6
BYLAYER
100
AcDbMText
 10
815931.6115262696985155
 20
989288.8999431802658364
 30
76.0690474055897283
 40
0.5
 41
6.5
 71
4
 72
0
  1
 67\P 76.069\P DL R 615-840
  7
standard
 50
0.0
 73
1
 44
1.0
  0
POINT
  5
C1
100
AcDbEntity
  8
Survey
 62
256
370
-1
 48
1.0
  6
BYLAYER
100
AcDbPoint
 10
815937.9367967175785452
 20
989269.9403976002940908
 30
76.0039171489549119
  0
MTEXT
  5
C2
100
AcDbEntity
  8
Survey
 62
256
370
-1
 48
1.0
  6
BYLAYER
100
AcDbMText
 10
815937.9367967175785452
 20
989269.9403976002940908
 30
76.0039171489549119
 40
0.5
 41
6.5
 71
4
 72
0
  1
 68\P 76.004\P DL R 615-860
  7
standard
 50
0.0
 73
1
 44
1.0
  0
POINT
  5
C3
100
AcDbEntity
  8
Survey
 62
256
370
-1
 48
1.0
  6
BYLAYER
100
AcDbPoint
 10
815944.2347783201839775
 20
989251.0507096226792783
 30
75.9705310474759443
  0
MTEXT
  5
C4
100
AcDbEntity
  8
Survey
 62
256
370
-1
 48
1.0
  6
BYLAYER
100
AcDbMText
 10
815944.2347783201839775
 20
989251.0507096226792783
 30
75.9705310474759443
 40
0.5
 41
6.5
 71
4
 72
0
  1
 69\P 75.971\P DL R 615-880
  7
standard
 50
0.0
 73
1
 44
1.0
  0
POINT
  5
C5
100
AcDbEntity
  8
Survey
 62
256
370
-1
 48
1.0
  6
BYLAYER
100
AcDbPoint
 10
815950.6950105952564627
 20
989231.7937761136563495
 30
75.91774556181241
  0
MTEXT
  5
C6
100
AcDbEntity
  8
Survey
 62
256
370
-1
 48
1.0
  6
BYLAYER
100
AcDbMText
 10
815950.6950105952564627
 20
989231.7937761136563495
 30
75.91774556181241
 40
0.5
 41
6.5
 71
4
 72
0
  1
 70\P 75.918\P DL R 615-900
  7
standard
 50
0.0
 73
1
 44
1.0
  0
POINT
  5
C7
100
AcDbEntity
  8
Survey
 62
256
370
-1
 48
1.0
  6
BYLAYER
100
AcDbPoint
 10
815954.0813321860041469
 20
989221.6484656721586362
 30
75.9072790263814312
  0
MTEXT
  5
C8
100
AcDbEntity
  8
Survey
 62
256
370
-1
 48
1.0
  6
BYLAYER
100
AcDbMText
 10
815954.0813321860041469
 20
989221.6484656721586362
 30
75.9072790263814312
 40
0.5
 41
6.5
 71
4
 72
0
  1
 71\P 75.907\P DL R 615-920
  7
standard
 50
0.0
 73
1
 44
1.0
  0
POINT
  5
C9
100
AcDbEntity
  8
Survey
 62
256
370
-1
 48
1.0
  6
BYLAYER
100
AcDbPoint
 10
815956.6181934593478218
 20
989214.0065832783002406
 30
75.8885366923313427
  0
MTEXT
  5
CA
100
AcDbEntity
  8
Survey
 62
256
370
-1
 48
1.0
  6
BYLAYER
100
AcDbMText
 10
815956.6181934593478218
 20
989214.0065832783002406
 30
75.8885366923313427
 40
0.5
 41
6.5
 71
4
 72
0
  1
 72\P 75.889\P DL R 615-940
  7
standard
 50
0.0
 73
1
 44
1.0
  0
POINT
  5
CB
100
AcDbEntity
  8
Survey
 62
256
370
-1
 48
1.0
  6
BYLAYER
100
AcDbPoint
 10
815958.8906184593215585
 20
989207.2032709856284782
 30
75.8647666445846767
  0
MTEXT
  5
CC
100
AcDbEntity
  8
Survey
 62
256
370
-1
 48
1.0
  6
BYLAYER
100
AcDbMText
 10
815958.8906184593215585
 20
989207.2032709856284782
 30
75.8647666445846767
 40
0.5
 41
6.5
 71
4
 72
0
  1
 73\P 75.865\P DL R 615-960
  7
standard
 50
0.0
 73
1
 44
1.0
  0
POINT
  5
CD
100
AcDbEntity
  8
Survey
 62
256
370
-1
 48
1.0
  6
BYLAYER
100
AcDbPoint
 10
815961.0124302011681721
 20
989200.8703529381891713
 30
75.8375240356929794
  0
MTEXT
  5
CE
100
AcDbEntity
  8
Survey
 62
256
370
-1
 48
1.0
  6
BYLAYER
100
AcDbMText
 10
815961.0124302011681721
 20
989200.8703529381891713
 30
75.8375240356929794
 40
0.5
 41
6.5
 71
4
 72
0
  1
 74\P 75.838\P DL R 615-980
  7
standard
 50
0.0
 73
1
 44
1.0
  0
POINT
  5
CF
100
AcDbEntity
  8
Survey
 62
256
370
-1
 48
1.0
  6
BYLAYER
100
AcDbPoint
 10
815962.9078523018397391
 20
989195.2114740577526391
 30
75.8433818465690592
  0
MTEXT
  5
D0
100
AcDbEntity
  8
Survey
 62
256
370
-1
 48
1.0
  6
BYLAYER
100
AcDbMText
 10
815962.9078523018397391
 20
989195.2114740577526391
 30
75.8433818465690592
 40
0.5
 41
6.5
 71
4
 72
0
  1
 75\P 75.843\P DL R 616-000
  7
standard
 50
0.0
 73
1
 44
1.0
  0
POINT
  5
D1
100
AcDbEntity
  8
Survey
 62
256
370
-1
 48
1.0
  6
BYLAYER
100
AcDbPoint
 10
815963.7774859933415428
 20
989195.3019413698930293
 30
75.623752723532931
  0
MTEXT
  5
D2
100
AcDbEntity
  8
Survey
 62
256
370
-1
 48
1.0
  6
BYLAYER
100
AcDbMText
 10
815963.7774859933415428
 20
989195.3019413698930293
 30
75.623752723532931
 40
0.5
 41
7.0
 71
4
 72
0
  1
 76\P 75.624\P XMARK 616.000
  7
standard
 50
0.0
 73
1
 44
1.0
  0
POINT
  5
D3
100
AcDbEntity
  8
Survey
 62
256
370
-1
 48
1.0
  6
BYLAYER
100
AcDbPoint
 10
815968.3567292877705768
 20
989191.8959692108910531
 30
75.5833138916621152
  0
MTEXT
  5
D4
100
AcDbEntity
  8
Survey
 62
256
370
-1
 48
1.0
  6
BYLAYER
100
AcDbMText
 10
815968.3567292877705768
 20
989191.8959692108910531
 30
75.5833138916621152
 40
0.5
 41
5.5
 71
4
 72
0
  1
 77\P 75.583\P MAST 616.2
  7
standard
 50
0.0
 73
1
 44
1.0
  0
POINT
  5
D5
100
AcDbEntity
  8
Survey
 62
256
370
-1
 48
1.0
  6
BYLAYER
100
AcDbPoint
 10
815968.8689333684742451
 20
989177.4348701817216352
 30
75.7559219164160282
  0
MTEXT
  5
D6
100
AcDbEntity
  8
Survey
 62
256
370
-1
 48
1.0
  6
BYLAYER
100
AcDbMText
 10
815968.8689333684742451
 20
989177.4348701817216352
 30
75.7559219164160282
 40
0.5
 41
6.5
 71
4
 72
0
  1
 78\P 75.756\P DL R 616-020
  7
standard
 50
0.0
 73
1
 44
1.0
  0
POINT
  5
D7
100
AcDbEntity
  8
Survey
 62
256
370
-1
 48
1.0
  6
BYLAYER
100
AcDbPoint
 10
815975.3243129157926887
 20
989158.1667155345203355
 30
75.699196986640672
  0
MTEXT
  5
D8
100
AcDbEntity
  8
Survey
 62
256
370
-1
 48
1.0
  6
BYLAYER
100
AcDbMText
 10
815975.3243129157926887
 20
989158.1667155345203355
 30
75.699196986640672
 40
0.5
 41
6.5
 71
4
 72
0
  1
 79\P 75.699\P DL R 616-040
  7
standard
 50
0.0
 73
1
 44
1.0
  0
POINT
  5
D9
100
AcDbEntity
  8
Survey
 62
256
370
-1
 48
1.0
  6
BYLAYER
100
AcDbPoint
 10
815981.7398819682421163
 20
989139.1203076717210934
 30
75.6498892751966849
  0
MTEXT
  5
DA
100
AcDbEntity
  8
Survey
 62
256
370
-1
 48
1.0
  6
BYLAYER
100
AcDbMText
 10
815981.7398819682421163
 20
989139.1203076717210934
 30
75.6498892751966849
 40
0.5
 41
6.5
 71
4
 72
0
  1
 80\P 75.65\P DL R 616-060
  7
standard
 50
0.0
 73
1
 44
1.0
  0
POINT
  5
DB
100
AcDbEntity
  8
Survey
 62
256
370
-1
 48
1.0
  6
BYLAYER
100
AcDbPoint
 10
815988.2012592745013535
 20
989119.8178822348127142
 30
75.5457430268122749
  0
MTEXT
  5
DC
100
AcDbEntity
  8
Survey
 62
256
370
-1
 48
1.0
  6
BYLAYER
100
AcDbMText
 10
815988.2012592745013535
 20
989119.8178822348127142
 30
75.5457430268122749
 40
0.5
 41
6.5
 71
4
 72
0
  1
 81\P 75.546\P DL R 616-080
  7
standard
 50
0.0
 73
1
 44
1.0
  0
POINT
  5
DD
100
AcDbEntity
  8
Survey
 62
256
370
-1
 48
1.0
  6
BYLAYER
100
AcDbPoint
 10
815994.6010114955715835
 20
989100.7398009309545159
 30
75.4741439450450429
  0
MTEXT
  5
DE
100
AcDbEntity
  8
Survey
 62
256
370
-1
 48
1.0
  6
BYLAYER
100
AcDbMText
 10
815994.6010114955715835
 20
989100.7398009309545159
 30
75.4741439450450429
 40
0.5
 41
6.5
 71
4
 72
0
  1
 82\P 75.474\P DL R 616-100
  7
standard
 50
0.0
 73
1
 44
1.0
  0
POINT
  5
DF
100
AcDbEntity
  8
Survey
 62
256
370
-1
 48
1.0
  6
BYLAYER
100
AcDbPoint
 10
816000.9504640655359253
 20
989081.8875911515206099
 30
75.3932375030542801
  0
MTEXT
  5
E0
100
AcDbEntity
  8
Survey
 62
256
370
-1
 48
1.0
  6
BYLAYER
100
AcDbMText
 10
816000.9504640655359253
 20
989081.8875911515206099
 30
75.3932375030542801
 40
0.5
 41
6.5
 71
4
 72
0
  1
 83\P 75.393\P DL R 616-120
  7
standard
 50
0.0
 73
1
 44
1.0
  0
POINT
  5
E1
100
AcDbEntity
  8
Survey
 62
256
370
-1
 48
1.0
  6
BYLAYER
100
AcDbPoint
 10
816007.4708394594490528
 20
989062.3889150522882119
 30
75.2896250231181057
  0
MTEXT
  5
E2
100
AcDbEntity
  8
Survey
 62
256
370
-1
 48
1.0
  6
BYLAYER
100
AcDbMText
 10
816007.4708394594490528
 20
989062.3889150522882119
 30
75.2896250231181057
 40
0.5
 41
6.5
 71
4
 72
0
  1
 84\P 75.29\P DL R 616-140
  7
standard
 50
0.0
 73
1
 44
1.0
  0
POINT
  5
E3
100
AcDbEntity
  8
Survey
 62
256
370
-1
 48
1.0
  6
BYLAYER
100
AcDbPoint
 10
816013.9794868609169498
 20
989043.0113598387688398
 30
75.2132830662517335
  0
MTEXT
  5
E4
100
AcDbEntity
  8
Survey
 62
256
370
-1
 48
1.0
  6
BYLAYER
100
AcDbMText
 10
816013.9794868609169498
 20
989043.0113598387688398
 30
75.2132830662517335
 40
0.5
 41
6.5
 71
4
 72
0
  1
 85\P 75.213\P DL R 616-160
  7
standard
 50
0.0
 73
1
 44
1.0
  0
POINT
  5
E5
100
AcDbEntity
  8
Survey
 62
256
370
-1
 48
1.0
  6
BYLAYER
100
AcDbPoint
 10
816020.3799781783018261
 20
989023.9390375212533399
 30
75.1234242029628945
  0
MTEXT
  5
E6
100
AcDbEntity
  8
Survey
 62
256
370
-1
 48
1.0
  6
BYLAYER
100
AcDbMText
 10
816020.3799781783018261
 20
989023.9390375212533399
 30
75.1234242029628945
 40
0.5
 41
6.5
 71
4
 72
0
  1
 86\P 75.123\P DL R 616-180
  7
standard
 50
0.0
 73
1
 44
1.0
  0
POINT
  5
E7
100
AcDbEntity
  8
Survey
 62
256
370
-1
 48
1.0
  6
BYLAYER
100
AcDbPoint
 10
816026.8247733138268813
 20
989004.6624919908354059
 30
75.0498433521043609
  0
MTEXT
  5
E8
100
AcDbEntity
  8
Survey
 62
256
370
-1
 48
1.0
  6
BYLAYER
100
AcDbMText
 10
816026.8247733138268813
 20
989004.6624919908354059
 30
75.0498433521043609
 40
0.5
 41
6.5
 71
4
 72
0
  1
 87\P 75.05\P DL R 616-200
  7
standard
 50
0.0
 73
1
 44
1.0
  0
POINT
  5
E9
100
AcDbEntity
  8
Survey
 62
256
370
-1
 48
1.0
  6
BYLAYER
100
AcDbPoint
 10
816033.2504128349246457
 20
988985.4997034692205489
 30
74.9432620431439886
  0
MTEXT
  5
EA
100
AcDbEntity
  8
Survey
 62
256
370
-1
 48
1.0
  6
BYLAYER
100
AcDbMText
 10
816033.2504128349246457
 20
988985.4997034692205489
 30
74.9432620431439886
 40
0.5
 41
6.5
 71
4
 72
0
  1
 88\P 74.943\P DL R 616-220
  7
standard
 50
0.0
 73
1
 44
1.0
  0
POINT
  5
EB
100
AcDbEntity
  8
Survey
 62
256
370
-1
 48
1.0
  6
BYLAYER
100
AcDbPoint
 10
816039.7950488271890208
 20
988965.9551627379842103
 30
74.8778627650271744
  0
MTEXT
  5
EC
100
AcDbEntity
  8
Survey
 62
256
370
-1
 48
1.0
  6
BYLAYER
100
AcDbMText
 10
816039.7950488271890208
 20
988965.9551627379842103
 30
74.8778627650271744
 40
0.5
 41
6.5
 71
4
 72
0
  1
 89\P 74.878\P DL R 616-240
  7
standard
 50
0.0
 73
1
 44
1.0
  0
POINT
  5
ED
100
AcDbEntity
  8
Survey
 62
256
370
-1
 48
1.0
  6
BYLAYER
100
AcDbPoint
 10
816046.3087418143404648
 20
988946.4973877443699166
 30
74.8097056272498833
  0
MTEXT
  5
EE
100
AcDbEntity
  8
Survey
 62
256
370
-1
 48
1.0
  6
BYLAYER
100
AcDbMText
 10
816046.3087418143404648
 20
988946.4973877443699166
 30
74.8097056272498833
 40
0.5
 41
6.5
 71
4
 72
0
  1
 90\P 74.81\P DL R 616-260
  7
standard
 50
0.0
 73
1
 44
1.0
  0
POINT
  5
EF
100
AcDbEntity
  8
Survey
 62
256
370
-1
 48
1.0
  6
BYLAYER
100
AcDbPoint
 10
816052.6456772040110081
 20
988927.6446315938374028
 30
74.7684659737019217
  0
MTEXT
  5
F0
100
AcDbEntity
  8
Survey
 62
256
370
-1
 48
1.0
  6
BYLAYER
100
AcDbMText
 10
816052.6456772040110081
 20
988927.6446315938374028
 30
74.7684659737019217
 40
0.5
 41
6.5
 71
4
 72
0
  1
 91\P 74.768\P DL R 616-280
  7
standard
 50
0.0
 73
1
 44
1.0
  0
POINT
  5
F1
100
AcDbEntity
  8
Survey
 62
256
370
-1
 48
1.0
  6
BYLAYER
100
AcDbPoint
 10
816059.0429311766056344
 20
988908.5242370316991583
 30
74.6911547717960929
  0
MTEXT
  5
F2
100
AcDbEntity
  8
Survey
 62
256
370
-1
 48
1.0
  6
BYLAYER
100
AcDbMText
 10
816059.0429311766056344
 20
988908.5242370316991583
 30
74.6911547717960929
 40
0.5
 41
6.5
 71
4
 72
0
  1
 92\P 74.691\P DL R 616-300
  7
standard
 50
0.0
 73
1
 44
1.0
  0
POINT
  5
F3
100
AcDbEntity
  8
Survey
 62
256
370
-1
 48
1.0
  6
BYLAYER
100
AcDbPoint
 10
816065.4711958286352456
 20
988889.2669299953849986
 30
74.5842571359114572
  0
MTEXT
  5
F4
100
AcDbEntity
  8
Survey
 62
256
370
-1
 48
1.0
  6
BYLAYER
100
AcDbMText
 10
816065.4711958286352456
 20
988889.2669299953849986
 30
74.5842571359114572
 40
0.5
 41
6.5
 71
4
 72
0
  1
 93\P 74.584\P DL R 616-320
  7
standard
 50
0.0
 73
1
 44
1.0
  0
POINT
  5
F5
100
AcDbEntity
  8
Survey
 62
256
370
-1
 48
1.0
  6
BYLAYER
100
AcDbPoint
 10
816071.8330450974171981
 20
988870.2130081297364086
 30
74.5230642077163594
  0
MTEXT
  5
F6
100
AcDbEntity
  8
Survey
 62
256
370
-1
 48
1.0
  6
BYLAYER
100
AcDbMText
 10
816071.8330450974171981
 20
988870.2130081297364086
 30
74.5230642077163594
 40
0.5
 41
6.5
 71
4
 72
0
  1
 94\P 74.523\P DL R 616-340
  7
standard
 50
0.0
 73
1
 44
1.0
  0
POINT
  5
F7
100
AcDbEntity
  8
Survey
 62
256
370
-1
 48
1.0
  6
BYLAYER
100
AcDbPoint
 10
816078.2708294140174985
 20
988851.048537842114456
 30
74.4540971565133418
  0
MTEXT
  5
F8
100
AcDbEntity
  8
Survey
 62
256
370
-1
 48
1.0
  6
BYLAYER
100
AcDbMText
 10
816078.2708294140174985
 20
988851.048537842114456
 30
74.4540971565133418
 40
0.5
 41
6.5
 71
4
 72
0
  1
 95\P 74.454\P DL R 616-360
  7
standard
 50
0.0
 73
1
 44
1.0
  0
POINT
  5
F9
100
AcDbEntity
  8
Survey
 62
256
370
-1
 48
1.0
  6
BYLAYER
100
AcDbPoint
 10
816084.4858274805592373
 20
988832.4489874488208443
 30
74.3941030924058566
  0
MTEXT
  5
FA
100
AcDbEntity
  8
Survey
 62
256
370
-1
 48
1.0
  6
BYLAYER
100
AcDbMText
 10
816084.4858274805592373
 20
988832.4489874488208443
 30
74.3941030924058566
 40
0.5
 41
6.5
 71
4
 72
0
  1
 96\P 74.394\P DL R 616-380
  7
standard
 50
0.0
 73
1
 44
1.0
  0
POINT
  5
FB
100
AcDbEntity
  8
Survey
 62
256
370
-1
 48
1.0
  6
BYLAYER
100
AcDbPoint
 10
816090.6868378985673189
 20
988813.9215016975067556
 30
74.3276341334261872
  0
MTEXT
  5
FC
100
AcDbEntity
  8
Survey
 62
256
370
-1
 48
1.0
  6
BYLAYER
100
AcDbMText
 10
816090.6868378985673189
 20
988813.9215016975067556
 30
74.3276341334261872
 40
0.5
 41
6.5
 71
4
 72
0
  1
 97\P 74.328\P DL R 616-400
  7
standard
 50
0.0
 73
1
 44
1.0
  0
POINT
  5
FD
100
AcDbEntity
  8
Survey
 62
256
370
-1
 48
1.0
  6
BYLAYER
100
AcDbPoint
 10
816096.9913736063754186
 20
988794.9918854767456651
 30
74.2708771527571514
  0
MTEXT
  5
FE
100
AcDbEntity
  8
Survey
 62
256
370
-1
 48
1.0
  6
BYLAYER
100
AcDbMText
 10
816096.9913736063754186
 20
988794.9918854767456651
 30
74.2708771527571514
 40
0.5
 41
6.5
 71
4
 72
0
  1
 98\P 74.271\P DL R 616-420
  7
standard
 50
0.0
 73
1
 44
1.0
  0
POINT
  5
FF
100
AcDbEntity
  8
Survey
 62
256
370
-1
 48
1.0
  6
BYLAYER
100
AcDbPoint
 10
816103.4170064202044159
 20
988776.0323282604804263
 30
74.1495085105067062
  0
MTEXT
  5
100
100
AcDbEntity
  8
Survey
 62
256
370
-1
 48
1.0
  6
BYLAYER
100
AcDbMText
 10
816103.4170064202044159
 20
988776.0323282604804263
 30
74.1495085105067062
 40
0.5
 41
6.5
 71
4
 72
0
  1
 99\P 74.15\P DL R 616-440
  7
standard
 50
0.0
 73
1
 44
1.0
  0
POINT
  5
101
100
AcDbEntity
  8
Survey
 62
256
370
-1
 48
1.0
  6
BYLAYER
100
AcDbPoint
 10
816109.8043420523172244
 20
988756.8603762976126745
 30
74.0742540834245915
  0
MTEXT
  5
102
100
AcDbEntity
  8
Survey
 62
256
370
-1
 48
1.0
  6
BYLAYER
100
AcDbMText
 10
816109.8043420523172244
 20
988756.8603762976126745
 30
74.0742540834245915
 40
0.5
 41
6.5
 71
4
 72
0
  1
 100\P 74.074\P DL R 616-460
  7
standard
 50
0.0
 73
1
 44
1.0
  0
POINT
  5
103
100
AcDbEntity
  8
Survey
 62
256
370
-1
 48
1.0
  6
BYLAYER
100
AcDbPoint
 10
816116.2799283170606941
 20
988737.5512939317850396
 30
73.9408448571043664
  0
MTEXT
  5
104
100
AcDbEntity
  8
Survey
 62
256
370
-1
 48
1.0
  6
BYLAYER
100
AcDbMText
 10
816116.2799283170606941
 20
988737.5512939317850396
 30
73.9408448571043664
 40
0.5
 41
6.5
 71
4
 72
0
  1
 101\P 73.941\P DL R 616-480
  7
standard
 50
0.0
 73
1
 44
1.0
  0
POINT
  5
105
100
AcDbEntity
  8
Survey
 62
256
370
-1
 48
1.0
  6
BYLAYER
100
AcDbPoint
 10
816122.6155138108879328
 20
988718.5798519732197747
 30
73.860827816699441
  0
MTEXT
  5
106
100
AcDbEntity
  8
Survey
 62
256
370
-1
 48
1.0
  6
BYLAYER
100
AcDbMText
 10
816122.6155138108879328
 20
988718.5798519732197747
 30
73.860827816699441
 40
0.5
 41
6.5
 71
4
 72
0
  1
 102\P 73.861\P DL R 616-500
  7
standard
 50
0.0
 73
1
 44
1.0
  0
POINT
  5
107
100
AcDbEntity
  8
Survey
 62
256
370
-1
 48
1.0
  6
BYLAYER
100
AcDbPoint
 10
816129.0124665242619812
 20
988699.4886708278208971
 30
73.7410001318535251
  0
MTEXT
  5
108
100
AcDbEntity
  8
Survey
 62
256
370
-1
 48
1.0
  6
BYLAYER
100
AcDbMText
 10
816129.0124665242619812
 20
988699.4886708278208971
 30
73.7410001318535251
 40
0.5
 41
6.5
 71
4
 72
0
  1
 103\P 73.741\P DL R 616-520
  7
standard
 50
0.0
 73
1
 44
1.0
  0
POINT
  5
109
100
AcDbEntity
  8
Survey
 62
256
370
-1
 48
1.0
  6
BYLAYER
100
AcDbPoint
 10
816135.4004099993035197
 20
988680.3675304966745898
 30
73.6589346619793446
  0
MTEXT
  5
10A
100
AcDbEntity
  8
Survey
 62
256
370
-1
 48
1.0
  6
BYLAYER
100
AcDbMText
 10
816135.4004099993035197
 20
988680.3675304966745898
 30
73.6589346619793446
 40
0.5
 41
6.5
 71
4
 72
0
  1
 104\P 73.659\P DL R 616-540
  7
standard
 50
0.0
 73
1
 44
1.0
  0
POINT
  5
10B
100
AcDbEntity
  8
Survey
 62
256
370
-1
 48
1.0
  6
BYLAYER
100
AcDbPoint
 10
816141.2272414886392653
 20
988675.2738549299538136
 30
73.3204202605298008
  0
MTEXT
  5
10C
100
AcDbEntity
  8
Survey
 62
256
370
-1
 48
1.0
  6
BYLAYER
100
AcDbMText
 10
816141.2272414886392653
 20
988675.2738549299538136
 30
73.3204202605298008
 40
0.5
 41
6.0
 71
4
 72
0
  1
 105\P 73.32\P MAST 616.20
  7
standard
 50
0.0
 73
1
 44
1.0
  0
POINT
  5
10D
100
AcDbEntity
  8
Survey
 62
256
370
-1
 48
1.0
  6
BYLAYER
100
AcDbPoint
 10
816141.8808485916815698
 20
988660.9037285189842805
 30
73.5653337701721171
  0
MTEXT
  5
10E
100
AcDbEntity
  8
Survey
 62
256
370
-1
 48
1.0
  6
BYLAYER
100
AcDbMText
 10
816141.8808485916815698
 20
988660.9037285189842805
 30
73.5653337701721171
 40
0.5
 41
6.5
 71
4
 72
0
  1
 106\P 73.565\P DL R 616-560
  7
standard
 50
0.0
 73
1
 44
1.0
  0
POINT
  5
10F
100
AcDbEntity
  8
Survey
 62
256
370
-1
 48
1.0
  6
BYLAYER
100
AcDbPoint
 10
816148.2690583345247433
 20
988641.8481213668128476
 30
73.4484757594945421
  0
MTEXT
  5
110
100
AcDbEntity
  8
Survey
 62
256
370
-1
 48
1.0
  6
BYLAYER
100
AcDbMText
 10
816148.2690583345247433
 20
988641.8481213668128476
 30
73.4484757594945421
 40
0.5
 41
6.5
 71
4
 72
0
  1
 107\P 73.448\P DL R 616-580
  7
standard
 50
0.0
 73
1
 44
1.0
  0
POINT
  5
111
100
AcDbEntity
  8
Survey
 62
256
370
-1
 48
1.0
  6
BYLAYER
100
AcDbPoint
 10
816154.5280266043264419
 20
988623.105442468659021
 30
73.3744394636335073
  0
MTEXT
  5
112
100
AcDbEntity
  8
Survey
 62
256
370
-1
 48
1.0
  6
BYLAYER
100
AcDbMText
 10
816154.5280266043264419
 20
988623.105442468659021
 30
73.3744394636335073
 40
0.5
 41
6.5
 71
4
 72
0
  1
 108\P 73.374\P DL R 616-600
  7
standard
 50
0.0
 73
1
 44
1.0
  0
POINT
  5
113
100
AcDbEntity
  8
Survey
 62
256
370
-1
 48
1.0
  6
BYLAYER
100
AcDbPoint
 10
816160.9276815971825272
 20
988603.9804053482366726
 30
73.270141499510288
  0
MTEXT
  5
114
100
AcDbEntity
  8
Survey
 62
256
370
-1
 48
1.0
  6
BYLAYER
100
AcDbMText
 10
816160.9276815971825272
 20
988603.9804053482366726
 30
73.270141499510288
 40
0.5
 41
6.5
 71
4
 72
0
  1
 109\P 73.27\P DL R 616-620
  7
standard
 50
0.0
 73
1
 44
1.0
  0
POINT
  5
115
100
AcDbEntity
  8
Survey
 62
256
370
-1
 48
1.0
  6
BYLAYER
100
AcDbPoint
 10
816167.311102012754418
 20
988584.9615100243827328
 30
73.1638325386107624
  0
MTEXT
  5
116
100
AcDbEntity
  8
Survey
 62
256
370
-1
 48
1.0
  6
BYLAYER
100
AcDbMText
 10
816167.311102012754418
 20
988584.9615100243827328
 30
73.1638325386107624
 40
0.5
 41
6.5
 71
4
 72
0
  1
 110\P 73.164\P DL R 616-640
  7
standard
 50
0.0
 73
1
 44
1.0
  0
POINT
  5
117
100
AcDbEntity
  8
Survey
 62
256
370
-1
 48
1.0
  6
BYLAYER
100
AcDbPoint
 10
816173.7336960500106215
 20
988565.8176103692967445
 30
73.0474950649732193
  0
MTEXT
  5
118
100
AcDbEntity
  8
Survey
 62
256
370
-1
 48
1.0
  6
BYLAYER
100
AcDbMText
 10
816173.7336960500106215
 20
988565.8176103692967445
 30
73.0474950649732193
 40
0.5
 41
6.5
 71
4
 72
0
  1
 111\P 73.047\P DL R 616-660
  7
standard
 50
0.0
 73
1
 44
1.0
  0
POINT
  5
119
100
AcDbEntity
  8
Survey
 62
256
370
-1
 48
1.0
  6
BYLAYER
100
AcDbPoint
 10
816180.1888389774831012
 20
988546.5230837017297745
 30
72.9511917868157695
  0
MTEXT
  5
11A
100
AcDbEntity
  8
Survey
 62
256
370
-1
 48
1.0
  6
BYLAYER
100
AcDbMText
 10
816180.1888389774831012
 20
988546.5230837017297745
 30
72.9511917868157695
 40
0.5
 41
6.5
 71
4
 72
0
  1
 112\P 72.951\P DL R 616-680
  7
standard
 50
0.0
 73
1
 44
1.0
  0
POINT
  5
11B
100
AcDbEntity
  8
Survey
 62
256
370
-1
 48
1.0
  6
BYLAYER
100
AcDbPoint
 10
816186.4827512276824564
 20
988527.8042520452290773
 30
72.8652919463973774
  0
MTEXT
  5
11C
100
AcDbEntity
  8
Survey
 62
256
370
-1
 48
1.0
  6
BYLAYER
100
AcDbMText
 10
816186.4827512276824564
 20
988527.8042520452290773
 30
72.8652919463973774
 40
0.5
 41
6.5
 71
4
 72
0
  1
 113\P 72.865\P DL R 616-700
  7
standard
 50
0.0
 73
1
 44
1.0
  0
POINT
  5
11D
100
AcDbEntity
  8
Survey
 62
256
370
-1
 48
1.0
  6
BYLAYER
100
AcDbPoint
 10
816192.8037003995850682
 20
988508.7805494546191767
 30
72.7711915363297095
  0
MTEXT
  5
11E
100
AcDbEntity
  8
Survey
 62
256
370
-1
 48
1.0
  6
BYLAYER
100
AcDbMText
 10
816192.8037003995850682
 20
988508.7805494546191767
 30
72.7711915363297095
 40
0.5
 41
6.5
 71
4
 72
0
  1
 114\P 72.771\P DL R 616-720
  7
standard
 50
0.0
 73
1
 44
1.0
  0
POINT
  5
11F
100
AcDbEntity
  8
Survey
 62
256
370
-1
 48
1.0
  6
BYLAYER
100
AcDbPoint
 10
816199.1868788423016667
 20
988489.7242329105501994
 30
72.6439304486466995
  0
MTEXT
  5
120
100
AcDbEntity
  8
Survey
 62
256
370
-1
 48
1.0
  6
BYLAYER
100
AcDbMText
 10
816199.1868788423016667
 20
988489.7242329105501994
 30
72.6439304486466995
 40
0.5
 41
6.5
 71
4
 72
0
  1
 115\P 72.644\P DL R 616-740
  7
standard
 50
0.0
 73
1
 44
1.0
  0
POINT
  5
121
100
AcDbEntity
  8
Survey
 62
256
370
-1
 48
1.0
  6
BYLAYER
100
AcDbPoint
 10
816205.5333995250985026
 20
988470.6687367628328502
 30
72.4785099502312704
  0
MTEXT
  5
122
100
AcDbEntity
  8
Survey
 62
256
370
-1
 48
1.0
  6
BYLAYER
100
AcDbMText
 10
816205.5333995250985026
 20
988470.6687367628328502
 30
72.4785099502312704
 40
0.5
 41
6.5
 71
4
 72
0
  1
 116\P 72.479\P DL R 616-760
  7
standard
 50
0.0
 73
1
 44
1.0
  0
POINT
  5
123
100
AcDbEntity
  8
Survey
 62
256
370
-1
 48
1.0
  6
BYLAYER
100
AcDbPoint
 10
816211.9551954392809421
 20
988451.3897759733954445
 30
72.327762861710994
  0
MTEXT
  5
124
100
AcDbEntity
  8
Survey
 62
256
370
-1
 48
1.0
  6
BYLAYER
100
AcDbMText
 10
816211.9551954392809421
 20
988451.3897759733954445
 30
72.327762861710994
 40
0.5
 41
6.5
 71
4
 72
0
  1
 117\P 72.328\P DL R 616-780
  7
standard
 50
0.0
 73
1
 44
1.0
  0
POINT
  5
125
100
AcDbEntity
  8
Survey
 62
256
370
-1
 48
1.0
  6
BYLAYER
100
AcDbPoint
 10
816218.4187312922440469
 20
988432.009630671935156
 30
72.2070673544817936
  0
MTEXT
  5
126
100
AcDbEntity
  8
Survey
 62
256
370
-1
 48
1.0
  6
BYLAYER
100
AcDbMText
 10
816218.4187312922440469
 20
988432.009630671935156
 30
72.2070673544817936
 40
0.5
 41
6.5
 71
4
 72
0
  1
 118\P 72.207\P DL R 616-800
  7
standard
 50
0.0
 73
1
 44
1.0
  0
POINT
  5
127
100
AcDbEntity
  8
Survey
 62
256
370
-1
 48
1.0
  6
BYLAYER
100
AcDbPoint
 10
816224.871953146182932
 20
988412.6398096983321011
 30
72.0869080732338432
  0
MTEXT
  5
128
100
AcDbEntity
  8
Survey
 62
256
370
-1
 48
1.0
  6
BYLAYER
100
AcDbMText
 10
816224.871953146182932
 20
988412.6398096983321011
 30
72.0869080732338432
 40
0.5
 41
6.5
 71
4
 72
0
  1
 119\P 72.087\P DL R 616-820
  7
standard
 50
0.0
 73
1
 44
1.0
  0
POINT
  5
129
100
AcDbEntity
  8
Survey
 62
256
370
-1
 48
1.0
  6
BYLAYER
100
AcDbPoint
 10
816231.2936185374855995
 20
988393.378889201907441
 30
71.987933190587583
  0
MTEXT
  5
12A
100
AcDbEntity
  8
Survey
 62
256
370
-1
 48
1.0
  6
BYLAYER
100
AcDbMText
 10
816231.2936185374855995
 20
988393.378889201907441
 30
71.987933190587583
 40
0.5
 41
6.5
 71
4
 72
0
  1
 120\P 71.988\P DL R 616-840
  7
standard
 50
0.0
 73
1
 44
1.0
  0
POINT
  5
12B
100
AcDbEntity
  8
Survey
 62
256
370
-1
 48
1.0
  6
BYLAYER
100
AcDbPoint
 10
816237.7126500507583842
 20
988374.1456216680817306
 30
71.8571856967469387
  0
MTEXT
  5
12C
100
AcDbEntity
  8
Survey
 62
256
370
-1
 48
1.0
  6
BYLAYER
100
AcDbMText
 10
816237.7126500507583842
 20
988374.1456216680817306
 30
71.8571856967469387
 40
0.5
 41
6.5
 71
4
 72
0
  1
 121\P 71.857\P DL R 616-860
  7
standard
 50
0.0
 73
1
 44
1.0
  0
POINT
  5
12D
100
AcDbEntity
  8
Survey
 62
256
370
-1
 48
1.0
  6
BYLAYER
100
AcDbPoint
 10
816244.2148896579165012
 20
988354.6597272609360516
 30
71.7568181078044063
  0
MTEXT
  5
12E
100
AcDbEntity
  8
Survey
 62
256
370
-1
 48
1.0
  6
BYLAYER
100
AcDbMText
 10
816244.2148896579165012
 20
988354.6597272609360516
 30
71.7568181078044063
 40
0.5
 41
6.5
 71
4
 72
0
  1
 122\P 71.757\P DL R 616-880
  7
standard
 50
0.0
 73
1
 44
1.0
  0
POINT
  5
12F
100
AcDbEntity
  8
Survey
 62
256
370
-1
 48
1.0
  6
BYLAYER
100
AcDbPoint
 10
816250.6200982973678038
 20
988335.4495967956027016
 30
71.6734685305116841
  0
MTEXT
  5
130
100
AcDbEntity
  8
Survey
 62
256
370
-1
 48
1.0
  6
BYLAYER
100
AcDbMText
 10
816250.6200982973678038
 20
988335.4495967956027016
 30
71.6734685305116841
 40
0.5
 41
6.5
 71
4
 72
0
  1
 123\P 71.673\P DL R 616-900
  7
standard
 50
0.0
 73
1
 44
1.0
  0
POINT
  5
131
100
AcDbEntity
  8
Survey
 62
256
370
-1
 48
1.0
  6
BYLAYER
100
AcDbPoint
 10
816257.1461139938328415
 20
988315.823411624529399
 30
71.5735294062657488
  0
MTEXT
  5
132
100
AcDbEntity
  8
Survey
 62
256
370
-1
 48
1.0
  6
BYLAYER
100
AcDbMText
 10
816257.1461139938328415
 20
988315.823411624529399
 30
71.5735294062657488
 40
0.5
 41
6.5
 71
4
 72
0
  1
 124\P 71.574\P DL R 616-920
  7
standard
 50
0.0
 73
1
 44
1.0
  0
POINT
  5
133
100
AcDbEntity
  8
Survey
 62
256
370
-1
 48
1.0
  6
BYLAYER
100
AcDbPoint
 10
816263.5747907947516069
 20
988296.6536456431495026
 30
71.4922230052360135
  0
MTEXT
  5
134
100
AcDbEntity
  8
Survey
 62
256
370
-1
 48
1.0
  6
BYLAYER
100
AcDbMText
 10
816263.5747907947516069
 20
988296.6536456431495026
 30
71.4922230052360135
 40
0.5
 41
6.5
 71
4
 72
0
  1
 125\P 71.492\P DL R 616-940
  7
standard
 50
0.0
 73
1
 44
1.0
  0
POINT
  5
135
100
AcDbEntity
  8
Survey
 62
256
370
-1
 48
1.0
  6
BYLAYER
100
AcDbPoint
 10
816270.0441478402353823
 20
988277.2786316020647064
 30
71.4070902483126702
  0
MTEXT
  5
136
100
AcDbEntity
  8
Survey
 62
256
370
-1
 48
1.0
  6
BYLAYER
100
AcDbMText
 10
816270.0441478402353823
 20
988277.2786316020647064
 30
71.4070902483126702
 40
0.5
 41
6.5
 71
4
 72
0
  1
 126\P 71.407\P DL R 616-960
  7
standard
 50
0.0
 73
1
 44
1.0
  0
POINT
  5
137
100
AcDbEntity
  8
Survey
 62
256
370
-1
 48
1.0
  6
BYLAYER
100
AcDbPoint
 10
816276.4213265656726435
 20
988258.1640324967447668
 30
71.3142541269388346
  0
MTEXT
  5
138
100
AcDbEntity
  8
Survey
 62
256
370
-1
 48
1.0
  6
BYLAYER
100
AcDbMText
 10
816276.4213265656726435
 20
988258.1640324967447668
 30
71.3142541269388346
 40
0.5
 41
6.5
 71
4
 72
0
  1
 127\P 71.314\P DL R 616-980
  7
standard
 50
0.0
 73
1
 44
1.0
  0
POINT
  5
139
100
AcDbEntity
  8
Survey
 62
256
370
-1
 48
1.0
  6
BYLAYER
100
AcDbPoint
 10
816280.890675243223086
 20
988244.7549401012947783
 30
71.2425065948446417
  0
MTEXT
  5
13A
100
AcDbEntity
  8
Survey
 62
256
370
-1
 48
1.0
  6
BYLAYER
100
AcDbMText
 10
816280.890675243223086
 20
988244.7549401012947783
 30
71.2425065948446417
 40
0.5
 41
6.5
 71
4
 72
0
  1
 128\P 71.243\P DL R 617-000
  7
standard
 50
0.0
 73
1
 44
1.0
  0
POINT
  5
13B
100
AcDbEntity
  8
Survey
 62
256
370
-1
 48
1.0
  6
BYLAYER
100
AcDbPoint
 10
816282.4625710588879883
 20
988245.3725988378282636
 30
71.2296995535606499
  0
MTEXT
  5
13C
100
AcDbEntity
  8
Survey
 62
256
370
-1
 48
1.0
  6
BYLAYER
100
AcDbMText
 10
816282.4625710588879883
 20
988245.3725988378282636
 30
71.2296995535606499
 40
0.5
 41
6.5
 71
4
 72
0
  1
 129\P 71.23\P DL L 617-000
  7
standard
 50
0.0
 73
1
 44
1.0
  0
POINT
  5
13D
100
AcDbEntity
  8
Survey
 62
256
370
-1
 48
1.0
  6
BYLAYER
100
AcDbPoint
 10
816281.6108684607315809
 20
988245.2947797345696017
 30
71.0122963268424883
  0
MTEXT
  5
13E
100
AcDbEntity
  8
Survey
 62
256
370
-1
 48
1.0
  6
BYLAYER
100
AcDbMText
 10
816281.6108684607315809
 20
988245.2947797345696017
 30
71.0122963268424883
 40
0.5
 41
7.0
 71
4
 72
0
  1
 130\P 71.012\P XMARK 617.000
  7
standard
 50
0.0
 73
1
 44
1.0
  0
POINT
  5
13F
100
AcDbEntity
  8
Survey
 62
256
370
-1
 48
1.0
  6
BYLAYER
100
AcDbPoint
 10
816278.9204177567735314
 20
988244.560912671382539
 30
70.8739430515011009
  0
MTEXT
  5
140
100
AcDbEntity
  8
Survey
 62
256
370
-1
 48
1.0
  6
BYLAYER
100
AcDbMText
 10
816278.9204177567735314
 20
988244.560912671382539
 30
70.8739430515011009
 40
0.5
 41
5.0
 71
4
 72
0
  1
 131\P 70.874\P HM617.000
  7
standard
 50
0.0
 73
1
 44
1.0
  0
POINT
  5
141
100
AcDbEntity
  8
Survey
 62
256
370
-1
 48
1.0
  6
BYLAYER
100
AcDbPoint
 10
816287.239917891100049
 20
988225.666357101756148
 30
71.1320023505438002
  0
MTEXT
  5
142
100
AcDbEntity
  8
Survey
 62
256
370
-1
 48
1.0
  6
BYLAYER
100
AcDbMText
 10
816287.239917891100049
 20
988225.666357101756148
 30
71.1320023505438002
 40
0.5
 41
6.5
 71
4
 72
0
  1
 132\P 71.132\P DL R 617-020
  7
standard
 50
0.0
 73
1
 44
1.0
  0
POINT
  5
143
100
AcDbEntity
  8
Survey
 62
256
370
-1
 48
1.0
  6
BYLAYER
100
AcDbPoint
 10
816293.6175212316447869
 20
988206.5408002550248057
 30
71.0380812049458115
  0
MTEXT
  5
144
100
AcDbEntity
  8
Survey
 62
256
370
-1
 48
1.0
  6
BYLAYER
100
AcDbMText
 10
816293.6175212316447869
 20
988206.5408002550248057
 30
71.0380812049458115
 40
0.5
 41
6.5
 71
4
 72
0
  1
 133\P 71.038\P DL R 617-040
  7
standard
 50
0.0
 73
1
 44
1.0
  0
POINT
  5
145
100
AcDbEntity
  8
Survey
 62
256
370
-1
 48
1.0
  6
BYLAYER
100
AcDbPoint
 10
816297.0516246985644102
 20
988208.9143552610184997
 30
70.7428204118431267
  0
MTEXT
  5
146
100
AcDbEntity
  8
Survey
 62
256
370
-1
 48
1.0
  6
BYLAYER
100
AcDbMText
 10
816297.0516246985644102
 20
988208.9143552610184997
 30
70.7428204118431267
 40
0.5
 41
5.5
 71
4
 72
0
  1
 134\P 70.743\P MAST 617.2
  7
standard
 50
0.0
 73
1
 44
1.0
  0
POINT
  5
147
100
AcDbEntity
  8
Survey
 62
256
370
-1
 48
1.0
  6
BYLAYER
100
AcDbPoint
 10
816299.6199503683019429
 20
988188.535893005784601
 30
70.927406465734677
  0
MTEXT
  5
148
100
AcDbEntity
  8
Survey
 62
256
370
-1
 48
1.0
  6
BYLAYER
100
AcDbMText
 10
816299.6199503683019429
 20
988188.535893005784601
 30
70.927406465734677
 40
0.5
 41
6.5
 71
4
 72
0
  1
 135\P 70.927\P DL R 617-060
  7
standard
 50
0.0
 73
1
 44
1.0
  0
POINT
  5
149
100
AcDbEntity
  8
Survey
 62
256
370
-1
 48
1.0
  6
BYLAYER
100
AcDbPoint
 10
816305.9585306964581832
 20
988169.5878099845722318
 30
70.8391664149364004
  0
MTEXT
  5
14A
100
AcDbEntity
  8
Survey
 62
256
370
-1
 48
1.0
  6
BYLAYER
100
AcDbMText
 10
816305.9585306964581832
 20
988169.5878099845722318
 30
70.8391664149364004
 40
0.5
 41
6.5
 71
4
 72
0
  1
 136\P 70.839\P DL R 617-080
  7
standard
 50
0.0
 73
1
 44
1.0
  0
POINT
  5
14B
100
AcDbEntity
  8
Survey
 62
256
370
-1
 48
1.0
  6
BYLAYER
100
AcDbPoint
 10
816312.2649601146113127
 20
988150.6554159204242751
 30
70.7396085709016234
  0
MTEXT
  5
14C
100
AcDbEntity
  8
Survey
 62
256
370
-1
 48
1.0
  6
BYLAYER
100
AcDbMText
 10
816312.2649601146113127
 20
988150.6554159204242751
 30
70.7396085709016234
 40
0.5
 41
6.5
 71
4
 72
0
  1
 137\P 70.74\P DL R 617-100
  7
standard
 50
0.0
 73
1
 44
1.0
  0
POINT
  5
14D
100
AcDbEntity
  8
Survey
 62
256
370
-1
 48
1.0
  6
BYLAYER
100
AcDbPoint
 10
816318.6649746699258685
 20
988131.4666014016838744
 30
70.6657042074539845
  0
MTEXT
  5
14E
100
AcDbEntity
  8
Survey
 62
256
370
-1
 48
1.0
  6
BYLAYER
100
AcDbMText
 10
816318.6649746699258685
 20
988131.4666014016838744
 30
70.6657042074539845
 40
0.5
 41
6.5
 71
4
 72
0
  1
 138\P 70.666\P DL R 617-120
  7
standard
 50
0.0
 73
1
 44
1.0
  0
POINT
  5
14F
100
AcDbEntity
  8
Survey
 62
256
370
-1
 48
1.0
  6
BYLAYER
100
AcDbPoint
 10
816325.2259622537530959
 20
988111.7503517828881741
 30
70.527061130046576
  0
MTEXT
  5
150
100
AcDbEntity
  8
Survey
 62
256
370
-1
 48
1.0
  6
BYLAYER
100
AcDbMText
 10
816325.2259622537530959
 20
988111.7503517828881741
 30
70.527061130046576
 40
0.5
 41
6.5
 71
4
 72
0
  1
 139\P 70.527\P DL R 617-140
  7
standard
 50
0.0
 73
1
 44
1.0
  0
POINT
  5
151
100
AcDbEntity
  8
Survey
 62
256
370
-1
 48
1.0
  6
BYLAYER
100
AcDbPoint
 10
816331.6025835040491074
 20
988092.5979940691031516
 30
70.4398655212802964
  0
MTEXT
  5
152
100
AcDbEntity
  8
Survey
 62
256
370
-1
 48
1.0
  6
BYLAYER
100
AcDbMText
 10
816331.6025835040491074
 20
988092.5979940691031516
 30
70.4398655212802964
 40
0.5
 41
6.5
 71
4
 72
0
  1
 140\P 70.44\P DL R 617-160
  7
standard
 50
0.0
 73
1
 44
1.0
  0
POINT
  5
153
100
AcDbEntity
  8
Survey
 62
256
370
-1
 48
1.0
  6
BYLAYER
100
AcDbPoint
 10
816337.9075965739320964
 20
988073.679533786023967
 30
70.3412870553057417
  0
MTEXT
  5
154
100
AcDbEntity
  8
Survey
 62
256
370
-1
 48
1.0
  6
BYLAYER
100
AcDbMText
 10
816337.9075965739320964
 20
988073.679533786023967
 30
70.3412870553057417
 40
0.5
 41
6.5
 71
4
 72
0
  1
 141\P 70.341\P DL R 617-180
  7
standard
 50
0.0
 73
1
 44
1.0
  0
POINT
  5
155
100
AcDbEntity
  8
Survey
 62
256
370
-1
 48
1.0
  6
BYLAYER
100
AcDbPoint
 10
816344.2617266193265095
 20
988054.6455558321904391
 30
70.2423450409810073
  0
MTEXT
  5
156
100
AcDbEntity
  8
Survey
 62
256
370
-1
 48
1.0
  6
BYLAYER
100
AcDbMText
 10
816344.2617266193265095
 20
988054.6455558321904391
 30
70.2423450409810073
 40
0.5
 41
6.5
 71
4
 72
0
  1
 142\P 70.242\P DL R 617-200
  7
standard
 50
0.0
 73
1
 44
1.0
  0
POINT
  5
157
100
AcDbEntity
  8
Survey
 62
256
370
-1
 48
1.0
  6
BYLAYER
100
AcDbPoint
 10
816350.6697989718522877
 20
988035.4560254516545683
 30
70.1380833252054572
  0
MTEXT
  5
158
100
AcDbEntity
  8
Survey
 62
256
370
-1
 48
1.0
  6
BYLAYER
100
AcDbMText
 10
816350.6697989718522877
 20
988035.4560254516545683
 30
70.1380833252054572
 40
0.5
 41
6.5
 71
4
 72
0
  1
 143\P 70.138\P DL R 617-220
  7
standard
 50
0.0
 73
1
 44
1.0
  0
POINT
  5
159
100
AcDbEntity
  8
Survey
 62
256
370
-1
 48
1.0
  6
BYLAYER
100
AcDbPoint
 10
816357.0024727385025471
 20
988016.4641650054836646
 30
69.9824448477062191
  0
MTEXT
  5
15A
100
AcDbEntity
  8
Survey
 62
256
370
-1
 48
1.0
  6
BYLAYER
100
AcDbMText
 10
816357.0024727385025471
 20
988016.4641650054836646
 30
69.9824448477062191
 40
0.5
 41
6.5
 71
4
 72
0
  1
 144\P 69.982\P DL R 617-240
  7
standard
 50
0.0
 73
1
 44
1.0
  0
POINT
  5
15B
100
AcDbEntity
  8
Survey
 62
256
370
-1
 48
1.0
  6
BYLAYER
100
AcDbPoint
 10
816363.3950465577654541
 20
987997.1879470910644159
 30
69.8825343918899904
  0
MTEXT
  5
15C
100
AcDbEntity
  8
Survey
 62
256
370
-1
 48
1.0
  6
BYLAYER
100
AcDbMText
 10
816363.3950465577654541
 20
987997.1879470910644159
 30
69.8825343918899904
 40
0.5
 41
6.5
 71
4
 72
0
  1
 145\P 69.883\P DL R 617-260
  7
standard
 50
0.0
 73
1
 44
1.0
  0
POINT
  5
15D
100
AcDbEntity
  8
Survey
 62
256
370
-1
 48
1.0
  6
BYLAYER
100
AcDbPoint
 10
816369.751586218830198
 20
987978.1007395815104246
 30
69.7538866592844187
  0
MTEXT
  5
15E
100
AcDbEntity
  8
Survey
 62
256
370
-1
 48
1.0
  6
BYLAYER
100
AcDbMText
 10
816369.751586218830198
 20
987978.1007395815104246
 30
69.7538866592844187
 40
0.5
 41
6.5
 71
4
 72
0
  1
 146\P 69.754\P DL R 617-280
  7
standard
 50
0.0
 73
1
 44
1.0
  0
POINT
  5
15F
100
AcDbEntity
  8
Survey
 62
256
370
-1
 48
1.0
  6
BYLAYER
100
AcDbPoint
 10
816375.9522777511738241
 20
987959.5762074807425961
 30
69.6942322154081495
  0
MTEXT
  5
160
100
AcDbEntity
  8
Survey
 62
256
370
-1
 48
1.0
  6
BYLAYER
100
AcDbMText
 10
816375.9522777511738241
 20
987959.5762074807425961
 30
69.6942322154081495
 40
0.5
 41
6.5
 71
4
 72
0
  1
 147\P 69.694\P DL R 617-300
  7
standard
 50
0.0
 73
1
 44
1.0
  0
POINT
  5
161
100
AcDbEntity
  8
Survey
 62
256
370
-1
 48
1.0
  6
BYLAYER
100
AcDbPoint
 10
816382.3562346422113478
 20
987940.4225071185501292
 30
69.6083415972238697
  0
MTEXT
  5
162
100
AcDbEntity
  8
Survey
 62
256
370
-1
 48
1.0
  6
BYLAYER
100
AcDbMText
 10
816382.3562346422113478
 20
987940.4225071185501292
 30
69.6083415972238697
 40
0.5
 41
6.5
 71
4
 72
0
  1
 148\P 69.608\P DL R 617-320
  7
standard
 50
0.0
 73
1
 44
1.0
  0
POINT
  5
163
100
AcDbEntity
  8
Survey
 62
256
370
-1
 48
1.0
  6
BYLAYER
100
AcDbPoint
 10
816388.7900268493685871
 20
987921.1556847268948331
 30
69.4712399306046251
  0
MTEXT
  5
164
100
AcDbEntity
  8
Survey
 62
256
370
-1
 48
1.0
  6
BYLAYER
100
AcDbMText
 10
816388.7900268493685871
 20
987921.1556847268948331
 30
69.4712399306046251
 40
0.5
 41
6.5
 71
4
 72
0
  1
 149\P 69.471\P DL R 617-340
  7
standard
 50
0.0
 73
1
 44
1.0
  0
POINT
  5
165
100
AcDbEntity
  8
Survey
 62
256
370
-1
 48
1.0
  6
BYLAYER
100
AcDbPoint
 10
816395.1760312218684703
 20
987902.0888508425559849
 30
69.3875848443093446
  0
MTEXT
  5
166
100
AcDbEntity
  8
Survey
 62
256
370
-1
 48
1.0
  6
BYLAYER
100
AcDbMText
 10
816395.1760312218684703
 20
987902.0888508425559849
 30
69.3875848443093446
 40
0.5
 41
6.5
 71
4
 72
0
  1
 150\P 69.388\P DL R 617-360
  7
standard
 50
0.0
 73
1
 44
1.0
  0
POINT
  5
167
100
AcDbEntity
  8
Survey
 62
256
370
-1
 48
1.0
  6
BYLAYER
100
AcDbPoint
 10
816401.7260397146455944
 20
987882.4730193002615124
 30
69.279887952537976
  0
MTEXT
  5
168
100
AcDbEntity
  8
Survey
 62
256
370
-1
 48
1.0
  6
BYLAYER
100
AcDbMText
 10
816401.7260397146455944
 20
987882.4730193002615124
 30
69.279887952537976
 40
0.5
 41
6.5
 71
4
 72
0
  1
 151\P 69.28\P DL R 617-380
  7
standard
 50
0.0
 73
1
 44
1.0
  0
POINT
  5
169
100
AcDbEntity
  8
Survey
 62
256
370
-1
 48
1.0
  6
BYLAYER
100
AcDbPoint
 10
816408.1426930339075625
 20
987863.2879768791608512
 30
69.1835810902543358
  0
MTEXT
  5
16A
100
AcDbEntity
  8
Survey
 62
256
370
-1
 48
1.0
  6
BYLAYER
100
AcDbMText
 10
816408.1426930339075625
 20
987863.2879768791608512
 30
69.1835810902543358
 40
0.5
 41
6.5
 71
4
 72
0
  1
 152\P 69.184\P DL R 617-400
  7
standard
 50
0.0
 73
1
 44
1.0
  0
POINT
  5
16B
100
AcDbEntity
  8
Survey
 62
256
370
-1
 48
1.0
  6
BYLAYER
100
AcDbPoint
 10
816414.6882431448902935
 20
987843.6942484372993931
 30
69.0850287628223327
  0
MTEXT
  5
16C
100
AcDbEntity
  8
Survey
 62
256
370
-1
 48
1.0
  6
BYLAYER
100
AcDbMText
 10
816414.6882431448902935
 20
987843.6942484372993931
 30
69.0850287628223327
 40
0.5
 41
6.5
 71
4
 72
0
  1
 153\P 69.085\P DL R 617-420
  7
standard
 50
0.0
 73
1
 44
1.0
  0
POINT
  5
16D
100
AcDbEntity
  8
Survey
 62
256
370
-1
 48
1.0
  6
BYLAYER
100
AcDbPoint
 10
816421.0987751589855179
 20
987824.4904489207547158
 30
68.9920561495532354
  0
MTEXT
  5
16E
100
AcDbEntity
  8
Survey
 62
256
370
-1
 48
1.0
  6
BYLAYER
100
AcDbMText
 10
816421.0987751589855179
 20
987824.4904489207547158
 30
68.9920561495532354
 40
0.5
 41
6.5
 71
4
 72
0
  1
 154\P 68.992\P DL R 617-440
  7
standard
 50
0.0
 73
1
 44
1.0
  0
POINT
  5
16F
100
AcDbEntity
  8
Survey
 62
256
370
-1
 48
1.0
  6
BYLAYER
100
AcDbPoint
 10
816427.4816728511359543
 20
987805.3442171079805121
 30
68.8910086791988334
  0
MTEXT
  5
170
100
AcDbEntity
  8
Survey
 62
256
370
-1
 48
1.0
  6
BYLAYER
100
AcDbMText
 10
816427.4816728511359543
 20
987805.3442171079805121
 30
68.8910086791988334
 40
0.5
 41
6.5
 71
4
 72
0
  1
 155\P 68.891\P DL R 617-460
  7
standard
 50
0.0
 73
1
 44
1.0
  0
POINT
  5
171
100
AcDbEntity
  8
Survey
 62
256
370
-1
 48
1.0
  6
BYLAYER
100
AcDbPoint
 10
816433.8096767805982381
 20
987786.4057779548456892
 30
68.81897948767066
  0
MTEXT
  5
172
100
AcDbEntity
  8
Survey
 62
256
370
-1
 48
1.0
  6
BYLAYER
100
AcDbMText
 10
816433.8096767805982381
 20
987786.4057779548456892
 30
68.81897948767066
 40
0.5
 41
6.5
 71
4
 72
0
  1
 156\P 68.819\P DL R 617-480
  7
standard
 50
0.0
 73
1
 44
1.0
  0
POINT
  5
173
100
AcDbEntity
  8
Survey
 62
256
370
-1
 48
1.0
  6
BYLAYER
100
AcDbPoint
 10
816439.0871589304879308
 20
987770.6100321802077815
 30
68.7507948894260608
  0
MTEXT
  5
174
100
AcDbEntity
  8
Survey
 62
256
370
-1
 48
1.0
  6
BYLAYER
100
AcDbMText
 10
816439.0871589304879308
 20
987770.6100321802077815
 30
68.7507948894260608
 40
0.5
 41
6.5
 71
4
 72
0
  1
 157\P 68.751\P DL R 617-500
  7
standard
 50
0.0
 73
1
 44
1.0
  0
POINT
  5
175
100
AcDbEntity
  8
Survey
 62
256
370
-1
 48
1.0
  6
BYLAYER
100
AcDbPoint
 10
816440.7499840660020709
 20
987771.3141910061240196
 30
68.7529639642886252
  0
MTEXT
  5
176
100
AcDbEntity
  8
Survey
 62
256
370
-1
 48
1.0
  6
BYLAYER
100
AcDbMText
 10
816440.7499840660020709
 20
987771.3141910061240196
 30
68.7529639642886252
 40
0.5
 41
6.5
 71
4
 72
0
  1
 158\P 68.753\P DL L 617-500
  7
standard
 50
0.0
 73
1
 44
1.0
  0
POINT
  5
177
100
AcDbEntity
  8
Survey
 62
256
370
-1
 48
1.0
  6
BYLAYER
100
AcDbPoint
 10
816440.0338798705488443
 20
987770.9263698956929147
 30
68.5520780821462807
  0
MTEXT
  5
178
100
AcDbEntity
  8
Survey
 62
256
370
-1
 48
1.0
  6
BYLAYER
100
AcDbMText
 10
816440.0338798705488443
 20
987770.9263698956929147
 30
68.5520780821462807
 40
0.5
 41
7.0
 71
4
 72
0
  1
 159\P 68.552\P XMARK 617.500
  7
standard
 50
0.0
 73
1
 44
1.0
  0
POINT
  5
179
100
AcDbEntity
  8
Survey
 62
256
370
-1
 48
1.0
  6
BYLAYER
100
AcDbPoint
 10
816442.774241738487035
 20
987772.0116481665754691
 30
68.0685462037078395
  0
MTEXT
  5
17A
100
AcDbEntity
  8
Survey
 62
256
370
-1
 48
1.0
  6
BYLAYER
100
AcDbMText
 10
816442.774241738487035
 20
987772.0116481665754691
 30
68.0685462037078395
 40
0.5
 41
5.5
 71
4
 72
0
  1
 160\P 68.069\P HM 617.500
  7
standard
 50
0.0
 73
1
 44
1.0
  0
POINT
  5
17B
100
AcDbEntity
  8
Survey
 62
256
370
-1
 48
1.0
  6
BYLAYER
100
AcDbPoint
 10
816445.3839788067853078
 20
987751.7894624387845397
 30
68.6609025137827302
  0
MTEXT
  5
17C
100
AcDbEntity
  8
Survey
 62
256
370
-1
 48
1.0
  6
BYLAYER
100
AcDbMText
 10
816445.3839788067853078
 20
987751.7894624387845397
 30
68.6609025137827302
 40
0.5
 41
6.5
 71
4
 72
0
  1
 161\P 68.661\P DL R 617-520
  7
standard
 50
0.0
 73
1
 44
1.0
  0
POINT
  5
17D
100
AcDbEntity
  8
Survey
 62
256
370
-1
 48
1.0
  6
BYLAYER
100
AcDbPoint
 10
816451.8217459274455905
 20
987732.5253202508902177
 30
68.5736142374148727
  0
MTEXT
  5
17E
100
AcDbEntity
  8
Survey
 62
256
370
-1
 48
1.0
  6
BYLAYER
100
AcDbMText
 10
816451.8217459274455905
 20
987732.5253202508902177
 30
68.5736142374148727
 40
0.5
 41
6.5
 71
4
 72
0
  1
 162\P 68.574\P DL R 617-540
  7
standard
 50
0.0
 73
1
 44
1.0
  0
POINT
  5
17F
100
AcDbEntity
  8
Survey
 62
256
370
-1
 48
1.0
  6
BYLAYER
100
AcDbPoint
 10
816458.2781350750010461
 20
987713.2732777942437679
 30
68.4896623562208902
  0
MTEXT
  5
180
100
AcDbEntity
  8
Survey
 62
256
370
-1
 48
1.0
  6
BYLAYER
100
AcDbMText
 10
816458.2781350750010461
 20
987713.2732777942437679
 30
68.4896623562208902
 40
0.5
 41
6.5
 71
4
 72
0
  1
 163\P 68.49\P DL R 617-560
  7
standard
 50
0.0
 73
1
 44
1.0
  0
POINT
  5
181
100
AcDbEntity
  8
Survey
 62
256
370
-1
 48
1.0
  6
BYLAYER
100
AcDbPoint
 10
816464.7789535538759083
 20
987693.8152413713978603
 30
68.411544285345812
  0
MTEXT
  5
182
100
AcDbEntity
  8
Survey
 62
256
370
-1
 48
1.0
  6
BYLAYER
100
AcDbMText
 10
816464.7789535538759083
 20
987693.8152413713978603
 30
68.411544285345812
 40
0.5
 41
6.5
 71
4
 72
0
  1
 164\P 68.412\P DL R 617-580
  7
standard
 50
0.0
 73
1
 44
1.0
  0
POINT
  5
183
100
AcDbEntity
  8
Survey
 62
256
370
-1
 48
1.0
  6
BYLAYER
100
AcDbPoint
 10
816471.0454151276499033
 20
987674.9934356509475037
 30
68.3479081129451203
  0
MTEXT
  5
184
100
AcDbEntity
  8
Survey
 62
256
370
-1
 48
1.0
  6
BYLAYER
100
AcDbMText
 10
816471.0454151276499033
 20
987674.9934356509475037
 30
68.3479081129451203
 40
0.5
 41
6.5
 71
4
 72
0
  1
 165\P 68.348\P DL R 617-600
  7
standard
 50
0.0
 73
1
 44
1.0
  0
POINT
  5
185
100
AcDbEntity
  8
Survey
 62
256
370
-1
 48
1.0
  6
BYLAYER
100
AcDbPoint
 10
816477.4328958422411233
 20
987655.8980436752317473
 30
68.291110773328171
  0
MTEXT
  5
186
100
AcDbEntity
  8
Survey
 62
256
370
-1
 48
1.0
  6
BYLAYER
100
AcDbMText
 10
816477.4328958422411233
 20
987655.8980436752317473
 30
68.291110773328171
 40
0.5
 41
6.5
 71
4
 72
0
  1
 166\P 68.291\P DL R 617-620
  7
standard
 50
0.0
 73
1
 44
1.0
  0
POINT
  5
187
100
AcDbEntity
  8
Survey
 62
256
370
-1
 48
1.0
  6
BYLAYER
100
AcDbPoint
 10
816483.9201251710765064
 20
987636.5182726259808987
 30
68.2304328115730527
  0
MTEXT
  5
188
100
AcDbEntity
  8
Survey
 62
256
370
-1
 48
1.0
  6
BYLAYER
100
AcDbMText
 10
816483.9201251710765064
 20
987636.5182726259808987
 30
68.2304328115730527
 40
0.5
 41
6.5
 71
4
 72
0
  1
 167\P 68.23\P DL R 617-640
  7
standard
 50
0.0
 73
1
 44
1.0
  0
POINT
  5
189
100
AcDbEntity
  8
Survey
 62
256
370
-1
 48
1.0
  6
BYLAYER
100
AcDbPoint
 10
816490.3347428234992549
 20
987617.3739411468850449
 30
68.1991783814006425
  0
MTEXT
  5
18A
100
AcDbEntity
  8
Survey
 62
256
370
-1
 48
1.0
  6
BYLAYER
100
AcDbMText
 10
816490.3347428234992549
 20
987617.3739411468850449
 30
68.1991783814006425
 40
0.5
 41
6.5
 71
4
 72
0
  1
 168\P 68.199\P DL R 617-660
  7
standard
 50
0.0
 73
1
 44
1.0
  0
POINT
  5
18B
100
AcDbEntity
  8
Survey
 62
256
370
-1
 48
1.0
  6
BYLAYER
100
AcDbPoint
 10
816496.7004802862647921
 20
987598.2731745840283111
 30
68.1488651909016028
  0
MTEXT
  5
18C
100
AcDbEntity
  8
Survey
 62
256
370
-1
 48
1.0
  6
BYLAYER
100
AcDbMText
 10
816496.7004802862647921
 20
987598.2731745840283111
 30
68.1488651909016028
 40
0.5
 41
6.5
 71
4
 72
0
  1
 169\P 68.149\P DL R 617-680
  7
standard
 50
0.0
 73
1
 44
1.0
  0
POINT
  5
18D
100
AcDbEntity
  8
Survey
 62
256
370
-1
 48
1.0
  6
BYLAYER
100
AcDbPoint
 10
816502.9330836699809879
 20
987579.6170363158453256
 30
68.1263705389808365
  0
MTEXT
  5
18E
100
AcDbEntity
  8
Survey
 62
256
370
-1
 48
1.0
  6
BYLAYER
100
AcDbMText
 10
816502.9330836699809879
 20
987579.6170363158453256
 30
68.1263705389808365
 40
0.5
 41
6.5
 71
4
 72
0
  1
 170\P 68.126\P DL R 617-700
  7
standard
 50
0.0
 73
1
 44
1.0
  0
POINT
  5
18F
100
AcDbEntity
  8
Survey
 62
256
370
-1
 48
1.0
  6
BYLAYER
100
AcDbPoint
 10
816509.263781777350232
 20
987560.7474630075739697
 30
68.1149887103200484
  0
MTEXT
  5
190
100
AcDbEntity
  8
Survey
 62
256
370
-1
 48
1.0
  6
BYLAYER
100
AcDbMText
 10
816509.263781777350232
 20
987560.7474630075739697
 30
68.1149887103200484
 40
0.5
 41
6.5
 71
4
 72
0
  1
 171\P 68.115\P DL R 617-720
  7
standard
 50
0.0
 73
1
 44
1.0
  0
POINT
  5
191
100
AcDbEntity
  8
Survey
 62
256
370
-1
 48
1.0
  6
BYLAYER
100
AcDbPoint
 10
816515.7244895694311708
 20
987541.467773059848696
 30
68.1108414422816679
  0
MTEXT
  5
192
100
AcDbEntity
  8
Survey
 62
256
370
-1
 48
1.0
  6
BYLAYER
100
AcDbMText
 10
816515.7244895694311708
 20
987541.467773059848696
 30
68.1108414422816679
 40
0.5
 41
6.5
 71
4
 72
0
  1
 172\P 68.111\P DL R 617-740
  7
standard
 50
0.0
 73
1
 44
1.0
  0
POINT
  5
193
100
AcDbEntity
  8
Survey
 62
256
370
-1
 48
1.0
  6
BYLAYER
100
AcDbPoint
 10
816522.1232908476376906
 20
987522.2364171337103471
 30
68.0698595374405073
  0
MTEXT
  5
194
100
AcDbEntity
  8
Survey
 62
256
370
-1
 48
1.0
  6
BYLAYER
100
AcDbMText
 10
816522.1232908476376906
 20
987522.2364171337103471
 30
68.0698595374405073
 40
0.5
 41
6.5
 71
4
 72
0
  1
 173\P 68.07\P DL R 617-760
  7
standard
 50
0.0
 73
1
 44
1.0
  0
POINT
  5
195
100
AcDbEntity
  8
Survey
 62
256
370
-1
 48
1.0
  6
BYLAYER
100
AcDbPoint
 10
816528.4891124190762639
 20
987503.2681520914193243
 30
67.9814214208870453
  0
MTEXT
  5
196
100
AcDbEntity
  8
Survey
 62
256
370
-1
 48
1.0
  6
BYLAYER
100
AcDbMText
 10
816528.4891124190762639
 20
987503.2681520914193243
 30
67.9814214208870453
 40
0.5
 41
6.5
 71
4
 72
0
  1
 174\P 67.981\P DL R 617-780
  7
standard
 50
0.0
 73
1
 44
1.0
  0
POINT
  5
197
100
AcDbEntity
  8
Survey
 62
256
370
-1
 48
1.0
  6
BYLAYER
100
AcDbPoint
 10
816534.8047788483090699
 20
987484.2951780360890552
 30
67.8887883722354957
  0
MTEXT
  5
198
100
AcDbEntity
  8
Survey
 62
256
370
-1
 48
1.0
  6
BYLAYER
100
AcDbMText
 10
816534.8047788483090699
 20
987484.2951780360890552
 30
67.8887883722354957
 40
0.5
 41
6.5
 71
4
 72
0
  1
 175\P 67.889\P DL R 617-800
  7
standard
 50
0.0
 73
1
 44
1.0
  0
POINT
  5
199
100
AcDbEntity
  8
Survey
 62
256
370
-1
 48
1.0
  6
BYLAYER
100
AcDbPoint
 10
816541.2230405753944069
 20
987465.0398395613301545
 30
67.7752335584315801
  0
MTEXT
  5
19A
100
AcDbEntity
  8
Survey
 62
256
370
-1
 48
1.0
  6
BYLAYER
100
AcDbMText
 10
816541.2230405753944069
 20
987465.0398395613301545
 30
67.7752335584315801
 40
0.5
 41
6.5
 71
4
 72
0
  1
 176\P 67.775\P DL R 617-820
  7
standard
 50
0.0
 73
1
 44
1.0
  0
POINT
  5
19B
100
AcDbEntity
  8
Survey
 62
256
370
-1
 48
1.0
  6
BYLAYER
100
AcDbPoint
 10
816547.6008328321622685
 20
987445.9493451126618311
 30
67.7142961320511461
  0
MTEXT
  5
19C
100
AcDbEntity
  8
Survey
 62
256
370
-1
 48
1.0
  6
BYLAYER
100
AcDbMText
 10
816547.6008328321622685
 20
987445.9493451126618311
 30
67.7142961320511461
 40
0.5
 41
6.5
 71
4
 72
0
  1
 177\P 67.714\P DL R 617-840
  7
standard
 50
0.0
 73
1
 44
1.0
  0
POINT
  5
19D
100
AcDbEntity
  8
Survey
 62
256
370
-1
 48
1.0
  6
BYLAYER
100
AcDbPoint
 10
816554.2326997243799269
 20
987426.1372028365731239
 30
67.6570291956235224
  0
MTEXT
  5
19E
100
AcDbEntity
  8
Survey
 62
256
370
-1
 48
1.0
  6
BYLAYER
100
AcDbMText
 10
816554.2326997243799269
 20
987426.1372028365731239
 30
67.6570291956235224
 40
0.5
 41
6.5
 71
4
 72
0
  1
 178\P 67.657\P DL R 617-860
  7
standard
 50
0.0
 73
1
 44
1.0
  0
POINT
  5
19F
100
AcDbEntity
  8
Survey
 62
256
370
-1
 48
1.0
  6
BYLAYER
100
AcDbPoint
 10
816560.5602942093973979
 20
987407.1467178842285648
 30
67.6043357189723793
  0
MTEXT
  5
1A0
100
AcDbEntity
  8
Survey
 62
256
370
-1
 48
1.0
  6
BYLAYER
100
AcDbMText
 10
816560.5602942093973979
 20
987407.1467178842285648
 30
67.6043357189723793
 40
0.5
 41
6.5
 71
4
 72
0
  1
 179\P 67.604\P DL R 617-880
  7
standard
 50
0.0
 73
1
 44
1.0
  0
POINT
  5
1A1
100
AcDbEntity
  8
Survey
 62
256
370
-1
 48
1.0
  6
BYLAYER
100
AcDbPoint
 10
816566.9929057763656601
 20
987387.8738873499678448
 30
67.5734030889428823
  0
MTEXT
  5
1A2
100
AcDbEntity
  8
Survey
 62
256
370
-1
 48
1.0
  6
BYLAYER
100
AcDbMText
 10
816566.9929057763656601
 20
987387.8738873499678448
 30
67.5734030889428823
 40
0.5
 41
6.5
 71
4
 72
0
  1
 180\P 67.573\P DL R 617-900
  7
standard
 50
0.0
 73
1
 44
1.0
  0
POINT
  5
1A3
100
AcDbEntity
  8
Survey
 62
256
370
-1
 48
1.0
  6
BYLAYER
100
AcDbPoint
 10
816573.4692506385035813
 20
987368.5408456240547821
 30
67.5226220923064204
  0
MTEXT
  5
1A4
100
AcDbEntity
  8
Survey
 62
256
370
-1
 48
1.0
  6
BYLAYER
100
AcDbMText
 10
816573.4692506385035813
 20
987368.5408456240547821
 30
67.5226220923064204
 40
0.5
 41
6.5
 71
4
 72
0
  1
 181\P 67.523\P DL R 617-920
  7
standard
 50
0.0
 73
1
 44
1.0
  0
POINT
  5
1A5
100
AcDbEntity
  8
Survey
 62
256
370
-1
 48
1.0
  6
BYLAYER
100
AcDbPoint
 10
816579.5618345474358648
 20
987350.2851058213273063
 30
67.4813500642186739
  0
MTEXT
  5
1A6
100
AcDbEntity
  8
Survey
 62
256
370
-1
 48
1.0
  6
BYLAYER
100
AcDbMText
 10
816579.5618345474358648
 20
987350.2851058213273063
 30
67.4813500642186739
 40
0.5
 41
6.5
 71
4
 72
0
  1
 182\P 67.481\P DL R 617-940
  7
standard
 50
0.0
 73
1
 44
1.0
  0
POINT
  5
1A7
100
AcDbEntity
  8
Survey
 62
256
370
-1
 48
1.0
  6
BYLAYER
100
AcDbPoint
 10
816585.9522947857622057
 20
987331.0971812750212848
 30
67.4677793509674188
  0
MTEXT
  5
1A8
100
AcDbEntity
  8
Survey
 62
256
370
-1
 48
1.0
  6
BYLAYER
100
AcDbMText
 10
816585.9522947857622057
 20
987331.0971812750212848
 30
67.4677793509674188
 40
0.5
 41
6.5
 71
4
 72
0
  1
 183\P 67.468\P DL R 617-960
  7
standard
 50
0.0
 73
1
 44
1.0
  0
POINT
  5
1A9
100
AcDbEntity
  8
Survey
 62
256
370
-1
 48
1.0
  6
BYLAYER
100
AcDbPoint
 10
816591.4920386394951493
 20
987314.5684353725519031
 30
67.4467928510643731
  0
MTEXT
  5
1AA
100
AcDbEntity
  8
Survey
 62
256
370
-1
 48
1.0
  6
BYLAYER
100
AcDbMText
 10
816591.4920386394951493
 20
987314.5684353725519031
 30
67.4467928510643731
 40
0.5
 41
6.5
 71
4
 72
0
  1
 184\P 67.447\P DL R 617-980
  7
standard
 50
0.0
 73
1
 44
1.0
  0
POINT
  5
1AB
100
AcDbEntity
  8
Survey
 62
256
370
-1
 48
1.0
  6
BYLAYER
100
AcDbPoint
 10
816596.1243580323643982
 20
987300.6586858787341043
 30
67.4736662401109584
  0
MTEXT
  5
1AC
100
AcDbEntity
  8
Survey
 62
256
370
-1
 48
1.0
  6
BYLAYER
100
AcDbMText
 10
816596.1243580323643982
 20
987300.6586858787341043
 30
67.4736662401109584
 40
0.5
 41
6.5
 71
4
 72
0
  1
 185\P 67.474\P DL R 618-000
  7
standard
 50
0.0
 73
1
 44
1.0
  0
POINT
  5
1AD
100
AcDbEntity
  8
Survey
 62
256
370
-1
 48
1.0
  6
BYLAYER
100
AcDbPoint
 10
816597.7715744024608284
 20
987301.362723843427375
 30
67.4477636827441529
  0
MTEXT
  5
1AE
100
AcDbEntity
  8
Survey
 62
256
370
-1
 48
1.0
  6
BYLAYER
100
AcDbMText
 10
816597.7715744024608284
 20
987301.362723843427375
 30
67.4477636827441529
 40
0.5
 41
6.5
 71
4
 72
0
  1
 186\P 67.448\P DL L 618-000
  7
standard
 50
0.0
 73
1
 44
1.0
  0
POINT
  5
1AF
100
AcDbEntity
  8
Survey
 62
256
370
-1
 48
1.0
  6
BYLAYER
100
AcDbPoint
 10
816597.2056115941377357
 20
987300.4943182611605152
 30
67.2348543773560294
  0
MTEXT
  5
1B0
100
AcDbEntity
  8
Survey
 62
256
370
-1
 48
1.0
  6
BYLAYER
100
AcDbMText
 10
816597.2056115941377357
 20
987300.4943182611605152
 30
67.2348543773560294
 40
0.5
 41
7.0
 71
4
 72
0
  1
 187\P 67.235\P XMARK 618.000
  7
standard
 50
0.0
 73
1
 44
1.0
  0
POINT
  5
1B1
100
AcDbEntity
  8
Survey
 62
256
370
-1
 48
1.0
  6
BYLAYER
100
AcDbPoint
 10
816602.7081846360815689
 20
987281.0534991308813915
 30
67.4448973600929804
  0
MTEXT
  5
1B2
100
AcDbEntity
  8
Survey
 62
256
370
-1
 48
1.0
  6
BYLAYER
100
AcDbMText
 10
816602.7081846360815689
 20
987281.0534991308813915
 30
67.4448973600929804
 40
0.5
 41
6.5
 71
4
 72
0
  1
 188\P 67.445\P DL R 618-020
  7
standard
 50
0.0
 73
1
 44
1.0
  0
POINT
  5
1B3
100
AcDbEntity
  8
Survey
 62
256
370
-1
 48
1.0
  6
BYLAYER
100
AcDbPoint
 10
816609.0939438964705914
 20
987261.9476725900312886
 30
67.4416706812524751
  0
MTEXT
  5
1B4
100
AcDbEntity
  8
Survey
 62
256
370
-1
 48
1.0
  6
BYLAYER
100
AcDbMText
 10
816609.0939438964705914
 20
987261.9476725900312886
 30
67.4416706812524751
 40
0.5
 41
6.5
 71
4
 72
0
  1
 189\P 67.442\P DL R 618-040
  7
standard
 50
0.0
 73
1
 44
1.0
  0
POINT
  5
1B5
100
AcDbEntity
  8
Survey
 62
256
370
-1
 48
1.0
  6
BYLAYER
100
AcDbPoint
 10
816615.4119691476225853
 20
987243.0727852653944865
 30
67.455956578240972
  0
MTEXT
  5
1B6
100
AcDbEntity
  8
Survey
 62
256
370
-1
 48
1.0
  6
BYLAYER
100
AcDbMText
 10
816615.4119691476225853
 20
987243.0727852653944865
 30
67.455956578240972
 40
0.5
 41
6.5
 71
4
 72
0
  1
 190\P 67.456\P DL R 618-060
  7
standard
 50
0.0
 73
1
 44
1.0
  0
POINT
  5
1B7
100
AcDbEntity
  8
Survey
 62
256
370
-1
 48
1.0
  6
BYLAYER
100
AcDbPoint
 10
816621.9354679131647572
 20
987223.5966416605515406
 30
67.4288939185505285
  0
MTEXT
  5
1B8
100
AcDbEntity
  8
Survey
 62
256
370
-1
 48
1.0
  6
BYLAYER
100
AcDbMText
 10
816621.9354679131647572
 20
987223.5966416605515406
 30
67.4288939185505285
 40
0.5
 41
6.5
 71
4
 72
0
  1
 191\P 67.429\P DL R 618-080
  7
standard
 50
0.0
 73
1
 44
1.0
  0
POINT
  5
1B9
100
AcDbEntity
  8
Survey
 62
256
370
-1
 48
1.0
  6
BYLAYER
100
AcDbPoint
 10
816628.4450418064370751
 20
987204.0009462626185268
 30
67.3870787833929938
  0
MTEXT
  5
1BA
100
AcDbEntity
  8
Survey
 62
256
370
-1
 48
1.0
  6
BYLAYER
100
AcDbMText
 10
816628.4450418064370751
 20
987204.0009462626185268
 30
67.3870787833929938
 40
0.5
 41
6.5
 71
4
 72
0
  1
 192\P 67.387\P DL R 618-100
  7
standard
 50
0.0
 73
1
 44
1.0
  0
POINT
  5
1BB
100
AcDbEntity
  8
Survey
 62
256
370
-1
 48
1.0
  6
BYLAYER
100
AcDbPoint
 10
816634.8473340952768922
 20
987184.8235137014416978
 30
67.3621050535020061
  0
MTEXT
  5
1BC
100
AcDbEntity
  8
Survey
 62
256
370
-1
 48
1.0
  6
BYLAYER
100
AcDbMText
 10
816634.8473340952768922
 20
987184.8235137014416978
 30
67.3621050535020061
 40
0.5
 41
6.5
 71
4
 72
0
  1
 193\P 67.362\P DL R 618-120
  7
standard
 50
0.0
 73
1
 44
1.0
  0
POINT
  5
1BD
100
AcDbEntity
  8
Survey
 62
256
370
-1
 48
1.0
  6
BYLAYER
100
AcDbPoint
 10
816641.0722159037832171
 20
987166.1360825767042115
 30
67.3409768801874691
  0
MTEXT
  5
1BE
100
AcDbEntity
  8
Survey
 62
256
370
-1
 48
1.0
  6
BYLAYER
100
AcDbMText
 10
816641.0722159037832171
 20
987166.1360825767042115
 30
67.3409768801874691
 40
0.5
 41
6.5
 71
4
 72
0
  1
 194\P 67.341\P DL R 618-140
  7
standard
 50
0.0
 73
1
 44
1.0
  0
POINT
  5
1BF
100
AcDbEntity
  8
Survey
 62
256
370
-1
 48
1.0
  6
BYLAYER
100
AcDbPoint
 10
816647.2386637898162007
 20
987147.7009171540848911
 30
67.3364541371249175
  0
MTEXT
  5
1C0
100
AcDbEntity
  8
Survey
 62
256
370
-1
 48
1.0
  6
BYLAYER
100
AcDbMText
 10
816647.2386637898162007
 20
987147.7009171540848911
 30
67.3364541371249175
 40
0.5
 41
6.5
 71
4
 72
0
  1
 195\P 67.336\P DL R 618-160
  7
standard
 50
0.0
 73
1
 44
1.0
  0
POINT
  5
1C1
100
AcDbEntity
  8
Survey
 62
256
370
-1
 48
1.0
  6
BYLAYER
100
AcDbPoint
 10
816653.6559654134325683
 20
987128.5338942389935255
 30
67.3180079607454758
  0
MTEXT
  5
1C2
100
AcDbEntity
  8
Survey
 62
256
370
-1
 48
1.0
  6
BYLAYER
100
AcDbMText
 10
816653.6559654134325683
 20
987128.5338942389935255
 30
67.3180079607454758
 40
0.5
 41
6.5
 71
4
 72
0
  1
 196\P 67.318\P DL R 618-180
  7
standard
 50
0.0
 73
1
 44
1.0
  0
POINT
  5
1C3
100
AcDbEntity
  8
Survey
 62
256
370
-1
 48
1.0
  6
BYLAYER
100
AcDbPoint
 10
816660.9256151446606964
 20
987106.8528269863454625
 30
67.3049870277880302
  0
MTEXT
  5
1C4
100
AcDbEntity
  8
Survey
 62
256
370
-1
 48
1.0
  6
BYLAYER
100
AcDbMText
 10
816660.9256151446606964
 20
987106.8528269863454625
 30
67.3049870277880302
 40
0.5
 41
6.5
 71
4
 72
0
  1
 197\P 67.305\P DL R 618-200
  7
standard
 50
0.0
 73
1
 44
1.0
  0
POINT
  5
1C5
100
AcDbEntity
  8
Survey
 62
256
370
-1
 48
1.0
  6
BYLAYER
100
AcDbPoint
 10
816667.5449674391420558
 20
987086.987659849692136
 30
67.2913731092403253
  0
MTEXT
  5
1C6
100
AcDbEntity
  8
Survey
 62
256
370
-1
 48
1.0
  6
BYLAYER
100
AcDbMText
 10
816667.5449674391420558
 20
987086.987659849692136
 30
67.2913731092403253
 40
0.5
 41
6.5
 71
4
 72
0
  1
 198\P 67.291\P DL R 618-220
  7
standard
 50
0.0
 73
1
 44
1.0
  0
POINT
  5
1C7
100
AcDbEntity
  8
Survey
 62
256
370
-1
 48
1.0
  6
BYLAYER
100
AcDbPoint
 10
816673.8705797933507711
 20
987067.9059314413461834
 30
67.357741102199725
  0
MTEXT
  5
1C8
100
AcDbEntity
  8
Survey
 62
256
370
-1
 48
1.0
  6
BYLAYER
100
AcDbMText
 10
816673.8705797933507711
 20
987067.9059314413461834
 30
67.357741102199725
 40
0.5
 41
6.5
 71
4
 72
0
  1
 199\P 67.358\P DL R 618-240
  7
standard
 50
0.0
 73
1
 44
1.0
  0
POINT
  5
1C9
100
AcDbEntity
  8
Survey
 62
256
370
-1
 48
1.0
  6
BYLAYER
100
AcDbPoint
 10
816680.6924968296661973
 20
987047.5308095930377021
 30
67.3562191195528897
  0
MTEXT
  5
1CA
100
AcDbEntity
  8
Survey
 62
256
370
-1
 48
1.0
  6
BYLAYER
100
AcDbMText
 10
816680.6924968296661973
 20
987047.5308095930377021
 30
67.3562191195528897
 40
0.5
 41
6.5
 71
4
 72
0
  1
 200\P 67.356\P DL R 618-260
  7
standard
 50
0.0
 73
1
 44
1.0
  0
POINT
  5
1CB
100
AcDbEntity
  8
Survey
 62
256
370
-1
 48
1.0
  6
BYLAYER
100
AcDbPoint
 10
816687.0654817055910826
 20
987028.402624009991996
 30
67.3441916262146663
  0
MTEXT
  5
1CC
100
AcDbEntity
  8
Survey
 62
256
370
-1
 48
1.0
  6
BYLAYER
100
AcDbMText
 10
816687.0654817055910826
 20
987028.402624009991996
 30
67.3441916262146663
 40
0.5
 41
6.5
 71
4
 72
0
  1
 201\P 67.344\P DL R 618-280
  7
standard
 50
0.0
 73
1
 44
1.0
  0
POINT
  5
1CD
100
AcDbEntity
  8
Survey
 62
256
370
-1
 48
1.0
  6
BYLAYER
100
AcDbPoint
 10
816693.3606521739857271
 20
987009.5275493268854916
 30
67.3550064660865644
  0
MTEXT
  5
1CE
100
AcDbEntity
  8
Survey
 62
256
370
-1
 48
1.0
  6
BYLAYER
100
AcDbMText
 10
816693.3606521739857271
 20
987009.5275493268854916
 30
67.3550064660865644
 40
0.5
 41
6.5
 71
4
 72
0
  1
 202\P 67.355\P DL R 618-300
  7
standard
 50
0.0
 73
1
 44
1.0
  0
POINT
  5
1CF
100
AcDbEntity
  8
Survey
 62
256
370
-1
 48
1.0
  6
BYLAYER
100
AcDbPoint
 10
816699.7269189406652004
 20
986990.4288660539314151
 30
67.3370894665007995
  0
MTEXT
  5
1D0
100
AcDbEntity
  8
Survey
 62
256
370
-1
 48
1.0
  6
BYLAYER
100
AcDbMText
 10
816699.7269189406652004
 20
986990.4288660539314151
 30
67.3370894665007995
 40
0.5
 41
6.5
 71
4
 72
0
  1
 203\P 67.337\P DL R 618-320
  7
standard
 50
0.0
 73
1
 44
1.0
  0
POINT
  5
1D1
100
AcDbEntity
  8
Survey
 62
256
370
-1
 48
1.0
  6
BYLAYER
100
AcDbPoint
 10
816706.134897944284603
 20
986971.2609893050976098
 30
67.3358382247140526
  0
MTEXT
  5
1D2
100
AcDbEntity
  8
Survey
 62
256
370
-1
 48
1.0
  6
BYLAYER
100
AcDbMText
 10
816706.134897944284603
 20
986971.2609893050976098
 30
67.3358382247140526
 40
0.5
 41
6.5
 71
4
 72
0
  1
 204\P 67.336\P DL R 618-340
  7
standard
 50
0.0
 73
1
 44
1.0
  0
POINT
  5
1D3
100
AcDbEntity
  8
Survey
 62
256
370
-1
 48
1.0
  6
BYLAYER
100
AcDbPoint
 10
816712.4356506816111505
 20
986952.2924166064476594
 30
67.3451110933229273
  0
MTEXT
  5
1D4
100
AcDbEntity
  8
Survey
 62
256
370
-1
 48
1.0
  6
BYLAYER
100
AcDbMText
 10
816712.4356506816111505
 20
986952.2924166064476594
 30
67.3451110933229273
 40
0.5
 41
6.5
 71
4
 72
0
  1
 205\P 67.345\P DL R 618-360
  7
standard
 50
0.0
 73
1
 44
1.0
  0
POINT
  5
1D5
100
AcDbEntity
  8
Survey
 62
256
370
-1
 48
1.0
  6
BYLAYER
100
AcDbPoint
 10
816718.865968871046789
 20
986933.1262622905196622
 30
67.3827576364584502
  0
MTEXT
  5
1D6
100
AcDbEntity
  8
Survey
 62
256
370
-1
 48
1.0
  6
BYLAYER
100
AcDbMText
 10
816718.865968871046789
 20
986933.1262622905196622
 30
67.3827576364584502
 40
0.5
 41
6.5
 71
4
 72
0
  1
 206\P 67.383\P DL R 618-380
  7
standard
 50
0.0
 73
1
 44
1.0
  0
POINT
  5
1D7
100
AcDbEntity
  8
Survey
 62
256
370
-1
 48
1.0
  6
BYLAYER
100
AcDbPoint
 10
816725.0491900001652539
 20
986914.5496367492014542
 30
67.3987817101711499
  0
MTEXT
  5
1D8
100
AcDbEntity
  8
Survey
 62
256
370
-1
 48
1.0
  6
BYLAYER
100
AcDbMText
 10
816725.0491900001652539
 20
986914.5496367492014542
 30
67.3987817101711499
 40
0.5
 41
6.5
 71
4
 72
0
  1
 207\P 67.399\P DL R 618-400
  7
standard
 50
0.0
 73
1
 44
1.0
  0
POINT
  5
1D9
100
AcDbEntity
  8
Survey
 62
256
370
-1
 48
1.0
  6
BYLAYER
100
AcDbPoint
 10
816731.4497540415031835
 20
986895.4732459218939766
 30
67.4459796556817395
  0
MTEXT
  5
1DA
100
AcDbEntity
  8
Survey
 62
256
370
-1
 48
1.0
  6
BYLAYER
100
AcDbMText
 10
816731.4497540415031835
 20
986895.4732459218939766
 30
67.4459796556817395
 40
0.5
 41
6.5
 71
4
 72
0
  1
 208\P 67.446\P DL R 618-420
  7
standard
 50
0.0
 73
1
 44
1.0
  0
POINT
  5
1DB
100
AcDbEntity
  8
Survey
 62
256
370
-1
 48
1.0
  6
BYLAYER
100
AcDbPoint
 10
816737.8087885060813278
 20
986876.4716940611833706
 30
67.4949542896944479
  0
MTEXT
  5
1DC
100
AcDbEntity
  8
Survey
 62
256
370
-1
 48
1.0
  6
BYLAYER
100
AcDbMText
 10
816737.8087885060813278
 20
986876.4716940611833706
 30
67.4949542896944479
 40
0.5
 41
6.5
 71
4
 72
0
  1
 209\P 67.495\P DL R 618-440
  7
standard
 50
0.0
 73
1
 44
1.0
  0
POINT
  5
1DD
100
AcDbEntity
  8
Survey
 62
256
370
-1
 48
1.0
  6
BYLAYER
100
AcDbPoint
 10
816744.1497579490533099
 20
986857.4438759991899133
 30
67.4959284424002419
  0
MTEXT
  5
1DE
100
AcDbEntity
  8
Survey
 62
256
370
-1
 48
1.0
  6
BYLAYER
100
AcDbMText
 10
816744.1497579490533099
 20
986857.4438759991899133
 30
67.4959284424002419
 40
0.5
 41
6.5
 71
4
 72
0
  1
 210\P 67.496\P DL R 618-460
  7
standard
 50
0.0
 73
1
 44
1.0
  0
POINT
  5
1DF
100
AcDbEntity
  8
Survey
 62
256
370
-1
 48
1.0
  6
BYLAYER
100
AcDbPoint
 10
816750.6292718157637864
 20
986838.0693261588457972
 30
67.4628592968400653
  0
MTEXT
  5
1E0
100
AcDbEntity
  8
Survey
 62
256
370
-1
 48
1.0
  6
BYLAYER
100
AcDbMText
 10
816750.6292718157637864
 20
986838.0693261588457972
 30
67.4628592968400653
 40
0.5
 41
6.5
 71
4
 72
0
  1
 211\P 67.463\P DL R 618-480
  7
standard
 50
0.0
 73
1
 44
1.0
  0
POINT
  5
1E1
100
AcDbEntity
  8
Survey
 62
256
370
-1
 48
1.0
  6
BYLAYER
100
AcDbPoint
 10
816756.4051422541961074
 20
986820.871578085119836
 30
67.4628128957820223
  0
MTEXT
  5
1E2
100
AcDbEntity
  8
Survey
 62
256
370
-1
 48
1.0
  6
BYLAYER
100
AcDbMText
 10
816756.4051422541961074
 20
986820.871578085119836
 30
67.4628128957820223
 40
0.5
 41
6.5
 71
4
 72
0
  1
 212\P 67.463\P DL R 618-500
  7
standard
 50
0.0
 73
1
 44
1.0
  0
POINT
  5
1E3
100
AcDbEntity
  8
Survey
 62
256
370
-1
 48
1.0
  6
BYLAYER
100
AcDbPoint
 10
816757.7942634617211297
 20
986822.0673149633221328
 30
67.4689225211137114
  0
MTEXT
  5
1E4
100
AcDbEntity
  8
Survey
 62
256
370
-1
 48
1.0
  6
BYLAYER
100
AcDbMText
 10
816757.7942634617211297
 20
986822.0673149633221328
 30
67.4689225211137114
 40
0.5
 41
6.5
 71
4
 72
0
  1
 213\P 67.469\P DL L 618-500
  7
standard
 50
0.0
 73
1
 44
1.0
  0
POINT
  5
1E5
100
AcDbEntity
  8
Survey
 62
256
370
-1
 48
1.0
  6
BYLAYER
100
AcDbPoint
 10
816757.0507442957023159
 20
986821.8754350321833044
 30
67.2673411924164952
  0
MTEXT
  5
1E6
100
AcDbEntity
  8
Survey
 62
256
370
-1
 48
1.0
  6
BYLAYER
100
AcDbMText
 10
816757.0507442957023159
 20
986821.8754350321833044
 30
67.2673411924164952
 40
0.5
 41
7.0
 71
4
 72
0
  1
 214\P 67.267\P XMARK 618.500
  7
standard
 50
0.0
 73
1
 44
1.0
  0
POINT
  5
1E7
100
AcDbEntity
  8
Survey
 62
256
370
-1
 48
1.0
  6
BYLAYER
100
AcDbPoint
 10
816759.8760382402688265
 20
986823.0043288101442158
 30
66.7201764776733341
  0
MTEXT
  5
1E8
100
AcDbEntity
  8
Survey
 62
256
370
-1
 48
1.0
  6
BYLAYER
100
AcDbMText
 10
816759.8760382402688265
 20
986823.0043288101442158
 30
66.7201764776733341
 40
0.5
 41
5.5
 71
4
 72
0
  1
 215\P 66.72\P HM 618.500
  7
standard
 50
0.0
 73
1
 44
1.0
  0
POINT
  5
1E9
100
AcDbEntity
  8
Survey
 62
256
370
-1
 48
1.0
  6
BYLAYER
100
AcDbPoint
 10
816764.5644925211090595
 20
986809.0751879960298538
 30
67.2670720068414738
  0
MTEXT
  5
1EA
100
AcDbEntity
  8
Survey
 62
256
370
-1
 48
1.0
  6
BYLAYER
100
AcDbMText
 10
816764.5644925211090595
 20
986809.0751879960298538
 30
67.2670720068414738
 40
0.5
 41
6.0
 71
4
 72
0
  1
 216\P 67.267\P MAST 618.18
  7
standard
 50
0.0
 73
1
 44
1.0
  0
POINT
  5
1EB
100
AcDbEntity
  8
Survey
 62
256
370
-1
 48
1.0
  6
BYLAYER
100
AcDbPoint
 10
816761.8411953339818865
 20
986804.535726661561057
 30
67.4763035863146712
  0
MTEXT
  5
1EC
100
AcDbEntity
  8
Survey
 62
256
370
-1
 48
1.0
  6
BYLAYER
100
AcDbMText
 10
816761.8411953339818865
 20
986804.535726661561057
 30
67.4763035863146712
 40
0.5
 41
6.5
 71
4
 72
0
  1
 217\P 67.476\P DL R 618-520
  7
standard
 50
0.0
 73
1
 44
1.0
  0
POINT
  5
1ED
100
AcDbEntity
  8
Survey
 62
256
370
-1
 48
1.0
  6
BYLAYER
100
AcDbPoint
 10
816768.2505747063551098
 20
986785.3759343402925879
 30
67.4814461144040649
  0
MTEXT
  5
1EE
100
AcDbEntity
  8
Survey
 62
256
370
-1
 48
1.0
  6
BYLAYER
100
AcDbMText
 10
816768.2505747063551098
 20
986785.3759343402925879
 30
67.4814461144040649
 40
0.5
 41
6.5
 71
4
 72
0
  1
 218\P 67.481\P DL R 618-540
  7
standard
 50
0.0
 73
1
 44
1.0
  0
POINT
  5
1EF
100
AcDbEntity
  8
Survey
 62
256
370
-1
 48
1.0
  6
BYLAYER
100
AcDbPoint
 10
816774.7231025024084374
 20
986766.0519158560782671
 30
67.5022328131570788
  0
MTEXT
  5
1F0
100
AcDbEntity
  8
Survey
 62
256
370
-1
 48
1.0
  6
BYLAYER
100
AcDbMText
 10
816774.7231025024084374
 20
986766.0519158560782671
 30
67.5022328131570788
 40
0.5
 41
6.5
 71
4
 72
0
  1
 219\P 67.502\P DL R 618-560
  7
standard
 50
0.0
 73
1
 44
1.0
  0
POINT
  5
1F1
100
AcDbEntity
  8
Survey
 62
256
370
-1
 48
1.0
  6
BYLAYER
100
AcDbPoint
 10
816781.2053934128489345
 20
986746.6903355896938592
 30
67.5160637522135119
  0
MTEXT
  5
1F2
100
AcDbEntity
  8
Survey
 62
256
370
-1
 48
1.0
  6
BYLAYER
100
AcDbMText
 10
816781.2053934128489345
 20
986746.6903355896938592
 30
67.5160637522135119
 40
0.5
 41
6.5
 71
4
 72
0
  1
 220\P 67.516\P DL R 618-580
  7
standard
 50
0.0
 73
1
 44
1.0
  0
POINT
  5
1F3
100
AcDbEntity
  8
Survey
 62
256
370
-1
 48
1.0
  6
BYLAYER
100
AcDbPoint
 10
816787.6481204822193831
 20
986727.433830022579059
 30
67.5484914960188121
  0
MTEXT
  5
1F4
100
AcDbEntity
  8
Survey
 62
256
370
-1
 48
1.0
  6
BYLAYER
100
AcDbMText
 10
816787.6481204822193831
 20
986727.433830022579059
 30
67.5484914960188121
 40
0.5
 41
6.5
 71
4
 72
0
  1
 221\P 67.548\P DL R 618-600
  7
standard
 50
0.0
 73
1
 44
1.0
  0
POINT
  5
1F5
100
AcDbEntity
  8
Survey
 62
256
370
-1
 48
1.0
  6
BYLAYER
100
AcDbPoint
 10
816794.0074163358658552
 20
986708.4589516507694498
 30
67.5552605113343958
  0
MTEXT
  5
1F6
100
AcDbEntity
  8
Survey
 62
256
370
-1
 48
1.0
  6
BYLAYER
100
AcDbMText
 10
816794.0074163358658552
 20
986708.4589516507694498
 30
67.5552605113343958
 40
0.5
 41
6.5
 71
4
 72
0
  1
 222\P 67.555\P DL R 618-620
  7
standard
 50
0.0
 73
1
 44
1.0
  0
POINT
  5
1F7
100
AcDbEntity
  8
Survey
 62
256
370
-1
 48
1.0
  6
BYLAYER
100
AcDbPoint
 10
816800.446755587705411
 20
986689.2142627650173381
 30
67.5782927298668028
  0
MTEXT
  5
1F8
100
AcDbEntity
  8
Survey
 62
256
370
-1
 48
1.0
  6
BYLAYER
100
AcDbMText
 10
816800.446755587705411
 20
986689.2142627650173381
 30
67.5782927298668028
 40
0.5
 41
6.5
 71
4
 72
0
  1
 223\P 67.578\P DL R 618-640
  7
standard
 50
0.0
 73
1
 44
1.0
  0
POINT
  5
1F9
100
AcDbEntity
  8
Survey
 62
256
370
-1
 48
1.0
  6
BYLAYER
100
AcDbPoint
 10
816806.8701582883950323
 20
986670.150328503572382
 30
67.6282589503931462
  0
MTEXT
  5
1FA
100
AcDbEntity
  8
Survey
 62
256
370
-1
 48
1.0
  6
BYLAYER
100
AcDbMText
 10
816806.8701582883950323
 20
986670.150328503572382
 30
67.6282589503931462
 40
0.5
 41
6.5
 71
4
 72
0
  1
 224\P 67.628\P DL R 618-660
  7
standard
 50
0.0
 73
1
 44
1.0
  0
POINT
  5
1FB
100
AcDbEntity
  8
Survey
 62
256
370
-1
 48
1.0
  6
BYLAYER
100
AcDbPoint
 10
816813.2256925138644874
 20
986651.0803294131765142
 30
67.6436911981707141
  0
MTEXT
  5
1FC
100
AcDbEntity
  8
Survey
 62
256
370
-1
 48
1.0
  6
BYLAYER
100
AcDbMText
 10
816813.2256925138644874
 20
986651.0803294131765142
 30
67.6436911981707141
 40
0.5
 41
6.5
 71
4
 72
0
  1
 225\P 67.644\P DL R 618-680
  7
standard
 50
0.0
 73
1
 44
1.0
  0
POINT
  5
1FD
100
AcDbEntity
  8
Survey
 62
256
370
-1
 48
1.0
  6
BYLAYER
100
AcDbPoint
 10
816819.7124454501317814
 20
986631.6855700680753216
 30
67.6462013726170426
  0
MTEXT
  5
1FE
100
AcDbEntity
  8
Survey
 62
256
370
-1
 48
1.0
  6
BYLAYER
100
AcDbMText
 10
816819.7124454501317814
 20
986631.6855700680753216
 30
67.6462013726170426
 40
0.5
 41
6.5
 71
4
 72
0
  1
 226\P 67.646\P DL R 618-700
  7
standard
 50
0.0
 73
1
 44
1.0
  0
POINT
  5
1FF
100
AcDbEntity
  8
Survey
 62
256
370
-1
 48
1.0
  6
BYLAYER
100
AcDbPoint
 10
816826.1428305327426642
 20
986612.4756779958261177
 30
67.6915392373950624
  0
MTEXT
  5
200
100
AcDbEntity
  8
Survey
 62
256
370
-1
 48
1.0
  6
BYLAYER
100
AcDbMText
 10
816826.1428305327426642
 20
986612.4756779958261177
 30
67.6915392373950624
 40
0.5
 41
6.5
 71
4
 72
0
  1
 227\P 67.692\P DL R 618-720
  7
standard
 50
0.0
 73
1
 44
1.0
  0
POINT
  5
201
100
AcDbEntity
  8
Survey
 62
256
370
-1
 48
1.0
  6
BYLAYER
100
AcDbPoint
 10
816832.8991102477302775
 20
986592.270499182282947
 30
67.7058726638806405
  0
MTEXT
  5
202
100
AcDbEntity
  8
Survey
 62
256
370
-1
 48
1.0
  6
BYLAYER
100
AcDbMText
 10
816832.8991102477302775
 20
986592.270499182282947
 30
67.7058726638806405
 40
0.5
 41
6.5
 71
4
 72
0
  1
 228\P 67.706\P DL R 618-740
  7
standard
 50
0.0
 73
1
 44
1.0
  0
POINT
  5
203
100
AcDbEntity
  8
Survey
 62
256
370
-1
 48
1.0
  6
BYLAYER
100
AcDbPoint
 10
816839.487612561439164
 20
986572.5901564464438707
 30
67.7143118527704502
  0
MTEXT
  5
204
100
AcDbEntity
  8
Survey
 62
256
370
-1
 48
1.0
  6
BYLAYER
100
AcDbMText
 10
816839.487612561439164
 20
986572.5901564464438707
 30
67.7143118527704502
 40
0.5
 41
6.5
 71
4
 72
0
  1
 229\P 67.714\P DL R 618-760
  7
standard
 50
0.0
 73
1
 44
1.0
  0
POINT
  5
205
100
AcDbEntity
  8
Survey
 62
256
370
-1
 48
1.0
  6
BYLAYER
100
AcDbPoint
 10
816845.8890830164309591
 20
986553.4333927433472127
 30
67.7123567819152044
  0
MTEXT
  5
206
100
AcDbEntity
  8
Survey
 62
256
370
-1
 48
1.0
  6
BYLAYER
100
AcDbMText
 10
816845.8890830164309591
 20
986553.4333927433472127
 30
67.7123567819152044
 40
0.5
 41
6.5
 71
4
 72
0
  1
 230\P 67.712\P DL R 618-780
  7
standard
 50
0.0
 73
1
 44
1.0
  0
POINT
  5
207
100
AcDbEntity
  8
Survey
 62
256
370
-1
 48
1.0
  6
BYLAYER
100
AcDbPoint
 10
816852.2238761489279568
 20
986534.4989424261730164
 30
67.7201353874290533
  0
MTEXT
  5
208
100
AcDbEntity
  8
Survey
 62
256
370
-1
 48
1.0
  6
BYLAYER
100
AcDbMText
 10
816852.2238761489279568
 20
986534.4989424261730164
 30
67.7201353874290533
 40
0.5
 41
6.5
 71
4
 72
0
  1
 231\P 67.72\P DL R 618-800
  7
standard
 50
0.0
 73
1
 44
1.0
  0
POINT
  5
209
100
AcDbEntity
  8
Survey
 62
256
370
-1
 48
1.0
  6
BYLAYER
100
AcDbPoint
 10
816858.5224189904984087
 20
986515.7104401026153937
 30
67.722883274186529
  0
MTEXT
  5
20A
100
AcDbEntity
  8
Survey
 62
256
370
-1
 48
1.0
  6
BYLAYER
100
AcDbMText
 10
816858.5224189904984087
 20
986515.7104401026153937
 30
67.722883274186529
 40
0.5
 41
6.5
 71
4
 72
0
  1
 232\P 67.723\P DL R 618-820
  7
standard
 50
0.0
 73
1
 44
1.0
  0
POINT
  5
20B
100
AcDbEntity
  8
Survey
 62
256
370
-1
 48
1.0
  6
BYLAYER
100
AcDbPoint
 10
816864.8720887911040336
 20
986496.7183202006854117
 30
67.7447756360886757
  0
MTEXT
  5
20C
100
AcDbEntity
  8
Survey
 62
256
370
-1
 48
1.0
  6
BYLAYER
100
AcDbMText
 10
816864.8720887911040336
 20
986496.7183202006854117
 30
67.7447756360886757
 40
0.5
 41
6.5
 71
4
 72
0
  1
 233\P 67.745\P DL R 618-840
  7
standard
 50
0.0
 73
1
 44
1.0
  0
POINT
  5
20D
100
AcDbEntity
  8
Survey
 62
256
370
-1
 48
1.0
  6
BYLAYER
100
AcDbPoint
 10
816871.1984420539811254
 20
986477.836936644394882
 30
67.760579634762621
  0
MTEXT
  5
20E
100
AcDbEntity
  8
Survey
 62
256
370
-1
 48
1.0
  6
BYLAYER
100
AcDbMText
 10
816871.1984420539811254
 20
986477.836936644394882
 30
67.760579634762621
 40
0.5
 41
6.5
 71
4
 72
0
  1
 234\P 67.761\P DL R 618-860
  7
standard
 50
0.0
 73
1
 44
1.0
  0
POINT
  5
20F
100
AcDbEntity
  8
Survey
 62
256
370
-1
 48
1.0
  6
BYLAYER
100
AcDbPoint
 10
816877.2964400299824774
 20
986459.5834192204056308
 30
67.7539175370646376
  0
MTEXT
  5
210
100
AcDbEntity
  8
Survey
 62
256
370
-1
 48
1.0
  6
BYLAYER
100
AcDbMText
 10
816877.2964400299824774
 20
986459.5834192204056308
 30
67.7539175370646376
 40
0.5
 41
6.5
 71
4
 72
0
  1
 235\P 67.754\P DL R 618-880
  7
standard
 50
0.0
 73
1
 44
1.0
  0
POINT
  5
211
100
AcDbEntity
  8
Survey
 62
256
370
-1
 48
1.0
  6
BYLAYER
100
AcDbPoint
 10
816883.4056938568828627
 20
986441.256153623922728
 30
67.7481634167858147
  0
MTEXT
  5
212
100
AcDbEntity
  8
Survey
 62
256
370
-1
 48
1.0
  6
BYLAYER
100
AcDbMText
 10
816883.4056938568828627
 20
986441.256153623922728
 30
67.7481634167858147
 40
0.5
 41
6.5
 71
4
 72
0
  1
 236\P 67.748\P DL R 618-900
  7
standard
 50
0.0
 73
1
 44
1.0
  0
POINT
  5
213
100
AcDbEntity
  8
Survey
 62
256
370
-1
 48
1.0
  6
BYLAYER
100
AcDbPoint
 10
816890.0002255160361528
 20
986421.5824935679556802
 30
67.7600212447225658
  0
MTEXT
  5
214
100
AcDbEntity
  8
Survey
 62
256
370
-1
 48
1.0
  6
BYLAYER
100
AcDbMText
 10
816890.0002255160361528
 20
986421.5824935679556802
 30
67.7600212447225658
 40
0.5
 41
6.5
 71
4
 72
0
  1
 237\P 67.76\P DL R 618-920
  7
standard
 50
0.0
 73
1
 44
1.0
  0
POINT
  5
215
100
AcDbEntity
  8
Survey
 62
256
370
-1
 48
1.0
  6
BYLAYER
100
AcDbPoint
 10
816896.5000335214426741
 20
986402.1562779607484117
 30
67.7376457439460467
  0
MTEXT
  5
216
100
AcDbEntity
  8
Survey
 62
256
370
-1
 48
1.0
  6
BYLAYER
100
AcDbMText
 10
816896.5000335214426741
 20
986402.1562779607484117
 30
67.7376457439460467
 40
0.5
 41
6.5
 71
4
 72
0
  1
 238\P 67.738\P DL R 618-940
  7
standard
 50
0.0
 73
1
 44
1.0
  0
POINT
  5
217
100
AcDbEntity
  8
Survey
 62
256
370
-1
 48
1.0
  6
BYLAYER
100
AcDbPoint
 10
816902.883582626702264
 20
986383.0146439798409119
 30
67.7319119154563509
  0
MTEXT
  5
218
100
AcDbEntity
  8
Survey
 62
256
370
-1
 48
1.0
  6
BYLAYER
100
AcDbMText
 10
816902.883582626702264
 20
986383.0146439798409119
 30
67.7319119154563509
 40
0.5
 41
6.5
 71
4
 72
0
  1
 239\P 67.732\P DL R 618-960
  7
standard
 50
0.0
 73
1
 44
1.0
  0
POINT
  5
219
100
AcDbEntity
  8
Survey
 62
256
370
-1
 48
1.0
  6
BYLAYER
100
AcDbPoint
 10
816909.2674229230033234
 20
986363.8502078129677102
 30
67.7401249802469181
  0
MTEXT
  5
21A
100
AcDbEntity
  8
Survey
 62
256
370
-1
 48
1.0
  6
BYLAYER
100
AcDbMText
 10
816909.2674229230033234
 20
986363.8502078129677102
 30
67.7401249802469181
 40
0.5
 41
6.5
 71
4
 72
0
  1
 240\P 67.74\P DL R 618-980
  7
standard
 50
0.0
 73
1
 44
1.0
  0
POINT
  5
21B
100
AcDbEntity
  8
Survey
 62
256
370
-1
 48
1.0
  6
BYLAYER
100
AcDbPoint
 10
816915.2944046267075464
 20
986345.8268259858014062
 30
67.7325051367666617
  0
MTEXT
  5
21C
100
AcDbEntity
  8
Survey
 62
256
370
-1
 48
1.0
  6
BYLAYER
100
AcDbMText
 10
816915.2944046267075464
 20
986345.8268259858014062
 30
67.7325051367666617
 40
0.5
 41
6.5
 71
4
 72
0
  1
 241\P 67.733\P DL R 619-000
  7
standard
 50
0.0
 73
1
 44
1.0
  0
POINT
  5
21D
100
AcDbEntity
  8
Survey
 62
256
370
-1
 48
1.0
  6
BYLAYER
100
AcDbPoint
 10
816916.8713595953304321
 20
986346.5825670276535675
 30
67.7394692538013032
  0
MTEXT
  5
21E
100
AcDbEntity
  8
Survey
 62
256
370
-1
 48
1.0
  6
BYLAYER
100
AcDbMText
 10
816916.8713595953304321
 20
986346.5825670276535675
 30
67.7394692538013032
 40
0.5
 41
6.5
 71
4
 72
0
  1
 242\P 67.739\P DL L 619-000
  7
standard
 50
0.0
 73
1
 44
1.0
  0
POINT
  5
21F
100
AcDbEntity
  8
Survey
 62
256
370
-1
 48
1.0
  6
BYLAYER
100
AcDbPoint
 10
816915.99223024235107
 20
986346.8682855933438987
 30
67.5270047256612855
  0
MTEXT
  5
220
100
AcDbEntity
  8
Survey
 62
256
370
-1
 48
1.0
  6
BYLAYER
100
AcDbMText
 10
816915.99223024235107
 20
986346.8682855933438987
 30
67.5270047256612855
 40
0.5
 41
7.0
 71
4
 72
0
  1
 243\P 67.527\P XMARK 619.000
  7
standard
 50
0.0
 73
1
 44
1.0
  0
POINT
  5
221
100
AcDbEntity
  8
Survey
 62
256
370
-1
 48
1.0
  6
BYLAYER
100
AcDbPoint
 10
816920.1488410894526169
 20
986343.4416201384738088
 30
67.5385677886489191
  0
MTEXT
  5
222
100
AcDbEntity
  8
Survey
 62
256
370
-1
 48
1.0
  6
BYLAYER
100
AcDbMText
 10
816920.1488410894526169
 20
986343.4416201384738088
 30
67.5385677886489191
 40
0.5
 41
5.5
 71
4
 72
0
  1
 244\P 67.539\P MAST 619.2
  7
standard
 50
0.0
 73
1
 44
1.0
  0
POINT
  5
223
100
AcDbEntity
  8
Survey
 62
256
370
-1
 48
1.0
  6
BYLAYER
100
AcDbPoint
 10
816921.6714969715103507
 20
986326.7945085880346596
 30
67.7563410955894199
  0
MTEXT
  5
224
100
AcDbEntity
  8
Survey
 62
256
370
-1
 48
1.0
  6
BYLAYER
100
AcDbMText
 10
816921.6714969715103507
 20
986326.7945085880346596
 30
67.7563410955894199
 40
0.5
 41
6.5
 71
4
 72
0
  1
 245\P 67.756\P DL R 619-020
  7
standard
 50
0.0
 73
1
 44
1.0
  0
POINT
  5
225
100
AcDbEntity
  8
Survey
 62
256
370
-1
 48
1.0
  6
BYLAYER
100
AcDbPoint
 10
816928.1756985171232373
 20
986307.2305049531860277
 30
67.7208584484010601
  0
MTEXT
  5
226
100
AcDbEntity
  8
Survey
 62
256
370
-1
 48
1.0
  6
BYLAYER
100
AcDbMText
 10
816928.1756985171232373
 20
986307.2305049531860277
 30
67.7208584484010601
 40
0.5
 41
6.5
 71
4
 72
0
  1
 246\P 67.721\P DL R 619-040
  7
standard
 50
0.0
 73
1
 44
1.0
  0
POINT
  5
227
100
AcDbEntity
  8
Survey
 62
256
370
-1
 48
1.0
  6
BYLAYER
100
AcDbPoint
 10
816934.638070399640128
 20
986287.991514471359551
 30
67.7109292570902426
  0
MTEXT
  5
228
100
AcDbEntity
  8
Survey
 62
256
370
-1
 48
1.0
  6
BYLAYER
100
AcDbMText
 10
816934.638070399640128
 20
986287.991514471359551
 30
67.7109292570902426
 40
0.5
 41
6.5
 71
4
 72
0
  1
 247\P 67.711\P DL R 619-060
  7
standard
 50
0.0
 73
1
 44
1.0
  0
POINT
  5
229
100
AcDbEntity
  8
Survey
 62
256
370
-1
 48
1.0
  6
BYLAYER
100
AcDbPoint
 10
816941.1199345575878397
 20
986268.6107609365135431
 30
67.7041430595691907
  0
MTEXT
  5
22A
100
AcDbEntity
  8
Survey
 62
256
370
-1
 48
1.0
  6
BYLAYER
100
AcDbMText
 10
816941.1199345575878397
 20
986268.6107609365135431
 30
67.7041430595691907
 40
0.5
 41
6.5
 71
4
 72
0
  1
 248\P 67.704\P DL R 619-080
  7
standard
 50
0.0
 73
1
 44
1.0
  0
POINT
  5
22B
100
AcDbEntity
  8
Survey
 62
256
370
-1
 48
1.0
  6
BYLAYER
100
AcDbPoint
 10
816947.1781128412112594
 20
986250.4708328581182286
 30
67.7042813888626824
  0
MTEXT
  5
22C
100
AcDbEntity
  8
Survey
 62
256
370
-1
 48
1.0
  6
BYLAYER
100
AcDbMText
 10
816947.1781128412112594
 20
986250.4708328581182286
 30
67.7042813888626824
 40
0.5
 41
6.5
 71
4
 72
0
  1
 249\P 67.704\P DL R 619-100
  7
standard
 50
0.0
 73
1
 44
1.0
  0
POINT
  5
22D
100
AcDbEntity
  8
Survey
 62
256
370
-1
 48
1.0
  6
BYLAYER
100
AcDbPoint
 10
816953.5871190931648016
 20
986231.2300956106046215
 30
67.7694489944396992
  0
MTEXT
  5
22E
100
AcDbEntity
  8
Survey
 62
256
370
-1
 48
1.0
  6
BYLAYER
100
AcDbMText
 10
816953.5871190931648016
 20
986231.2300956106046215
 30
67.7694489944396992
 40
0.5
 41
6.5
 71
4
 72
0
  1
 250\P 67.769\P DL R 619-120
  7
standard
 50
0.0
 73
1
 44
1.0
  0
POINT
  5
22F
100
AcDbEntity
  8
Survey
 62
256
370
-1
 48
1.0
  6
BYLAYER
100
AcDbPoint
 10
816959.989377208170481
 20
986212.0787486138287932
 30
67.7267670084038258
  0
MTEXT
  5
230
100
AcDbEntity
  8
Survey
 62
256
370
-1
 48
1.0
  6
BYLAYER
100
AcDbMText
 10
816959.989377208170481
 20
986212.0787486138287932
 30
67.7267670084038258
 40
0.5
 41
6.5
 71
4
 72
0
  1
 251\P 67.727\P DL R 619-140
  7
standard
 50
0.0
 73
1
 44
1.0
  0
POINT
  5
231
100
AcDbEntity
  8
Survey
 62
256
370
-1
 48
1.0
  6
BYLAYER
100
AcDbPoint
 10
816966.3888794356025755
 20
986192.9142063503386453
 30
67.7371921763637488
  0
MTEXT
  5
232
100
AcDbEntity
  8
Survey
 62
256
370
-1
 48
1.0
  6
BYLAYER
100
AcDbMText
 10
816966.3888794356025755
 20
986192.9142063503386453
 30
67.7371921763637488
 40
0.5
 41
6.5
 71
4
 72
0
  1
 252\P 67.737\P DL R 619-160
  7
standard
 50
0.0
 73
1
 44
1.0
  0
POINT
  5
233
100
AcDbEntity
  8
Survey
 62
256
370
-1
 48
1.0
  6
BYLAYER
100
AcDbPoint
 10
816972.908504854189232
 20
986173.4363295476650819
 30
67.7600344043760003
  0
MTEXT
  5
234
100
AcDbEntity
  8
Survey
 62
256
370
-1
 48
1.0
  6
BYLAYER
100
AcDbMText
 10
816972.908504854189232
 20
986173.4363295476650819
 30
67.7600344043760003
 40
0.5
 41
6.5
 71
4
 72
0
  1
 253\P 67.76\P DL R 619-180
  7
standard
 50
0.0
 73
1
 44
1.0
  0
POINT
  5
235
100
AcDbEntity
  8
Survey
 62
256
370
-1
 48
1.0
  6
BYLAYER
100
AcDbPoint
 10
816978.7735991794615984
 20
986155.8633244050433859
 30
67.7344868376963376
  0
MTEXT
  5
236
100
AcDbEntity
  8
Survey
 62
256
370
-1
 48
1.0
  6
BYLAYER
100
AcDbMText
 10
816978.7735991794615984
 20
986155.8633244050433859
 30
67.7344868376963376
 40
0.5
 41
6.5
 71
4
 72
0
  1
 254\P 67.734\P DL R 619-200
  7
standard
 50
0.0
 73
1
 44
1.0
  0
POINT
  5
237
100
AcDbEntity
  8
Survey
 62
256
370
-1
 48
1.0
  6
BYLAYER
100
AcDbPoint
 10
816985.1308769809547812
 20
986136.8493314686929807
 30
67.7321580141167487
  0
MTEXT
  5
238
100
AcDbEntity
  8
Survey
 62
256
370
-1
 48
1.0
  6
BYLAYER
100
AcDbMText
 10
816985.1308769809547812
 20
986136.8493314686929807
 30
67.7321580141167487
 40
0.5
 41
6.5
 71
4
 72
0
  1
 255\P 67.732\P DL R 619-220
  7
standard
 50
0.0
 73
1
 44
1.0
  0
POINT
  5
239
100
AcDbEntity
  8
Survey
 62
256
370
-1
 48
1.0
  6
BYLAYER
100
AcDbPoint
 10
816991.5752404981758446
 20
986117.6648783483542502
 30
67.7092510346796104
  0
MTEXT
  5
23A
100
AcDbEntity
  8
Survey
 62
256
370
-1
 48
1.0
  6
BYLAYER
100
AcDbMText
 10
816991.5752404981758446
 20
986117.6648783483542502
 30
67.7092510346796104
 40
0.5
 41
6.5
 71
4
 72
0
  1
 256\P 67.709\P DL R 619-240
  7
standard
 50
0.0
 73
1
 44
1.0
  0
POINT
  5
23B
100
AcDbEntity
  8
Survey
 62
256
370
-1
 48
1.0
  6
BYLAYER
100
AcDbPoint
 10
816997.959382897708565
 20
986098.5381818218156695
 30
67.6517807124473336
  0
MTEXT
  5
23C
100
AcDbEntity
  8
Survey
 62
256
370
-1
 48
1.0
  6
BYLAYER
100
AcDbMText
 10
816997.959382897708565
 20
986098.5381818218156695
 30
67.6517807124473336
 40
0.5
 41
6.5
 71
4
 72
0
  1
 257\P 67.652\P DL R 619-260
  7
standard
 50
0.0
 73
1
 44
1.0
  0
POINT
  5
23D
100
AcDbEntity
  8
Survey
 62
256
370
-1
 48
1.0
  6
BYLAYER
100
AcDbPoint
 10
817004.4050655825994909
 20
986079.2277635806240141
 30
67.6030555643241087
  0
MTEXT
  5
23E
100
AcDbEntity
  8
Survey
 62
256
370
-1
 48
1.0
  6
BYLAYER
100
AcDbMText
 10
817004.4050655825994909
 20
986079.2277635806240141
 30
67.6030555643241087
 40
0.5
 41
6.5
 71
4
 72
0
  1
 258\P 67.603\P DL R 619-280
  7
standard
 50
0.0
 73
1
 44
1.0
  0
POINT
  5
23F
100
AcDbEntity
  8
Survey
 62
256
370
-1
 48
1.0
  6
BYLAYER
100
AcDbPoint
 10
817010.4120302796363831
 20
986061.2927730673691258
 30
67.5929185582709096
  0
MTEXT
  5
240
100
AcDbEntity
  8
Survey
 62
256
370
-1
 48
1.0
  6
BYLAYER
100
AcDbMText
 10
817010.4120302796363831
 20
986061.2927730673691258
 30
67.5929185582709096
 40
0.5
 41
6.5
 71
4
 72
0
  1
 259\P 67.593\P DL R 619-300
  7
standard
 50
0.0
 73
1
 44
1.0
  0
POINT
  5
241
100
AcDbEntity
  8
Survey
 62
256
370
-1
 48
1.0
  6
BYLAYER
100
AcDbPoint
 10
817016.8729317316319793
 20
986041.9373073687311262
 30
67.5629749510303128
  0
MTEXT
  5
242
100
AcDbEntity
  8
Survey
 62
256
370
-1
 48
1.0
  6
BYLAYER
100
AcDbMText
 10
817016.8729317316319793
 20
986041.9373073687311262
 30
67.5629749510303128
 40
0.5
 41
6.5
 71
4
 72
0
  1
 260\P 67.563\P DL R 619-320
  7
standard
 50
0.0
 73
1
 44
1.0
  0
POINT
  5
243
100
AcDbEntity
  8
Survey
 62
256
370
-1
 48
1.0
  6
BYLAYER
100
AcDbPoint
 10
817023.2503262534737587
 20
986022.9012165552703664
 30
67.5114490984311999
  0
MTEXT
  5
244
100
AcDbEntity
  8
Survey
 62
256
370
-1
 48
1.0
  6
BYLAYER
100
AcDbMText
 10
817023.2503262534737587
 20
986022.9012165552703664
 30
67.5114490984311999
 40
0.5
 41
6.5
 71
4
 72
0
  1
 261\P 67.511\P DL R 619-340
  7
standard
 50
0.0
 73
1
 44
1.0
  0
POINT
  5
245
100
AcDbEntity
  8
Survey
 62
256
370
-1
 48
1.0
  6
BYLAYER
100
AcDbPoint
 10
817029.7093165684491396
 20
986003.5517120768781751
 30
67.4868186491043787
  0
MTEXT
  5
246
100
AcDbEntity
  8
Survey
 62
256
370
-1
 48
1.0
  6
BYLAYER
100
AcDbMText
 10
817029.7093165684491396
 20
986003.5517120768781751
 30
67.4868186491043787
 40
0.5
 41
6.5
 71
4
 72
0
  1
 262\P 67.487\P DL R 619-360
  7
standard
 50
0.0
 73
1
 44
1.0
  0
POINT
  5
247
100
AcDbEntity
  8
Survey
 62
256
370
-1
 48
1.0
  6
BYLAYER
100
AcDbPoint
 10
817036.0821709011215717
 20
985984.4634457544889301
 30
67.4496198456308349
  0
MTEXT
  5
248
100
AcDbEntity
  8
Survey
 62
256
370
-1
 48
1.0
  6
BYLAYER
100
AcDbMText
 10
817036.0821709011215717
 20
985984.4634457544889301
 30
67.4496198456308349
 40
0.5
 41
6.5
 71
4
 72
0
  1
 263\P 67.45\P DL R 619-380
  7
standard
 50
0.0
 73
1
 44
1.0
  0
POINT
  5
249
100
AcDbEntity
  8
Survey
 62
256
370
-1
 48
1.0
  6
BYLAYER
100
AcDbPoint
 10
817042.1781630287878215
 20
985966.1670539381448179
 30
67.4251058109950776
  0
MTEXT
  5
24A
100
AcDbEntity
  8
Survey
 62
256
370
-1
 48
1.0
  6
BYLAYER
100
AcDbMText
 10
817042.1781630287878215
 20
985966.1670539381448179
 30
67.4251058109950776
 40
0.5
 41
6.5
 71
4
 72
0
  1
 264\P 67.425\P DL R 619-400
  7
standard
 50
0.0
 73
1
 44
1.0
  0
POINT
  5
24B
100
AcDbEntity
  8
Survey
 62
256
370
-1
 48
1.0
  6
BYLAYER
100
AcDbPoint
 10
817048.5586073721060529
 20
985947.094453677884303
 30
67.3752704685468871
  0
MTEXT
  5
24C
100
AcDbEntity
  8
Survey
 62
256
370
-1
 48
1.0
  6
BYLAYER
100
AcDbMText
 10
817048.5586073721060529
 20
985947.094453677884303
 30
67.3752704685468871
 40
0.5
 41
6.5
 71
4
 72
0
  1
 265\P 67.375\P DL R 619-420
  7
standard
 50
0.0
 73
1
 44
1.0
  0
POINT
  5
24D
100
AcDbEntity
  8
Survey
 62
256
370
-1
 48
1.0
  6
BYLAYER
100
AcDbPoint
 10
817055.0002244538627565
 20
985927.8288301798747852
 30
67.3415272520064576
  0
MTEXT
  5
24E
100
AcDbEntity
  8
Survey
 62
256
370
-1
 48
1.0
  6
BYLAYER
100
AcDbMText
 10
817055.0002244538627565
 20
985927.8288301798747852
 30
67.3415272520064576
 40
0.5
 41
6.5
 71
4
 72
0
  1
 266\P 67.342\P DL R 619-440
  7
standard
 50
0.0
 73
1
 44
1.0
  0
POINT
  5
24F
100
AcDbEntity
  8
Survey
 62
256
370
-1
 48
1.0
  6
BYLAYER
100
AcDbPoint
 10
817061.4487061663530767
 20
985908.5162129353266209
 30
67.302896265250638
  0
MTEXT
  5
250
100
AcDbEntity
  8
Survey
 62
256
370
-1
 48
1.0
  6
BYLAYER
100
AcDbMText
 10
817061.4487061663530767
 20
985908.5162129353266209
 30
67.302896265250638
 40
0.5
 41
6.5
 71
4
 72
0
  1
 267\P 67.303\P DL R 619-460
  7
standard
 50
0.0
 73
1
 44
1.0
  0
POINT
  5
251
100
AcDbEntity
  8
Survey
 62
256
370
-1
 48
1.0
  6
BYLAYER
100
AcDbPoint
 10
817067.9524992564693093
 20
985889.0705248402664438
 30
67.2699854823567591
  0
MTEXT
  5
252
100
AcDbEntity
  8
Survey
 62
256
370
-1
 48
1.0
  6
BYLAYER
100
AcDbMText
 10
817067.9524992564693093
 20
985889.0705248402664438
 30
67.2699854823567591
 40
0.5
 41
6.5
 71
4
 72
0
  1
 268\P 67.27\P DL R 619-480
  7
standard
 50
0.0
 73
1
 44
1.0
  0
POINT
  5
253
100
AcDbEntity
  8
Survey
 62
256
370
-1
 48
1.0
  6
BYLAYER
100
AcDbPoint
 10
817073.8843623518478125
 20
985871.3545657502254471
 30
67.2355456048429119
  0
MTEXT
  5
254
100
AcDbEntity
  8
Survey
 62
256
370
-1
 48
1.0
  6
BYLAYER
100
AcDbMText
 10
817073.8843623518478125
 20
985871.3545657502254471
 30
67.2355456048429119
 40
0.5
 41
6.5
 71
4
 72
0
  1
 269\P 67.236\P DL R 619-500
  7
standard
 50
0.0
 73
1
 44
1.0
  0
POINT
  5
255
100
AcDbEntity
  8
Survey
 62
256
370
-1
 48
1.0
  6
BYLAYER
100
AcDbPoint
 10
817075.3227470538113266
 20
985872.4064503643894568
 30
67.2452087937639789
  0
MTEXT
  5
256
100
AcDbEntity
  8
Survey
 62
256
370
-1
 48
1.0
  6
BYLAYER
100
AcDbMText
 10
817075.3227470538113266
 20
985872.4064503643894568
 30
67.2452087937639789
 40
0.5
 41
6.5
 71
4
 72
0
  1
 270\P 67.245\P DL L 619-500
  7
standard
 50
0.0
 73
1
 44
1.0
  0
POINT
  5
257
100
AcDbEntity
  8
Survey
 62
256
370
-1
 48
1.0
  6
BYLAYER
100
AcDbPoint
 10
817074.5964529991615564
 20
985872.2618614439852536
 30
67.0435786077900531
  0
MTEXT
  5
258
100
AcDbEntity
  8
Survey
 62
256
370
-1
 48
1.0
  6
BYLAYER
100
AcDbMText
 10
817074.5964529991615564
 20
985872.2618614439852536
 30
67.0435786077900531
 40
0.5
 41
7.5
 71
4
 72
0
  1
 271\P 67.044\P  XMARK 619.500
  7
standard
 50
0.0
 73
1
 44
1.0
  0
POINT
  5
259
100
AcDbEntity
  8
Survey
 62
256
370
-1
 48
1.0
  6
BYLAYER
100
AcDbPoint
 10
817080.0733284662710503
 20
985852.7840323003474623
 30
67.2280720585661697
  0
MTEXT
  5
25A
100
AcDbEntity
  8
Survey
 62
256
370
-1
 48
1.0
  6
BYLAYER
100
AcDbMText
 10
817080.0733284662710503
 20
985852.7840323003474623
 30
67.2280720585661697
 40
0.5
 41
6.5
 71
4
 72
0
  1
 272\P 67.228\P DL R 619-520
  7
standard
 50
0.0
 73
1
 44
1.0
  0
POINT
  5
25B
100
AcDbEntity
  8
Survey
 62
256
370
-1
 48
1.0
  6
BYLAYER
100
AcDbPoint
 10
817086.4851180298719555
 20
985833.6328552085906267
 30
67.1770356524178709
  0
MTEXT
  5
25C
100
AcDbEntity
  8
Survey
 62
256
370
-1
 48
1.0
  6
BYLAYER
100
AcDbMText
 10
817086.4851180298719555
 20
985833.6328552085906267
 30
67.1770356524178709
 40
0.5
 41
6.5
 71
4
 72
0
  1
 273\P 67.177\P DL R 619-540
  7
standard
 50
0.0
 73
1
 44
1.0
  0
POINT
  5
25D
100
AcDbEntity
  8
Survey
 62
256
370
-1
 48
1.0
  6
BYLAYER
100
AcDbPoint
 10
817092.9135700229089707
 20
985814.3357970528304577
 30
67.1749615021439865
  0
MTEXT
  5
25E
100
AcDbEntity
  8
Survey
 62
256
370
-1
 48
1.0
  6
BYLAYER
100
AcDbMText
 10
817092.9135700229089707
 20
985814.3357970528304577
 30
67.1749615021439865
 40
0.5
 41
6.5
 71
4
 72
0
  1
 274\P 67.175\P DL R 619-560
  7
standard
 50
0.0
 73
1
 44
1.0
  0
POINT
  5
25F
100
AcDbEntity
  8
Survey
 62
256
370
-1
 48
1.0
  6
BYLAYER
100
AcDbPoint
 10
817099.1952826839406043
 20
985795.4909008764661849
 30
67.1598481998735366
  0
MTEXT
  5
260
100
AcDbEntity
  8
Survey
 62
256
370
-1
 48
1.0
  6
BYLAYER
100
AcDbMText
 10
817099.1952826839406043
 20
985795.4909008764661849
 30
67.1598481998735366
 40
0.5
 41
6.5
 71
4
 72
0
  1
 275\P 67.16\P DL R 619-580
  7
standard
 50
0.0
 73
1
 44
1.0
  0
POINT
  5
261
100
AcDbEntity
  8
Survey
 62
256
370
-1
 48
1.0
  6
BYLAYER
100
AcDbPoint
 10
817105.418307556421496
 20
985776.8599677355960011
 30
67.1321329244712928
  0
MTEXT
  5
262
100
AcDbEntity
  8
Survey
 62
256
370
-1
 48
1.0
  6
BYLAYER
100
AcDbMText
 10
817105.418307556421496
 20
985776.8599677355960011
 30
67.1321329244712928
 40
0.5
 41
6.5
 71
4
 72
0
  1
 276\P 67.132\P DL R 619-600
  7
standard
 50
0.0
 73
1
 44
1.0
  0
POINT
  5
263
100
AcDbEntity
  8
Survey
 62
256
370
-1
 48
1.0
  6
BYLAYER
100
AcDbPoint
 10
817111.8296557513531297
 20
985757.6964967239182442
 30
67.0880839875755299
  0
MTEXT
  5
264
100
AcDbEntity
  8
Survey
 62
256
370
-1
 48
1.0
  6
BYLAYER
100
AcDbMText
 10
817111.8296557513531297
 20
985757.6964967239182442
 30
67.0880839875755299
 40
0.5
 41
6.5
 71
4
 72
0
  1
 277\P 67.088\P DL R 619-620
  7
standard
 50
0.0
 73
1
 44
1.0
  0
POINT
  5
265
100
AcDbEntity
  8
Survey
 62
256
370
-1
 48
1.0
  6
BYLAYER
100
AcDbPoint
 10
817118.2691699748393148
 20
985738.3942082782741636
 30
67.059971698930454
  0
MTEXT
  5
266
100
AcDbEntity
  8
Survey
 62
256
370
-1
 48
1.0
  6
BYLAYER
100
AcDbMText
 10
817118.2691699748393148
 20
985738.3942082782741636
 30
67.059971698930454
 40
0.5
 41
6.5
 71
4
 72
0
  1
 278\P 67.06\P DL R 619-640
  7
standard
 50
0.0
 73
1
 44
1.0
  0
POINT
  5
267
100
AcDbEntity
  8
Survey
 62
256
370
-1
 48
1.0
  6
BYLAYER
100
AcDbPoint
 10
817124.7226576912216842
 20
985719.0932456895243376
 30
67.0193267234965617
  0
MTEXT
  5
268
100
AcDbEntity
  8
Survey
 62
256
370
-1
 48
1.0
  6
BYLAYER
100
AcDbMText
 10
817124.7226576912216842
 20
985719.0932456895243376
 30
67.0193267234965617
 40
0.5
 41
6.5
 71
4
 72
0
  1
 279\P 67.019\P DL R 619-660
  7
standard
 50
0.0
 73
1
 44
1.0
  0
POINT
  5
269
100
AcDbEntity
  8
Survey
 62
256
370
-1
 48
1.0
  6
BYLAYER
100
AcDbPoint
 10
817131.1501908138161525
 20
985699.8177618047920987
 30
67.0016779791063044
  0
MTEXT
  5
26A
100
AcDbEntity
  8
Survey
 62
256
370
-1
 48
1.0
  6
BYLAYER
100
AcDbMText
 10
817131.1501908138161525
 20
985699.8177618047920987
 30
67.0016779791063044
 40
0.5
 41
6.5
 71
4
 72
0
  1
 280\P 67.002\P DL R 619-680
  7
standard
 50
0.0
 73
1
 44
1.0
  0
POINT
  5
26B
100
AcDbEntity
  8
Survey
 62
256
370
-1
 48
1.0
  6
BYLAYER
100
AcDbPoint
 10
817137.5877837855368853
 20
985680.4808076655026525
 30
66.9898310977780085
  0
MTEXT
  5
26C
100
AcDbEntity
  8
Survey
 62
256
370
-1
 48
1.0
  6
BYLAYER
100
AcDbMText
 10
817137.5877837855368853
 20
985680.4808076655026525
 30
66.9898310977780085
 40
0.5
 41
6.5
 71
4
 72
0
  1
 281\P 66.99\P DL R 619-700
  7
standard
 50
0.0
 73
1
 44
1.0
  0
POINT
  5
26D
100
AcDbEntity
  8
Survey
 62
256
370
-1
 48
1.0
  6
BYLAYER
100
AcDbPoint
 10
817143.9062352804467082
 20
985661.5860466359881684
 30
67.0047013166278163
  0
MTEXT
  5
26E
100
AcDbEntity
  8
Survey
 62
256
370
-1
 48
1.0
  6
BYLAYER
100
AcDbMText
 10
817143.9062352804467082
 20
985661.5860466359881684
 30
67.0047013166278163
 40
0.5
 41
6.5
 71
4
 72
0
  1
 282\P 67.005\P DL R 619-720
  7
standard
 50
0.0
 73
1
 44
1.0
  0
POINT
  5
26F
100
AcDbEntity
  8
Survey
 62
256
370
-1
 48
1.0
  6
BYLAYER
100
AcDbPoint
 10
817150.164418279659003
 20
985642.8114754142006859
 30
66.9994757928489122
  0
MTEXT
  5
270
100
AcDbEntity
  8
Survey
 62
256
370
-1
 48
1.0
  6
BYLAYER
100
AcDbMText
 10
817150.164418279659003
 20
985642.8114754142006859
 30
66.9994757928489122
 40
0.5
 41
6.5
 71
4
 72
0
  1
 283\P 66.999\P DL R 619-740
  7
standard
 50
0.0
 73
1
 44
1.0
  0
POINT
  5
271
100
AcDbEntity
  8
Survey
 62
256
370
-1
 48
1.0
  6
BYLAYER
100
AcDbPoint
 10
817156.6341755233006552
 20
985623.5014479254605249
 30
66.9857332142279915
  0
MTEXT
  5
272
100
AcDbEntity
  8
Survey
 62
256
370
-1
 48
1.0
  6
BYLAYER
100
AcDbMText
 10
817156.6341755233006552
 20
985623.5014479254605249
 30
66.9857332142279915
 40
0.5
 41
6.5
 71
4
 72
0
  1
 284\P 66.986\P DL R 619-760
  7
standard
 50
0.0
 73
1
 44
1.0
  0
POINT
  5
273
100
AcDbEntity
  8
Survey
 62
256
370
-1
 48
1.0
  6
BYLAYER
100
AcDbPoint
 10
817163.0396651881746948
 20
985604.4433093208353966
 30
67.0457222382430587
  0
MTEXT
  5
274
100
AcDbEntity
  8
Survey
 62
256
370
-1
 48
1.0
  6
BYLAYER
100
AcDbMText
 10
817163.0396651881746948
 20
985604.4433093208353966
 30
67.0457222382430587
 40
0.5
 41
6.5
 71
4
 72
0
  1
 285\P 67.046\P DL R 619-780
  7
standard
 50
0.0
 73
1
 44
1.0
  0
POINT
  5
275
100
AcDbEntity
  8
Survey
 62
256
370
-1
 48
1.0
  6
BYLAYER
100
AcDbPoint
 10
817169.4278274441603571
 20
985585.3771753060864285
 30
67.0690426384136913
  0
MTEXT
  5
276
100
AcDbEntity
  8
Survey
 62
256
370
-1
 48
1.0
  6
BYLAYER
100
AcDbMText
 10
817169.4278274441603571
 20
985585.3771753060864285
 30
67.0690426384136913
 40
0.5
 41
6.5
 71
4
 72
0
  1
 286\P 67.069\P DL R 619-800
  7
standard
 50
0.0
 73
1
 44
1.0
  0
POINT
  5
277
100
AcDbEntity
  8
Survey
 62
256
370
-1
 48
1.0
  6
BYLAYER
100
AcDbPoint
 10
817175.9613219696329907
 20
985565.828535410691984
 30
67.0933303604165587
  0
MTEXT
  5
278
100
AcDbEntity
  8
Survey
 62
256
370
-1
 48
1.0
  6
BYLAYER
100
AcDbMText
 10
817175.9613219696329907
 20
985565.828535410691984
 30
67.0933303604165587
 40
0.5
 41
6.5
 71
4
 72
0
  1
 287\P 67.093\P DL R 619-820
  7
standard
 50
0.0
 73
1
 44
1.0
  0
POINT
  5
279
100
AcDbEntity
  8
Survey
 62
256
370
-1
 48
1.0
  6
BYLAYER
100
AcDbPoint
 10
817182.4306174193043262
 20
985546.4806425917195156
 30
67.1465656703436622
  0
MTEXT
  5
27A
100
AcDbEntity
  8
Survey
 62
256
370
-1
 48
1.0
  6
BYLAYER
100
AcDbMText
 10
817182.4306174193043262
 20
985546.4806425917195156
 30
67.1465656703436622
 40
0.5
 41
6.5
 71
4
 72
0
  1
 288\P 67.147\P DL R 619-840
  7
standard
 50
0.0
 73
1
 44
1.0
  0
POINT
  5
27B
100
AcDbEntity
  8
Survey
 62
256
370
-1
 48
1.0
  6
BYLAYER
100
AcDbPoint
 10
817188.7891469274181873
 20
985527.4607682520290837
 30
67.1909025020068782
  0
MTEXT
  5
27C
100
AcDbEntity
  8
Survey
 62
256
370
-1
 48
1.0
  6
BYLAYER
100
AcDbMText
 10
817188.7891469274181873
 20
985527.4607682520290837
 30
67.1909025020068782
 40
0.5
 41
6.5
 71
4
 72
0
  1
 289\P 67.191\P DL R 619-860
  7
standard
 50
0.0
 73
1
 44
1.0
  0
POINT
  5
27D
100
AcDbEntity
  8
Survey
 62
256
370
-1
 48
1.0
  6
BYLAYER
100
AcDbPoint
 10
817194.9108789098681882
 20
985509.190684353467077
 30
67.2061548727563007
  0
MTEXT
  5
27E
100
AcDbEntity
  8
Survey
 62
256
370
-1
 48
1.0
  6
BYLAYER
100
AcDbMText
 10
817194.9108789098681882
 20
985509.190684353467077
 30
67.2061548727563007
 40
0.5
 41
6.5
 71
4
 72
0
  1
 290\P 67.206\P DL R 619-880
  7
standard
 50
0.0
 73
1
 44
1.0
  0
POINT
  5
27F
100
AcDbEntity
  8
Survey
 62
256
370
-1
 48
1.0
  6
BYLAYER
100
AcDbPoint
 10
817200.876280679134652
 20
985491.2754953949479386
 30
67.2076382914725627
  0
MTEXT
  5
280
100
AcDbEntity
  8
Survey
 62
256
370
-1
 48
1.0
  6
BYLAYER
100
AcDbMText
 10
817200.876280679134652
 20
985491.2754953949479386
 30
67.2076382914725627
 40
0.5
 41
6.5
 71
4
 72
0
  1
 291\P 67.208\P DL R 619-900
  7
standard
 50
0.0
 73
1
 44
1.0
  0
POINT
  5
281
100
AcDbEntity
  8
Survey
 62
256
370
-1
 48
1.0
  6
BYLAYER
100
AcDbPoint
 10
817207.2788588287075981
 20
985471.9866347125498578
 30
67.2456911257690138
  0
MTEXT
  5
282
100
AcDbEntity
  8
Survey
 62
256
370
-1
 48
1.0
  6
BYLAYER
100
AcDbMText
 10
817207.2788588287075981
 20
985471.9866347125498578
 30
67.2456911257690138
 40
0.5
 41
6.5
 71
4
 72
0
  1
 292\P 67.246\P DL R 619-920
  7
standard
 50
0.0
 73
1
 44
1.0
  0
POINT
  5
283
100
AcDbEntity
  8
Survey
 62
256
370
-1
 48
1.0
  6
BYLAYER
100
AcDbPoint
 10
817213.6602561401668936
 20
985452.5627782271476462
 30
67.2827733250752118
  0
MTEXT
  5
284
100
AcDbEntity
  8
Survey
 62
256
370
-1
 48
1.0
  6
BYLAYER
100
AcDbMText
 10
817213.6602561401668936
 20
985452.5627782271476462
 30
67.2827733250752118
 40
0.5
 41
6.5
 71
4
 72
0
  1
 293\P 67.283\P DL R 619-940
  7
standard
 50
0.0
 73
1
 44
1.0
  0
POINT
  5
285
100
AcDbEntity
  8
Survey
 62
256
370
-1
 48
1.0
  6
BYLAYER
100
AcDbPoint
 10
817219.8712553845252842
 20
985433.4485422521829605
 30
67.30113120777321
  0
MTEXT
  5
286
100
AcDbEntity
  8
Survey
 62
256
370
-1
 48
1.0
  6
BYLAYER
100
AcDbMText
 10
817219.8712553845252842
 20
985433.4485422521829605
 30
67.30113120777321
 40
0.5
 41
6.5
 71
4
 72
0
  1
 294\P 67.301\P DL R 619-960
  7
standard
 50
0.0
 73
1
 44
1.0
  0
POINT
  5
287
100
AcDbEntity
  8
Survey
 62
256
370
-1
 48
1.0
  6
BYLAYER
100
AcDbPoint
 10
817225.7521042919252068
 20
985415.2113355388864875
 30
67.3059807212396208
  0
MTEXT
  5
288
100
AcDbEntity
  8
Survey
 62
256
370
-1
 48
1.0
  6
BYLAYER
100
AcDbMText
 10
817225.7521042919252068
 20
985415.2113355388864875
 30
67.3059807212396208
 40
0.5
 41
6.5
 71
4
 72
0
  1
 295\P 67.306\P DL R 619-980
  7
standard
 50
0.0
 73
1
 44
1.0
  0
POINT
  5
289
100
AcDbEntity
  8
Survey
 62
256
370
-1
 48
1.0
  6
BYLAYER
100
AcDbPoint
 10
817231.5975388791412115
 20
985396.9420817227801308
 30
67.295778879224045
  0
MTEXT
  5
28A
100
AcDbEntity
  8
Survey
 62
256
370
-1
 48
1.0
  6
BYLAYER
100
AcDbMText
 10
817231.5975388791412115
 20
985396.9420817227801308
 30
67.295778879224045
 40
0.5
 41
6.5
 71
4
 72
0
  1
 296\P 67.296\P DL R 620-000
  7
standard
 50
0.0
 73
1
 44
1.0
  0
POINT
  5
28B
100
AcDbEntity
  8
Survey
 62
256
370
-1
 48
1.0
  6
BYLAYER
100
AcDbPoint
 10
817233.2252665892010555
 20
985397.4740574196912348
 30
67.2829340581377693
  0
MTEXT
  5
28C
100
AcDbEntity
  8
Survey
 62
256
370
-1
 48
1.0
  6
BYLAYER
100
AcDbMText
 10
817233.2252665892010555
 20
985397.4740574196912348
 30
67.2829340581377693
 40
0.5
 41
6.5
 71
4
 72
0
  1
 297\P 67.283\P DL L 620-000
  7
standard
 50
0.0
 73
1
 44
1.0
  0
POINT
  5
28D
100
AcDbEntity
  8
Survey
 62
256
370
-1
 48
1.0
  6
BYLAYER
100
AcDbPoint
 10
817232.7828187955310568
 20
985396.5875712623819709
 30
67.0815365325802446
  0
MTEXT
  5
28E
100
AcDbEntity
  8
Survey
 62
256
370
-1
 48
1.0
  6
BYLAYER
100
AcDbMText
 10
817232.7828187955310568
 20
985396.5875712623819709
 30
67.0815365325802446
 40
0.5
 41
7.0
 71
4
 72
0
  1
 298\P 67.082\P XMARK 620.000
  7
standard
 50
0.0
 73
1
 44
1.0
  0
POINT
  5
28F
100
AcDbEntity
  8
Survey
 62
256
370
-1
 48
1.0
  6
BYLAYER
100
AcDbPoint
 10
817237.4525842459406704
 20
985391.7981154557783157
 30
66.8799653135224048
  0
MTEXT
  5
290
100
AcDbEntity
  8
Survey
 62
256
370
-1
 48
1.0
  6
BYLAYER
100
AcDbMText
 10
817237.4525842459406704
 20
985391.7981154557783157
 30
66.8799653135224048
 40
0.5
 41
5.5
 71
4
 72
0
  1
 299\P 66.88\P MAST 620.2
  7
standard
 50
0.0
 73
1
 44
1.0
  0
POINT
  5
291
100
AcDbEntity
  8
Survey
 62
256
370
-1
 48
1.0
  6
BYLAYER
100
AcDbPoint
 10
817237.6369394746143371
 20
985377.939195791259408
 30
67.2861756745775921
  0
MTEXT
  5
292
100
AcDbEntity
  8
Survey
 62
256
370
-1
 48
1.0
  6
BYLAYER
100
AcDbMText
 10
817237.6369394746143371
 20
985377.939195791259408
 30
67.2861756745775921
 40
0.5
 41
6.5
 71
4
 72
0
  1
 300\P 67.286\P DL R 620-020
  7
standard
 50
0.0
 73
1
 44
1.0
  0
POINT
  5
293
100
AcDbEntity
  8
Survey
 62
256
370
-1
 48
1.0
  6
BYLAYER
100
AcDbPoint
 10
817243.8601825037039816
 20
985358.5127738828305155
 30
67.2724205193860882
  0
MTEXT
  5
294
100
AcDbEntity
  8
Survey
 62
256
370
-1
 48
1.0
  6
BYLAYER
100
AcDbMText
 10
817243.8601825037039816
 20
985358.5127738828305155
 30
67.2724205193860882
 40
0.5
 41
6.5
 71
4
 72
0
  1
 301\P 67.272\P DL R 620-040
  7
standard
 50
0.0
 73
1
 44
1.0
  0
POINT
  5
295
100
AcDbEntity
  8
Survey
 62
256
370
-1
 48
1.0
  6
BYLAYER
100
AcDbPoint
 10
817250.067043439950794
 20
985339.2112012357683852
 30
67.272922170707389
  0
MTEXT
  5
296
100
AcDbEntity
  8
Survey
 62
256
370
-1
 48
1.0
  6
BYLAYER
100
AcDbMText
 10
817250.067043439950794
 20
985339.2112012357683852
 30
67.272922170707389
 40
0.5
 41
6.5
 71
4
 72
0
  1
 302\P 67.273\P DL R 620-060
  7
standard
 50
0.0
 73
1
 44
1.0
  0
POINT
  5
297
100
AcDbEntity
  8
Survey
 62
256
370
-1
 48
1.0
  6
BYLAYER
100
AcDbPoint
 10
817256.2156718057813123
 20
985319.9945217258064076
 30
67.2889125409382984
  0
MTEXT
  5
298
100
AcDbEntity
  8
Survey
 62
256
370
-1
 48
1.0
  6
BYLAYER
100
AcDbMText
 10
817256.2156718057813123
 20
985319.9945217258064076
 30
67.2889125409382984
 40
0.5
 41
6.5
 71
4
 72
0
  1
 303\P 67.289\P DL R 620-080
  7
standard
 50
0.0
 73
1
 44
1.0
  0
POINT
  5
299
100
AcDbEntity
  8
Survey
 62
256
370
-1
 48
1.0
  6
BYLAYER
100
AcDbPoint
 10
817262.4949572326149791
 20
985300.342157484497875
 30
67.287685836972031
  0
MTEXT
  5
29A
100
AcDbEntity
  8
Survey
 62
256
370
-1
 48
1.0
  6
BYLAYER
100
AcDbMText
 10
817262.4949572326149791
 20
985300.342157484497875
 30
67.287685836972031
 40
0.5
 41
6.5
 71
4
 72
0
  1
 304\P 67.288\P DL R 620-100
  7
standard
 50
0.0
 73
1
 44
1.0
  0
POINT
  5
29B
100
AcDbEntity
  8
Survey
 62
256
370
-1
 48
1.0
  6
BYLAYER
100
AcDbPoint
 10
817268.6638768577249721
 20
985281.0369657044066116
 30
67.3241971272059345
  0
MTEXT
  5
29C
100
AcDbEntity
  8
Survey
 62
256
370
-1
 48
1.0
  6
BYLAYER
100
AcDbMText
 10
817268.6638768577249721
 20
985281.0369657044066116
 30
67.3241971272059345
 40
0.5
 41
6.5
 71
4
 72
0
  1
 305\P 67.324\P DL R 620-120
  7
standard
 50
0.0
 73
1
 44
1.0
  0
POINT
  5
29D
100
AcDbEntity
  8
Survey
 62
256
370
-1
 48
1.0
  6
BYLAYER
100
AcDbPoint
 10
817274.8736860931385309
 20
985261.5282973429420963
 30
67.3457316599807001
  0
MTEXT
  5
29E
100
AcDbEntity
  8
Survey
 62
256
370
-1
 48
1.0
  6
BYLAYER
100
AcDbMText
 10
817274.8736860931385309
 20
985261.5282973429420963
 30
67.3457316599807001
 40
0.5
 41
6.5
 71
4
 72
0
  1
 306\P 67.346\P DL R 620-140
  7
standard
 50
0.0
 73
1
 44
1.0
  0
POINT
  5
29F
100
AcDbEntity
  8
Survey
 62
256
370
-1
 48
1.0
  6
BYLAYER
100
AcDbPoint
 10
817281.108717740746215
 20
985242.0042164701735601
 30
67.4035702829302892
  0
MTEXT
  5
2A0
100
AcDbEntity
  8
Survey
 62
256
370
-1
 48
1.0
  6
BYLAYER
100
AcDbMText
 10
817281.108717740746215
 20
985242.0042164701735601
 30
67.4035702829302892
 40
0.5
 41
6.5
 71
4
 72
0
  1
 307\P 67.404\P DL R 620-160
  7
standard
 50
0.0
 73
1
 44
1.0
  0
POINT
  5
2A1
100
AcDbEntity
  8
Survey
 62
256
370
-1
 48
1.0
  6
BYLAYER
100
AcDbPoint
 10
817287.2855948866344988
 20
985222.5973531019408256
 30
67.4650688864127801
  0
MTEXT
  5
2A2
100
AcDbEntity
  8
Survey
 62
256
370
-1
 48
1.0
  6
BYLAYER
100
AcDbMText
 10
817287.2855948866344988
 20
985222.5973531019408256
 30
67.4650688864127801
 40
0.5
 41
6.5
 71
4
 72
0
  1
 308\P 67.465\P DL R 620-180
  7
standard
 50
0.0
 73
1
 44
1.0
  0
POINT
  5
2A3
100
AcDbEntity
  8
Survey
 62
256
370
-1
 48
1.0
  6
BYLAYER
100
AcDbPoint
 10
817293.5167028090218082
 20
985203.069033527513966
 30
67.524932069128738
  0
MTEXT
  5
2A4
100
AcDbEntity
  8
Survey
 62
256
370
-1
 48
1.0
  6
BYLAYER
100
AcDbMText
 10
817293.5167028090218082
 20
985203.069033527513966
 30
67.524932069128738
 40
0.5
 41
6.5
 71
4
 72
0
  1
 309\P 67.525\P DL R 620-200
  7
standard
 50
0.0
 73
1
 44
1.0
  0
POINT
  5
2A5
100
AcDbEntity
  8
Survey
 62
256
370
-1
 48
1.0
  6
BYLAYER
100
AcDbPoint
 10
817299.6829502647742629
 20
985183.741456025862135
 30
67.600393188035369
  0
MTEXT
  5
2A6
100
AcDbEntity
  8
Survey
 62
256
370
-1
 48
1.0
  6
BYLAYER
100
AcDbMText
 10
817299.6829502647742629
 20
985183.741456025862135
 30
67.600393188035369
 40
0.5
 41
6.5
 71
4
 72
0
  1
 310\P 67.6\P DL R 620-220
  7
standard
 50
0.0
 73
1
 44
1.0
  0
POINT
  5
2A7
100
AcDbEntity
  8
Survey
 62
256
370
-1
 48
1.0
  6
BYLAYER
100
AcDbPoint
 10
817306.0094120912253857
 20
985163.9712287770817056
 30
67.6900081858183
  0
MTEXT
  5
2A8
100
AcDbEntity
  8
Survey
 62
256
370
-1
 48
1.0
  6
BYLAYER
100
AcDbMText
 10
817306.0094120912253857
 20
985163.9712287770817056
 30
67.6900081858183
 40
0.5
 41
6.5
 71
4
 72
0
  1
 311\P 67.69\P DL R 620-240
  7
standard
 50
0.0
 73
1
 44
1.0
  0
POINT
  5
2A9
100
AcDbEntity
  8
Survey
 62
256
370
-1
 48
1.0
  6
BYLAYER
100
AcDbPoint
 10
817312.2753284806385636
 20
985144.3848404777236283
 30
67.7315641875722605
  0
MTEXT
  5
2AA
100
AcDbEntity
  8
Survey
 62
256
370
-1
 48
1.0
  6
BYLAYER
100
AcDbMText
 10
817312.2753284806385636
 20
985144.3848404777236283
 30
67.7315641875722605
 40
0.5
 41
6.5
 71
4
 72
0
  1
 312\P 67.732\P DL R 620-260
  7
standard
 50
0.0
 73
1
 44
1.0
  0
POINT
  5
2AB
100
AcDbEntity
  8
Survey
 62
256
370
-1
 48
1.0
  6
BYLAYER
100
AcDbPoint
 10
817318.3327585476217791
 20
985125.3477687720442191
 30
67.8205113181600154
  0
MTEXT
  5
2AC
100
AcDbEntity
  8
Survey
 62
256
370
-1
 48
1.0
  6
BYLAYER
100
AcDbMText
 10
817318.3327585476217791
 20
985125.3477687720442191
 30
67.8205113181600154
 40
0.5
 41
6.5
 71
4
 72
0
  1
 313\P 67.821\P DL R 620-280
  7
standard
 50
0.0
 73
1
 44
1.0
  0
POINT
  5
2AD
100
AcDbEntity
  8
Survey
 62
256
370
-1
 48
1.0
  6
BYLAYER
100
AcDbPoint
 10
817324.511986295459792
 20
985105.9806595195550472
 30
67.8725729824409427
  0
MTEXT
  5
2AE
100
AcDbEntity
  8
Survey
 62
256
370
-1
 48
1.0
  6
BYLAYER
100
AcDbMText
 10
817324.511986295459792
 20
985105.9806595195550472
 30
67.8725729824409427
 40
0.5
 41
6.5
 71
4
 72
0
  1
 314\P 67.873\P DL R 620-300
  7
standard
 50
0.0
 73
1
 44
1.0
  0
POINT
  5
2AF
100
AcDbEntity
  8
Survey
 62
256
370
-1
 48
1.0
  6
BYLAYER
100
AcDbPoint
 10
817330.6695813871920109
 20
985086.564673752291128
 30
67.9180689918477043
  0
MTEXT
  5
2B0
100
AcDbEntity
  8
Survey
 62
256
370
-1
 48
1.0
  6
BYLAYER
100
AcDbMText
 10
817330.6695813871920109
 20
985086.564673752291128
 30
67.9180689918477043
 40
0.5
 41
6.5
 71
4
 72
0
  1
 315\P 67.918\P DL R 620-320
  7
standard
 50
0.0
 73
1
 44
1.0
  0
POINT
  5
2B1
100
AcDbEntity
  8
Survey
 62
256
370
-1
 48
1.0
  6
BYLAYER
100
AcDbPoint
 10
817336.8037506160326302
 20
985067.315658270730637
 30
67.9657293547025603
  0
MTEXT
  5
2B2
100
AcDbEntity
  8
Survey
 62
256
370
-1
 48
1.0
  6
BYLAYER
100
AcDbMText
 10
817336.8037506160326302
 20
985067.315658270730637
 30
67.9657293547025603
 40
0.5
 41
6.5
 71
4
 72
0
  1
 316\P 67.966\P DL R 620-340
  7
standard
 50
0.0
 73
1
 44
1.0
  0
POINT
  5
2B3
100
AcDbEntity
  8
Survey
 62
256
370
-1
 48
1.0
  6
BYLAYER
100
AcDbPoint
 10
817343.0014351912541315
 20
985047.8839323461288586
 30
68.0308141528960277
  0
MTEXT
  5
2B4
100
AcDbEntity
  8
Survey
 62
256
370
-1
 48
1.0
  6
BYLAYER
100
AcDbMText
 10
817343.0014351912541315
 20
985047.8839323461288586
 30
68.0308141528960277
 40
0.5
 41
6.5
 71
4
 72
0
  1
 317\P 68.031\P DL R 620-360
  7
standard
 50
0.0
 73
1
 44
1.0
  0
POINT
  5
2B5
100
AcDbEntity
  8
Survey
 62
256
370
-1
 48
1.0
  6
BYLAYER
100
AcDbPoint
 10
817349.059903347864747
 20
985028.828599747037515
 30
68.1284802583979854
  0
MTEXT
  5
2B6
100
AcDbEntity
  8
Survey
 62
256
370
-1
 48
1.0
  6
BYLAYER
100
AcDbMText
 10
817349.059903347864747
 20
985028.828599747037515
 30
68.1284802583979854
 40
0.5
 41
6.5
 71
4
 72
0
  1
 318\P 68.128\P DL R 620-380
  7
standard
 50
0.0
 73
1
 44
1.0
  0
POINT
  5
2B7
100
AcDbEntity
  8
Survey
 62
256
370
-1
 48
1.0
  6
BYLAYER
100
AcDbPoint
 10
817355.0234209587797523
 20
985010.2045797263272107
 30
68.2019305720602347
  0
MTEXT
  5
2B8
100
AcDbEntity
  8
Survey
 62
256
370
-1
 48
1.0
  6
BYLAYER
100
AcDbMText
 10
817355.0234209587797523
 20
985010.2045797263272107
 30
68.2019305720602347
 40
0.5
 41
6.5
 71
4
 72
0
  1
 319\P 68.202\P DL R 620-400
  7
standard
 50
0.0
 73
1
 44
1.0
  0
POINT
  5
2B9
100
AcDbEntity
  8
Survey
 62
256
370
-1
 48
1.0
  6
BYLAYER
100
AcDbPoint
 10
817361.2913498173002154
 20
984990.7021097923861817
 30
68.2768458462680883
  0
MTEXT
  5
2BA
100
AcDbEntity
  8
Survey
 62
256
370
-1
 48
1.0
  6
BYLAYER
100
AcDbMText
 10
817361.2913498173002154
 20
984990.7021097923861817
 30
68.2768458462680883
 40
0.5
 41
6.5
 71
4
 72
0
  1
 320\P 68.277\P DL R 620-420
  7
standard
 50
0.0
 73
1
 44
1.0
  0
POINT
  5
2BB
100
AcDbEntity
  8
Survey
 62
256
370
-1
 48
1.0
  6
BYLAYER
100
AcDbPoint
 10
817364.507667877827771
 20
984980.7096972102299333
 30
68.308493590339495
  0
MTEXT
  5
2BC
100
AcDbEntity
  8
Survey
 62
256
370
-1
 48
1.0
  6
BYLAYER
100
AcDbMText
 10
817364.507667877827771
 20
984980.7096972102299333
 30
68.308493590339495
 40
0.5
 41
3.5
 71
4
 72
0
  1
 321\P 68.308\P V0 SE0
  7
standard
 50
0.0
 73
1
 44
1.0
  0
POINT
  5
2BD
100
AcDbEntity
  8
Survey
 62
256
370
-1
 48
1.0
  6
BYLAYER
100
AcDbPoint
 10
817370.4075453202240169
 20
984962.6386683940654621
 30
68.3734600225868405
  0
MTEXT
  5
2BE
100
AcDbEntity
  8
Survey
 62
256
370
-1
 48
1.0
  6
BYLAYER
100
AcDbMText
 10
817370.4075453202240169
 20
984962.6386683940654621
 30
68.3734600225868405
 40
0.5
 41
6.5
 71
4
 72
0
  1
 322\P 68.373\P DL R 620-440
  7
standard
 50
0.0
 73
1
 44
1.0
  0
POINT
  5
2BF
100
AcDbEntity
  8
Survey
 62
256
370
-1
 48
1.0
  6
BYLAYER
100
AcDbPoint
 10
817376.22493970929645
 20
984944.8259180404711515
 30
68.4249430235896199
  0
MTEXT
  5
2C0
100
AcDbEntity
  8
Survey
 62
256
370
-1
 48
1.0
  6
BYLAYER
100
AcDbMText
 10
817376.22493970929645
 20
984944.8259180404711515
 30
68.4249430235896199
 40
0.5
 41
6.5
 71
4
 72
0
  1
 323\P 68.425\P DL R 620-460
  7
standard
 50
0.0
 73
1
 44
1.0
  0
POINT
  5
2C1
100
AcDbEntity
  8
Survey
 62
256
370
-1
 48
1.0
  6
BYLAYER
100
AcDbPoint
 10
817379.3771719934884459
 20
984935.2031784625723958
 30
68.4341029327818546
  0
MTEXT
  5
2C2
100
AcDbEntity
  8
Survey
 62
256
370
-1
 48
1.0
  6
BYLAYER
100
AcDbMText
 10
817379.3771719934884459
 20
984935.2031784625723958
 30
68.4341029327818546
 40
0.5
 41
6.5
 71
4
 72
0
  1
 324\P 68.434\P DL R 620-480
  7
standard
 50
0.0
 73
1
 44
1.0
  0
POINT
  5
2C3
100
AcDbEntity
  8
Survey
 62
256
370
-1
 48
1.0
  6
BYLAYER
100
AcDbPoint
 10
817380.0194344269111753
 20
984933.2654389151139185
 30
68.453098349372965
  0
MTEXT
  5
2C4
100
AcDbEntity
  8
Survey
 62
256
370
-1
 48
1.0
  6
BYLAYER
100
AcDbMText
 10
817380.0194344269111753
 20
984933.2654389151139185
 30
68.453098349372965
 40
0.5
 41
4.0
 71
4
 72
0
  1
 325\P 68.453\P V7 SE10
  7
standard
 50
0.0
 73
1
 44
1.0
  0
POINT
  5
2C5
100
AcDbEntity
  8
Survey
 62
256
370
-1
 48
1.0
  6
BYLAYER
100
AcDbPoint
 10
817384.1104232973884791
 20
984920.9099146577063948
 30
68.4940638608673424
  0
MTEXT
  5
2C6
100
AcDbEntity
  8
Survey
 62
256
370
-1
 48
1.0
  6
BYLAYER
100
AcDbMText
 10
817384.1104232973884791
 20
984920.9099146577063948
 30
68.4940638608673424
 40
0.5
 41
6.5
 71
4
 72
0
  1
 326\P 68.494\P DL R 620-500
  7
standard
 50
0.0
 73
1
 44
1.0
  0
POINT
  5
2C7
100
AcDbEntity
  8
Survey
 62
256
370
-1
 48
1.0
  6
BYLAYER
100
AcDbPoint
 10
817385.7239823460113257
 20
984921.6239889364223927
 30
68.4661550096055294
  0
MTEXT
  5
2C8
100
AcDbEntity
  8
Survey
 62
256
370
-1
 48
1.0
  6
BYLAYER
100
AcDbMText
 10
817385.7239823460113257
 20
984921.6239889364223927
 30
68.4661550096055294
 40
0.5
 41
6.5
 71
4
 72
0
  1
 327\P 68.466\P DL L 620-500
  7
standard
 50
0.0
 73
1
 44
1.0
  0
POINT
  5
2C9
100
AcDbEntity
  8
Survey
 62
256
370
-1
 48
1.0
  6
BYLAYER
100
AcDbPoint
 10
817388.5764050817815587
 20
984922.7372693651122972
 30
67.8840723806446817
  0
MTEXT
  5
2CA
100
AcDbEntity
  8
Survey
 62
256
370
-1
 48
1.0
  6
BYLAYER
100
AcDbMText
 10
817388.5764050817815587
 20
984922.7372693651122972
 30
67.8840723806446817
 40
0.5
 41
5.5
 71
4
 72
0
  1
 328\P 67.884\P HM 620.500
  7
standard
 50
0.0
 73
1
 44
1.0
  0
POINT
  5
2CB
100
AcDbEntity
  8
Survey
 62
256
370
-1
 48
1.0
  6
BYLAYER
100
AcDbPoint
 10
817384.9061933802440763
 20
984921.309429272194393
 30
68.266198841172951
  0
MTEXT
  5
2CC
100
AcDbEntity
  8
Survey
 62
256
370
-1
 48
1.0
  6
BYLAYER
100
AcDbMText
 10
817384.9061933802440763
 20
984921.309429272194393
 30
68.266198841172951
 40
0.5
 41
7.0
 71
4
 72
0
  1
 329\P 68.266\P XMARK 620.500
  7
standard
 50
0.0
 73
1
 44
1.0
  0
POINT
  5
2CD
100
AcDbEntity
  8
Survey
 62
256
370
-1
 48
1.0
  6
BYLAYER
100
AcDbPoint
 10
817390.262229690910317
 20
984902.3953997475327924
 30
68.4948304330865341
  0
MTEXT
  5
2CE
100
AcDbEntity
  8
Survey
 62
256
370
-1
 48
1.0
  6
BYLAYER
100
AcDbMText
 10
817390.262229690910317
 20
984902.3953997475327924
 30
68.4948304330865341
 40
0.5
 41
6.5
 71
4
 72
0
  1
 330\P 68.495\P DL R 620-520
  7
standard
 50
0.0
 73
1
 44
1.0
  0
POINT
  5
2CF
100
AcDbEntity
  8
Survey
 62
256
370
-1
 48
1.0
  6
BYLAYER
100
AcDbPoint
 10
817392.7684706123545766
 20
984894.9348652486223727
 30
68.5253216628036625
  0
MTEXT
  5
2D0
100
AcDbEntity
  8
Survey
 62
256
370
-1
 48
1.0
  6
BYLAYER
100
AcDbMText
 10
817392.7684706123545766
 20
984894.9348652486223727
 30
68.5253216628036625
 40
0.5
 41
4.0
 71
4
 72
0
  1
 331\P 68.525\P V7 SE10
  7
standard
 50
0.0
 73
1
 44
1.0
  0
POINT
  5
2D1
100
AcDbEntity
  8
Survey
 62
256
370
-1
 48
1.0
  6
BYLAYER
100
AcDbPoint
 10
817398.9792295765364543
 20
984888.4419350617099553
 30
68.183012138056057
  0
MTEXT
  5
2D2
100
AcDbEntity
  8
Survey
 62
256
370
-1
 48
1.0
  6
BYLAYER
100
AcDbMText
 10
817398.9792295765364543
 20
984888.4419350617099553
 30
68.183012138056057
 40
0.5
 41
6.0
 71
4
 72
0
  1
 332\P 68.183\P MAST 620.20
  7
standard
 50
0.0
 73
1
 44
1.0
  0
POINT
  5
2D3
100
AcDbEntity
  8
Survey
 62
256
370
-1
 48
1.0
  6
BYLAYER
100
AcDbPoint
 10
817396.1764522833982483
 20
984884.8298156528035179
 30
68.5317652420360588
  0
MTEXT
  5
2D4
100
AcDbEntity
  8
Survey
 62
256
370
-1
 48
1.0
  6
BYLAYER
100
AcDbMText
 10
817396.1764522833982483
 20
984884.8298156528035179
 30
68.5317652420360588
 40
0.5
 41
6.5
 71
4
 72
0
  1
 333\P 68.532\P DL R 620-540
  7
standard
 50
0.0
 73
1
 44
1.0
  0
POINT
  5
2D5
100
AcDbEntity
  8
Survey
 62
256
370
-1
 48
1.0
  6
BYLAYER
100
AcDbPoint
 10
817402.5672777818981558
 20
984865.6917200514581054
 30
68.5655419176238752
  0
MTEXT
  5
2D6
100
AcDbEntity
  8
Survey
 62
256
370
-1
 48
1.0
  6
BYLAYER
100
AcDbMText
 10
817402.5672777818981558
 20
984865.6917200514581054
 30
68.5655419176238752
 40
0.5
 41
6.5
 71
4
 72
0
  1
 334\P 68.566\P DL R 620-560
  7
standard
 50
0.0
 73
1
 44
1.0
  0
POINT
  5
2D7
100
AcDbEntity
  8
Survey
 62
256
370
-1
 48
1.0
  6
BYLAYER
100
AcDbPoint
 10
817405.4054011965636164
 20
984857.2321783602237701
 30
68.5857040277631285
  0
MTEXT
  5
2D8
100
AcDbEntity
  8
Survey
 62
256
370
-1
 48
1.0
  6
BYLAYER
100
AcDbMText
 10
817405.4054011965636164
 20
984857.2321783602237701
 30
68.5857040277631285
 40
0.5
 41
3.5
 71
4
 72
0
  1
 335\P 68.586\P V0 SE0
  7
standard
 50
0.0
 73
1
 44
1.0
  0
POINT
  5
2D9
100
AcDbEntity
  8
Survey
 62
256
370
-1
 48
1.0
  6
BYLAYER
100
AcDbPoint
 10
817408.668962728464976
 20
984847.521414706017822
 30
68.5997664127618236
  0
MTEXT
  5
2DA
100
AcDbEntity
  8
Survey
 62
256
370
-1
 48
1.0
  6
BYLAYER
100
AcDbMText
 10
817408.668962728464976
 20
984847.521414706017822
 30
68.5997664127618236
 40
0.5
 41
6.5
 71
4
 72
0
  1
 336\P 68.6\P DL R 620-580
  7
standard
 50
0.0
 73
1
 44
1.0
  0
POINT
  5
2DB
100
AcDbEntity
  8
Survey
 62
256
370
-1
 48
1.0
  6
BYLAYER
100
AcDbPoint
 10
817415.0960603007115424
 20
984828.2642681110883132
 30
68.6221309460556057
  0
MTEXT
  5
2DC
100
AcDbEntity
  8
Survey
 62
256
370
-1
 48
1.0
  6
BYLAYER
100
AcDbMText
 10
817415.0960603007115424
 20
984828.2642681110883132
 30
68.6221309460556057
 40
0.5
 41
6.5
 71
4
 72
0
  1
 337\P 68.622\P DL R 620-600
  7
standard
 50
0.0
 73
1
 44
1.0
  0
POINT
  5
2DD
100
AcDbEntity
  8
Survey
 62
256
370
-1
 48
1.0
  6
BYLAYER
100
AcDbPoint
 10
817421.4903614837676287
 20
984809.0911061079241335
 30
68.6246971069845841
  0
MTEXT
  5
2DE
100
AcDbEntity
  8
Survey
 62
256
370
-1
 48
1.0
  6
BYLAYER
100
AcDbMText
 10
817421.4903614837676287
 20
984809.0911061079241335
 30
68.6246971069845841
 40
0.5
 41
6.5
 71
4
 72
0
  1
 338\P 68.625\P DL R 620-620
  7
standard
 50
0.0
 73
1
 44
1.0
  0
ENDSEC
  0
SECTION
  2
OBJECTS
  0
DICTIONARY
  5
C
100
AcDbDictionary
280
0
281
1
  3
ACAD_GROUP
350
D
  3
ACAD_LAYOUT
350
1A
  3
ACAD_MLINESTYLE
350
17
  3
ACAD_PLOTSETTINGS
350
19
  3
ACAD_PLOTSTYLENAME
350
E
  3
AcDbVariableDictionary
350
2DF
  0
DICTIONARY
  5
D
100
AcDbDictionary
280
0
281
1
  0
ACDBDICTIONARYWDFLT
  5
E
100
AcDbDictionary
281
1
  3
Normal
350
F
100
AcDbDictionaryWithDefault
340
F
  0
ACDBPLACEHOLDER
  5
F
  0
DICTIONARY
  5
17
100
AcDbDictionary
280
0
281
1
  3
Standard
350
18
  0
MLINESTYLE
  5
18
100
AcDbMlineStyle
  2
STANDARD
 70
0
  3

 62
256
 51
90.0
 52
90.0
 71
2
 49
0.5
 62
256
  6
BYLAYER
 49
-0.5
 62
256
  6
BYLAYER
  0
DICTIONARY
  5
19
100
AcDbDictionary
280
0
281
1
  0
DICTIONARY
  5
1A
100
AcDbDictionary
281
1
  3
Layout1
350
1E
  3
Layout2
350
26
  3
Model
350
22
  0
LAYOUT
  5
1E
100
AcDbPlotSettings
  1

  2
none_device
  4

  6

 40
0.0
 41
0.0
 42
0.0
 43
0.0
 44
0.0
 45
0.0
 46
0.0
 47
0.0
 48
0.0
 49
0.0
140
0.0
141
0.0
142
1.0
143
1.0
 70
688
 72
0
 73
0
 74
5
  7

 75
16
147
1.0
148
0.0
149
0.0
100
AcDbLayout
  1
Layout1
 70
1
 71
1
 10
0.0
 20
0.0
 11
420.0
 21
297.0
 12
0.0
 22
0.0
 32
0.0
 14
100000000000000000000.0
 24
100000000000000000000.0
 34
100000000000000000000.0
 15
-100000000000000000000.0
 25
-100000000000000000000.0
 35
-100000000000000000000.0
146
0.0
 13
0.0
 23
0.0
 33
0.0
 16
1.0
 26
0.0
 36
0.0
 17
0.0
 27
1.0
 37
0.0
 76
0
330
1B
  0
LAYOUT
  5
22
100
AcDbPlotSettings
  1

  2
none_device
  4

  6

 40
0.0
 41
0.0
 42
0.0
 43
0.0
 44
0.0
 45
0.0
 46
0.0
 47
0.0
 48
0.0
 49
0.0
140
0.0
141
0.0
142
1.0
143
1.0
 70
1712
 72
0
 73
0
 74
0
  7

 75
0
147
1.0
148
0.0
149
0.0
100
AcDbLayout
  1
Model
 70
1
 71
0
 10
0.0
 20
0.0
 11
12.0
 21
9.0
 12
0.0
 22
0.0
 32
0.0
 14
0.0
 24
0.0
 34
0.0
 15
0.0
 25
0.0
 35
0.0
146
0.0
 13
0.0
 23
0.0
 33
0.0
 16
1.0
 26
0.0
 36
0.0
 17
0.0
 27
1.0
 37
0.0
 76
0
330
1F
  0
LAYOUT
  5
26
100
AcDbPlotSettings
  1

  2
none_device
  4

  6

 40
0.0
 41
0.0
 42
0.0
 43
0.0
 44
0.0
 45
0.0
 46
0.0
 47
0.0
 48
0.0
 49
0.0
140
0.0
141
0.0
142
1.0
143
1.0
 70
688
 72
0
 73
0
 74
5
  7

 75
16
147
1.0
148
0.0
149
0.0
100
AcDbLayout
  1
Layout2
 70
1
 71
2
 10
0.0
 20
0.0
 11
12.0
 21
9.0
 12
0.0
 22
0.0
 32
0.0
 14
0.0
 24
0.0
 34
0.0
 15
0.0
 25
0.0
 35
0.0
146
0.0
 13
0.0
 23
0.0
 33
0.0
 16
1.0
 26
0.0
 36
0.0
 17
0.0
 27
1.0
 37
0.0
 76
0
330
23
  0
DICTIONARY
  5
2DF
100
AcDbDictionary
281
1
  3
DIMASSOC
350
2E1
  3
HIDETEXT
350
2E0
  0
DICTIONARYVAR
  5
2E0
100
DictionaryVariables
280
0
  1
2
  0
DICTIONARYVAR
  5
2E1
100
DictionaryVariables
280
0
  1
1
  0
ENDSEC
  0
EOF
